<svg width="295" height="39" viewBox="0 0 295 39" fill="none" xmlns="http://www.w3.org/2000/svg">
<rect width="294.44" height="39" rx="6.75" fill="#DBEAFE"/>
<path d="M16.766 26.8322H35.7973V7.80094H16.766V26.8322ZM42.8258 25.5V11.6591H51.125V13.1459H44.5019V17.8226H50.5032V19.3094H44.5019V25.5H42.8258ZM56.834 25.7433C56.1762 25.7433 55.5792 25.6194 55.0431 25.3716C54.5069 25.1193 54.0812 24.7566 53.7658 24.2835C53.4504 23.8059 53.2927 23.2292 53.2927 22.5534C53.2927 21.9587 53.4098 21.4766 53.6441 21.1071C53.8784 20.7332 54.1915 20.4403 54.5835 20.2286C54.9755 20.0168 55.408 19.8591 55.8811 19.7555C56.3587 19.6474 56.8385 19.5617 57.3206 19.4987C57.9514 19.4176 58.4628 19.3567 58.8547 19.3162C59.2512 19.2711 59.5396 19.1968 59.7198 19.0932C59.9045 18.9895 59.9969 18.8093 59.9969 18.5525V18.4984C59.9969 17.8316 59.8144 17.3135 59.4495 16.944C59.089 16.5746 58.5416 16.3899 57.8072 16.3899C57.0458 16.3899 56.4488 16.5566 56.0163 16.89C55.5837 17.2234 55.2796 17.5793 55.1039 17.9578L53.5901 17.4171C53.8604 16.7864 54.2208 16.2953 54.6714 15.9438C55.1264 15.5879 55.622 15.3401 56.1582 15.2004C56.6989 15.0562 57.2305 14.9842 57.7531 14.9842C58.0865 14.9842 58.4695 15.0247 58.902 15.1058C59.3391 15.1824 59.7603 15.3423 60.1658 15.5856C60.5758 15.8289 60.916 16.1961 61.1863 16.6872C61.4567 17.1783 61.5918 17.8361 61.5918 18.6606V25.5H59.9969V24.0943H59.9158C59.8077 24.3196 59.6274 24.5606 59.3751 24.8174C59.1228 25.0742 58.7872 25.2927 58.3681 25.473C57.9491 25.6532 57.4378 25.7433 56.834 25.7433ZM57.0773 24.3105C57.7081 24.3105 58.2397 24.1866 58.6723 23.9388C59.1093 23.691 59.4382 23.3711 59.659 22.9792C59.8842 22.5872 59.9969 22.1749 59.9969 21.7424V20.2826C59.9293 20.3637 59.7806 20.4381 59.5508 20.5056C59.3256 20.5687 59.0642 20.625 58.7669 20.6746C58.474 20.7197 58.1879 20.7602 57.9086 20.7963C57.6337 20.8278 57.4107 20.8548 57.2395 20.8774C56.825 20.9314 56.4375 21.0193 56.0771 21.1409C55.7212 21.2581 55.4328 21.436 55.212 21.6748C54.9958 21.9091 54.8876 22.229 54.8876 22.6345C54.8876 23.1887 55.0926 23.6077 55.5026 23.8915C55.9171 24.1709 56.442 24.3105 57.0773 24.3105ZM71.8559 17.4442L70.4232 17.8497C70.3331 17.6109 70.2002 17.3788 70.0244 17.1536C69.8532 16.9238 69.619 16.7345 69.3216 16.5859C69.0242 16.4372 68.6435 16.3628 68.1794 16.3628C67.5442 16.3628 67.0148 16.5093 66.5913 16.8021C66.1722 17.0905 65.9627 17.4577 65.9627 17.9037C65.9627 18.3002 66.1069 18.6133 66.3953 18.8431C66.6836 19.0729 67.1342 19.2644 67.7469 19.4176L69.2878 19.796C70.2159 20.0213 70.9075 20.366 71.3626 20.83C71.8176 21.2896 72.0452 21.8821 72.0452 22.6075C72.0452 23.2022 71.874 23.7338 71.5315 24.2024C71.1936 24.671 70.7205 25.0404 70.1123 25.3108C69.5041 25.5811 68.7967 25.7163 67.9902 25.7163C66.9314 25.7163 66.0551 25.4865 65.3612 25.0269C64.6674 24.5674 64.2281 23.896 64.0434 23.013L65.5572 22.6345C65.7014 23.1932 65.974 23.6122 66.375 23.8915C66.7805 24.1709 67.3099 24.3105 67.9632 24.3105C68.7066 24.3105 69.2968 24.1529 69.7338 23.8375C70.1754 23.5176 70.3962 23.1346 70.3962 22.6886C70.3962 22.3281 70.27 22.0263 70.0177 21.783C69.7654 21.5352 69.3779 21.3504 68.8553 21.2288L67.1252 20.8233C66.1745 20.598 65.4761 20.2488 65.0301 19.7758C64.5886 19.2982 64.3678 18.7012 64.3678 17.9848C64.3678 17.3991 64.5322 16.881 64.8611 16.4304C65.1945 15.9799 65.6473 15.6262 66.2195 15.3694C66.7963 15.1126 67.4496 14.9842 68.1794 14.9842C69.2067 14.9842 70.0132 15.2094 70.5989 15.66C71.1891 16.1105 71.6081 16.7053 71.8559 17.4442ZM78.9606 15.1193V16.471H73.581V15.1193H78.9606ZM75.1489 12.6323H76.7438V22.5264C76.7438 22.9769 76.8092 23.3148 76.9398 23.5401C77.075 23.7609 77.2462 23.9096 77.4535 23.9862C77.6652 24.0582 77.8882 24.0943 78.1225 24.0943C78.2982 24.0943 78.4424 24.0853 78.5551 24.0672C78.6677 24.0447 78.7578 24.0267 78.8254 24.0132L79.1498 25.4459C79.0416 25.4865 78.8907 25.527 78.697 25.5676C78.5032 25.6126 78.2577 25.6352 77.9603 25.6352C77.5098 25.6352 77.0682 25.5383 76.6357 25.3446C76.2077 25.1508 75.8518 24.8557 75.5679 24.4592C75.2886 24.0627 75.1489 23.5626 75.1489 22.9589V12.6323ZM90.6321 25.6892C89.7219 25.6892 88.938 25.5225 88.2802 25.1891C87.6224 24.8557 87.1155 24.3984 86.7596 23.8172C86.4036 23.236 86.2257 22.5714 86.2257 21.8235C86.2257 21.2468 86.3473 20.7354 86.5906 20.2894C86.8384 19.8388 87.1786 19.4221 87.6111 19.0391C88.0482 18.6516 88.5505 18.2642 89.1182 17.8767L91.1187 16.3899C91.5106 16.1331 91.8238 15.8582 92.0581 15.5654C92.2968 15.2725 92.4162 14.8895 92.4162 14.4165C92.4162 14.065 92.2608 13.7249 91.9499 13.396C91.6435 13.0671 91.2403 12.9026 90.7402 12.9026C90.3888 12.9026 90.0779 12.9927 89.8076 13.1729C89.5417 13.3487 89.3322 13.5739 89.179 13.8488C89.0304 14.1191 88.956 14.3984 88.956 14.6868C88.956 15.0112 89.0439 15.3401 89.2196 15.6735C89.3998 16.0024 89.6273 16.3403 89.9022 16.6872C90.1815 17.0297 90.4699 17.3811 90.7672 17.7415L97.12 25.5H95.2006L89.9562 19.1743C89.4696 18.5886 89.0281 18.0569 88.6316 17.5793C88.2351 17.1017 87.9197 16.6309 87.6855 16.1668C87.4512 15.7028 87.334 15.2004 87.334 14.6598C87.334 14.038 87.4714 13.4928 87.7463 13.0243C88.0256 12.5512 88.4154 12.184 88.9155 11.9227C89.4201 11.6568 90.0103 11.5239 90.6861 11.5239C91.38 11.5239 91.977 11.6591 92.4771 11.9294C92.9772 12.1952 93.3624 12.5489 93.6327 12.9905C93.9031 13.4275 94.0382 13.9028 94.0382 14.4165C94.0382 15.0788 93.8738 15.6532 93.5449 16.1398C93.216 16.6264 92.7677 17.0792 92.2 17.4982L89.4426 19.5527C88.8208 20.0123 88.3996 20.4583 88.1788 20.8909C87.958 21.3234 87.8477 21.6343 87.8477 21.8235C87.8477 22.256 87.9603 22.6593 88.1856 23.0332C88.4108 23.4072 88.7285 23.7091 89.1385 23.9388C89.5485 24.1686 90.0283 24.2835 90.578 24.2835C91.1006 24.2835 91.6098 24.1731 92.1054 23.9524C92.601 23.7271 93.0493 23.4027 93.4503 22.9792C93.8557 22.5557 94.1756 22.0465 94.4099 21.4518C94.6487 20.8571 94.7681 20.188 94.7681 19.4446H96.309C96.309 20.3637 96.2031 21.1139 95.9914 21.6951C95.7796 22.2763 95.5408 22.7314 95.275 23.0603C95.0092 23.3892 94.7951 23.6347 94.6329 23.7969C94.5789 23.8645 94.5293 23.9321 94.4843 23.9997C94.4392 24.0672 94.3896 24.1348 94.3356 24.2024C93.8895 24.7025 93.3264 25.0765 92.646 25.3243C91.9657 25.5676 91.2944 25.6892 90.6321 25.6892ZM104.454 25.5V11.6591H109.131C110.212 11.6591 111.1 11.8438 111.794 12.2133C112.488 12.5782 113.001 13.0806 113.335 13.7204C113.668 14.3601 113.835 15.0878 113.835 15.9033C113.835 16.7188 113.668 17.4419 113.335 18.0727C113.001 18.7034 112.49 19.1991 111.801 19.5595C111.111 19.9154 110.23 20.0934 109.158 20.0934H105.374V18.5795H109.104C109.843 18.5795 110.438 18.4714 110.888 18.2551C111.343 18.0389 111.672 17.7325 111.875 17.336C112.082 16.935 112.186 16.4575 112.186 15.9033C112.186 15.3491 112.082 14.8648 111.875 14.4503C111.668 14.0357 111.337 13.7159 110.881 13.4906C110.426 13.2608 109.825 13.1459 109.077 13.1459H106.13V25.5H104.454ZM110.969 19.2824L114.376 25.5H112.429L109.077 19.2824H110.969ZM120.652 25.7163C119.652 25.7163 118.789 25.4955 118.064 25.054C117.343 24.6079 116.787 23.9862 116.395 23.1887C116.007 22.3867 115.813 21.4541 115.813 20.3908C115.813 19.3275 116.007 18.3903 116.395 17.5793C116.787 16.7638 117.332 16.1286 118.03 15.6735C118.733 15.2139 119.553 14.9842 120.49 14.9842C121.031 14.9842 121.565 15.0743 122.092 15.2545C122.619 15.4347 123.099 15.7276 123.531 16.1331C123.964 16.534 124.308 17.0657 124.565 17.728C124.822 18.3903 124.95 19.2058 124.95 20.1745V20.8503H116.949V19.4716H123.329C123.329 18.8859 123.211 18.3633 122.977 17.9037C122.747 17.4442 122.418 17.0815 121.99 16.8156C121.567 16.5498 121.067 16.4169 120.49 16.4169C119.855 16.4169 119.305 16.5746 118.841 16.89C118.381 17.2009 118.028 17.6064 117.78 18.1065C117.532 18.6066 117.408 19.1427 117.408 19.7149V20.6341C117.408 21.418 117.543 22.0826 117.814 22.6277C118.089 23.1684 118.469 23.5807 118.956 23.8645C119.443 24.1438 120.008 24.2835 120.652 24.2835C121.071 24.2835 121.45 24.2249 121.788 24.1078C122.13 23.9862 122.425 23.8059 122.673 23.5671C122.921 23.3238 123.112 23.022 123.247 22.6615L124.788 23.0941C124.626 23.6167 124.354 24.0763 123.971 24.4727C123.588 24.8647 123.114 25.1711 122.551 25.3919C121.988 25.6081 121.355 25.7163 120.652 25.7163ZM128.972 11.6591V25.5H127.377V11.6591H128.972ZM131.893 25.5V15.1193H133.488V25.5H131.893ZM132.704 13.3892C132.393 13.3892 132.125 13.2833 131.9 13.0716C131.679 12.8598 131.569 12.6052 131.569 12.3079C131.569 12.0105 131.679 11.756 131.9 11.5442C132.125 11.3324 132.393 11.2266 132.704 11.2266C133.015 11.2266 133.281 11.3324 133.501 11.5442C133.727 11.756 133.839 12.0105 133.839 12.3079C133.839 12.6052 133.727 12.8598 133.501 13.0716C133.281 13.2833 133.015 13.3892 132.704 13.3892ZM139.464 25.7433C138.806 25.7433 138.209 25.6194 137.673 25.3716C137.137 25.1193 136.711 24.7566 136.396 24.2835C136.08 23.8059 135.923 23.2292 135.923 22.5534C135.923 21.9587 136.04 21.4766 136.274 21.1071C136.508 20.7332 136.821 20.4403 137.213 20.2286C137.605 20.0168 138.038 19.8591 138.511 19.7555C138.989 19.6474 139.468 19.5617 139.95 19.4987C140.581 19.4176 141.093 19.3567 141.485 19.3162C141.881 19.2711 142.169 19.1968 142.35 19.0932C142.534 18.9895 142.627 18.8093 142.627 18.5525V18.4984C142.627 17.8316 142.444 17.3135 142.079 16.944C141.719 16.5746 141.171 16.3899 140.437 16.3899C139.676 16.3899 139.079 16.5566 138.646 16.89C138.214 17.2234 137.909 17.5793 137.734 17.9578L136.22 17.4171C136.49 16.7864 136.851 16.2953 137.301 15.9438C137.756 15.5879 138.252 15.3401 138.788 15.2004C139.329 15.0562 139.86 14.9842 140.383 14.9842C140.716 14.9842 141.099 15.0247 141.532 15.1058C141.969 15.1824 142.39 15.3423 142.796 15.5856C143.206 15.8289 143.546 16.1961 143.816 16.6872C144.086 17.1783 144.222 17.8361 144.222 18.6606V25.5H142.627V24.0943H142.546C142.437 24.3196 142.257 24.5606 142.005 24.8174C141.753 25.0742 141.417 25.2927 140.998 25.473C140.579 25.6532 140.068 25.7433 139.464 25.7433ZM139.707 24.3105C140.338 24.3105 140.87 24.1866 141.302 23.9388C141.739 23.691 142.068 23.3711 142.289 22.9792C142.514 22.5872 142.627 22.1749 142.627 21.7424V20.2826C142.559 20.3637 142.41 20.4381 142.181 20.5056C141.955 20.5687 141.694 20.625 141.397 20.6746C141.104 20.7197 140.818 20.7602 140.538 20.7963C140.264 20.8278 140.041 20.8548 139.869 20.8774C139.455 20.9314 139.067 21.0193 138.707 21.1409C138.351 21.2581 138.063 21.436 137.842 21.6748C137.626 21.9091 137.517 22.229 137.517 22.6345C137.517 23.1887 137.722 23.6077 138.132 23.8915C138.547 24.1709 139.072 24.3105 139.707 24.3105ZM147.349 25.5V11.6591H148.944V16.7683H149.079C149.196 16.5881 149.358 16.3583 149.566 16.079C149.778 15.7951 150.079 15.5428 150.471 15.3221C150.868 15.0968 151.404 14.9842 152.08 14.9842C152.954 14.9842 153.724 15.2027 154.391 15.6397C155.058 16.0767 155.578 16.6962 155.952 17.4982C156.326 18.3002 156.513 19.2464 156.513 20.3367C156.513 21.436 156.326 22.3889 155.952 23.1954C155.578 23.9974 155.06 24.6192 154.398 25.0607C153.736 25.4977 152.972 25.7163 152.107 25.7163C151.44 25.7163 150.906 25.6059 150.505 25.3851C150.104 25.1598 149.796 24.9053 149.579 24.6214C149.363 24.3331 149.196 24.0943 149.079 23.9051H148.89V25.5H147.349ZM148.917 20.3097C148.917 21.0936 149.032 21.7852 149.262 22.3844C149.491 22.9792 149.827 23.4455 150.269 23.7834C150.71 24.1168 151.251 24.2835 151.891 24.2835C152.557 24.2835 153.114 24.1078 153.56 23.7564C154.01 23.4004 154.348 22.9229 154.574 22.3236C154.803 21.7199 154.918 21.0486 154.918 20.3097C154.918 19.5798 154.806 18.922 154.58 18.3362C154.36 17.746 154.024 17.2797 153.573 16.9373C153.127 16.5904 152.566 16.4169 151.891 16.4169C151.242 16.4169 150.697 16.5814 150.255 16.9103C149.814 17.2347 149.48 17.6897 149.255 18.2754C149.03 18.8566 148.917 19.5347 148.917 20.3097ZM160.548 11.6591V25.5H158.953V11.6591H160.548ZM167.821 25.7163C166.821 25.7163 165.958 25.4955 165.233 25.054C164.512 24.6079 163.956 23.9862 163.564 23.1887C163.176 22.3867 162.983 21.4541 162.983 20.3908C162.983 19.3275 163.176 18.3903 163.564 17.5793C163.956 16.7638 164.501 16.1286 165.199 15.6735C165.902 15.2139 166.722 14.9842 167.659 14.9842C168.2 14.9842 168.734 15.0743 169.261 15.2545C169.788 15.4347 170.268 15.7276 170.701 16.1331C171.133 16.534 171.478 17.0657 171.735 17.728C171.991 18.3903 172.12 19.2058 172.12 20.1745V20.8503H164.118V19.4716H170.498C170.498 18.8859 170.381 18.3633 170.146 17.9037C169.917 17.4442 169.588 17.0815 169.16 16.8156C168.736 16.5498 168.236 16.4169 167.659 16.4169C167.024 16.4169 166.474 16.5746 166.01 16.89C165.551 17.2009 165.197 17.6064 164.949 18.1065C164.701 18.6066 164.578 19.1427 164.578 19.7149V20.6341C164.578 21.418 164.713 22.0826 164.983 22.6277C165.258 23.1684 165.639 23.5807 166.125 23.8645C166.612 24.1438 167.177 24.2835 167.821 24.2835C168.24 24.2835 168.619 24.2249 168.957 24.1078C169.299 23.9862 169.594 23.8059 169.842 23.5671C170.09 23.3238 170.281 23.022 170.417 22.6615L171.958 23.0941C171.795 23.6167 171.523 24.0763 171.14 24.4727C170.757 24.8647 170.284 25.1711 169.721 25.3919C169.157 25.6081 168.524 25.7163 167.821 25.7163ZM184.386 25.5H180.115V11.6591H184.575C185.918 11.6591 187.067 11.9362 188.022 12.4904C188.977 13.04 189.709 13.8307 190.218 14.8625C190.727 15.8898 190.982 17.1198 190.982 18.5525C190.982 19.9943 190.725 21.2355 190.212 22.2763C189.698 23.3126 188.95 24.1101 187.968 24.6687C186.986 25.2229 185.792 25.5 184.386 25.5ZM181.791 24.0132H184.278C185.422 24.0132 186.371 23.7924 187.123 23.3509C187.875 22.9093 188.436 22.2808 188.806 21.4653C189.175 20.6498 189.36 19.6789 189.36 18.5525C189.36 17.4351 189.178 16.4732 188.813 15.6667C188.448 14.8557 187.903 14.234 187.177 13.8015C186.452 13.3644 185.548 13.1459 184.467 13.1459H181.791V24.0132ZM197.794 25.7163C196.857 25.7163 196.035 25.4932 195.328 25.0472C194.625 24.6012 194.075 23.9771 193.679 23.1752C193.287 22.3732 193.091 21.436 193.091 20.3637C193.091 19.2824 193.287 18.3385 193.679 17.532C194.075 16.7255 194.625 16.0993 195.328 15.6532C196.035 15.2072 196.857 14.9842 197.794 14.9842C198.731 14.9842 199.551 15.2072 200.254 15.6532C200.962 16.0993 201.511 16.7255 201.903 17.532C202.3 18.3385 202.498 19.2824 202.498 20.3637C202.498 21.436 202.3 22.3732 201.903 23.1752C201.511 23.9771 200.962 24.6012 200.254 25.0472C199.551 25.4932 198.731 25.7163 197.794 25.7163ZM197.794 24.2835C198.506 24.2835 199.092 24.101 199.551 23.7361C200.011 23.3711 200.351 22.8913 200.572 22.2966C200.793 21.7019 200.903 21.0576 200.903 20.3637C200.903 19.6699 200.793 19.0233 200.572 18.4241C200.351 17.8249 200.011 17.3405 199.551 16.9711C199.092 16.6016 198.506 16.4169 197.794 16.4169C197.082 16.4169 196.497 16.6016 196.037 16.9711C195.578 17.3405 195.237 17.8249 195.017 18.4241C194.796 19.0233 194.686 19.6699 194.686 20.3637C194.686 21.0576 194.796 21.7019 195.017 22.2966C195.237 22.8913 195.578 23.3711 196.037 23.7361C196.497 24.101 197.082 24.2835 197.794 24.2835ZM206.932 25.5L203.769 15.1193H205.445L207.688 23.067H207.797L210.013 15.1193H211.716L213.906 23.04H214.014L216.258 15.1193H217.934L214.771 25.5H213.203L210.932 17.5253H210.77L208.499 25.5H206.932ZM221.637 19.2554V25.5H220.043V15.1193H221.583V16.7413H221.719C221.962 16.2142 222.331 15.7906 222.827 15.4707C223.323 15.1464 223.962 14.9842 224.746 14.9842C225.449 14.9842 226.064 15.1283 226.591 15.4167C227.118 15.7005 227.528 16.1331 227.821 16.7143C228.114 17.291 228.261 18.0209 228.261 18.9039V25.5H226.666V19.0121C226.666 18.1966 226.454 17.5613 226.03 17.1062C225.607 16.6467 225.026 16.4169 224.287 16.4169C223.778 16.4169 223.323 16.5273 222.922 16.7481C222.525 16.9688 222.212 17.291 221.982 17.7145C221.752 18.138 221.637 18.6516 221.637 19.2554ZM232.77 11.6591V25.5H231.175V11.6591H232.77ZM239.908 25.7163C238.971 25.7163 238.149 25.4932 237.442 25.0472C236.739 24.6012 236.189 23.9771 235.793 23.1752C235.401 22.3732 235.205 21.436 235.205 20.3637C235.205 19.2824 235.401 18.3385 235.793 17.532C236.189 16.7255 236.739 16.0993 237.442 15.6532C238.149 15.2072 238.971 14.9842 239.908 14.9842C240.846 14.9842 241.666 15.2072 242.368 15.6532C243.076 16.0993 243.625 16.7255 244.017 17.532C244.414 18.3385 244.612 19.2824 244.612 20.3637C244.612 21.436 244.414 22.3732 244.017 23.1752C243.625 23.9771 243.076 24.6012 242.368 25.0472C241.666 25.4932 240.846 25.7163 239.908 25.7163ZM239.908 24.2835C240.62 24.2835 241.206 24.101 241.666 23.7361C242.125 23.3711 242.465 22.8913 242.686 22.2966C242.907 21.7019 243.017 21.0576 243.017 20.3637C243.017 19.6699 242.907 19.0233 242.686 18.4241C242.465 17.8249 242.125 17.3405 241.666 16.9711C241.206 16.6016 240.62 16.4169 239.908 16.4169C239.197 16.4169 238.611 16.6016 238.151 16.9711C237.692 17.3405 237.352 17.8249 237.131 18.4241C236.91 19.0233 236.8 19.6699 236.8 20.3637C236.8 21.0576 236.91 21.7019 237.131 22.2966C237.352 22.8913 237.692 23.3711 238.151 23.7361C238.611 24.101 239.197 24.2835 239.908 24.2835ZM250.102 25.7433C249.444 25.7433 248.847 25.6194 248.311 25.3716C247.774 25.1193 247.349 24.7566 247.033 24.2835C246.718 23.8059 246.56 23.2292 246.56 22.5534C246.56 21.9587 246.677 21.4766 246.912 21.1071C247.146 20.7332 247.459 20.4403 247.851 20.2286C248.243 20.0168 248.676 19.8591 249.149 19.7555C249.626 19.6474 250.106 19.5617 250.588 19.4987C251.219 19.4176 251.73 19.3567 252.122 19.3162C252.519 19.2711 252.807 19.1968 252.987 19.0932C253.172 18.9895 253.264 18.8093 253.264 18.5525V18.4984C253.264 17.8316 253.082 17.3135 252.717 16.944C252.357 16.5746 251.809 16.3899 251.075 16.3899C250.313 16.3899 249.716 16.5566 249.284 16.89C248.851 17.2234 248.547 17.5793 248.371 17.9578L246.858 17.4171C247.128 16.7864 247.488 16.2953 247.939 15.9438C248.394 15.5879 248.89 15.3401 249.426 15.2004C249.966 15.0562 250.498 14.9842 251.021 14.9842C251.354 14.9842 251.737 15.0247 252.17 15.1058C252.607 15.1824 253.028 15.3423 253.433 15.5856C253.843 15.8289 254.184 16.1961 254.454 16.6872C254.724 17.1783 254.859 17.8361 254.859 18.6606V25.5H253.264V24.0943H253.183C253.075 24.3196 252.895 24.5606 252.643 24.8174C252.39 25.0742 252.055 25.2927 251.636 25.473C251.217 25.6532 250.705 25.7433 250.102 25.7433ZM250.345 24.3105C250.976 24.3105 251.507 24.1866 251.94 23.9388C252.377 23.691 252.706 23.3711 252.927 22.9792C253.152 22.5872 253.264 22.1749 253.264 21.7424V20.2826C253.197 20.3637 253.048 20.4381 252.818 20.5056C252.593 20.5687 252.332 20.625 252.034 20.6746C251.742 20.7197 251.455 20.7602 251.176 20.7963C250.901 20.8278 250.678 20.8548 250.507 20.8774C250.093 20.9314 249.705 21.0193 249.345 21.1409C248.989 21.2581 248.7 21.436 248.48 21.6748C248.263 21.9091 248.155 22.229 248.155 22.6345C248.155 23.1887 248.36 23.6077 248.77 23.8915C249.185 24.1709 249.71 24.3105 250.345 24.3105ZM261.69 25.7163C260.825 25.7163 260.062 25.4977 259.399 25.0607C258.737 24.6192 258.219 23.9974 257.845 23.1954C257.471 22.3889 257.284 21.436 257.284 20.3367C257.284 19.2464 257.471 18.3002 257.845 17.4982C258.219 16.6962 258.739 16.0767 259.406 15.6397C260.073 15.2027 260.843 14.9842 261.717 14.9842C262.393 14.9842 262.927 15.0968 263.319 15.3221C263.716 15.5428 264.017 15.7951 264.225 16.079C264.436 16.3583 264.601 16.5881 264.718 16.7683H264.853V11.6591H266.448V25.5H264.907V23.9051H264.718C264.601 24.0943 264.434 24.3331 264.218 24.6214C264.002 24.9053 263.693 25.1598 263.292 25.3851C262.891 25.6059 262.357 25.7163 261.69 25.7163ZM261.907 24.2835C262.546 24.2835 263.087 24.1168 263.529 23.7834C263.97 23.4455 264.306 22.9792 264.536 22.3844C264.765 21.7852 264.88 21.0936 264.88 20.3097C264.88 19.5347 264.768 18.8566 264.542 18.2754C264.317 17.6897 263.984 17.2347 263.542 16.9103C263.101 16.5814 262.555 16.4169 261.907 16.4169C261.231 16.4169 260.668 16.5904 260.217 16.9373C259.771 17.2797 259.435 17.746 259.21 18.3362C258.989 18.922 258.879 19.5798 258.879 20.3097C258.879 21.0486 258.991 21.7199 259.217 22.3236C259.447 22.9229 259.784 23.4004 260.231 23.7564C260.681 24.1078 261.24 24.2835 261.907 24.2835ZM276.944 17.4442L275.511 17.8497C275.421 17.6109 275.288 17.3788 275.112 17.1536C274.941 16.9238 274.707 16.7345 274.409 16.5859C274.112 16.4372 273.731 16.3628 273.267 16.3628C272.632 16.3628 272.103 16.5093 271.679 16.8021C271.26 17.0905 271.05 17.4577 271.05 17.9037C271.05 18.3002 271.195 18.6133 271.483 18.8431C271.771 19.0729 272.222 19.2644 272.835 19.4176L274.376 19.796C275.304 20.0213 275.995 20.366 276.45 20.83C276.905 21.2896 277.133 21.8821 277.133 22.6075C277.133 23.2022 276.962 23.7338 276.619 24.2024C276.281 24.671 275.808 25.0404 275.2 25.3108C274.592 25.5811 273.884 25.7163 273.078 25.7163C272.019 25.7163 271.143 25.4865 270.449 25.0269C269.755 24.5674 269.316 23.896 269.131 23.013L270.645 22.6345C270.789 23.1932 271.062 23.6122 271.463 23.8915C271.868 24.1709 272.398 24.3105 273.051 24.3105C273.794 24.3105 274.385 24.1529 274.822 23.8375C275.263 23.5176 275.484 23.1346 275.484 22.6886C275.484 22.3281 275.358 22.0263 275.105 21.783C274.853 21.5352 274.466 21.3504 273.943 21.2288L272.213 20.8233C271.262 20.598 270.564 20.2488 270.118 19.7758C269.676 19.2982 269.456 18.7012 269.456 17.9848C269.456 17.3991 269.62 16.881 269.949 16.4304C270.282 15.9799 270.735 15.6262 271.307 15.3694C271.884 15.1126 272.537 14.9842 273.267 14.9842C274.294 14.9842 275.101 15.2094 275.687 15.66C276.277 16.1105 276.696 16.7053 276.944 17.4442Z" fill="#193CB8"/>
</svg>
