<svg width="70" height="70" viewBox="0 0 70 70" fill="none" xmlns="http://www.w3.org/2000/svg">
<rect width="70" height="70" rx="8.75" fill="#FB2C36"/>
<path d="M22.75 22.75C22.7498 22.1342 22.9121 21.5292 23.2205 20.9961C23.529 20.4631 23.9726 20.0209 24.5066 19.7141C25.0406 19.4073 25.646 19.2469 26.2619 19.249C26.8777 19.2511 27.4821 19.4156 28.014 19.726L49.0087 31.9725C49.5386 32.2799 49.9785 32.7211 50.2844 33.2518C50.5903 33.7825 50.7516 34.3842 50.7522 34.9967C50.7527 35.6093 50.5924 36.2113 50.2874 36.7425C49.9824 37.2738 49.5433 37.7156 49.014 38.024L28.014 50.274C27.4821 50.5844 26.8777 50.7489 26.2619 50.751C25.646 50.7531 25.0406 50.5927 24.5066 50.2859C23.9726 49.9791 23.529 49.5369 23.2205 49.0039C22.9121 48.4708 22.7498 47.8658 22.75 47.25V22.75Z" fill="white" stroke="white" stroke-width="1.75" stroke-linecap="round" stroke-linejoin="round"/>
</svg>
