<svg width="612" height="1212" viewBox="0 0 612 1212" fill="none" xmlns="http://www.w3.org/2000/svg">
<g filter="url(#filter0_dd_2_150)">
<rect x="6" y="4" width="600" height="1200" rx="8.75" fill="url(#paint0_linear_2_150)"/>
<rect x="7" y="5" width="598" height="1198" rx="7.75" stroke="#D1D5DC" stroke-width="2" stroke-dasharray="6 4"/>
<path d="M279.94 487.175H332.44V434.675H279.94V487.175Z" fill="#0A0A0A"/>
<path d="M160.435 576.5H157.722L165.568 555.134H168.238L176.084 576.5H173.371L166.986 558.514H166.819L160.435 576.5ZM161.436 568.154H172.37V570.449H161.436V568.154ZM185.129 576.834C183.793 576.834 182.614 576.497 181.592 575.822C180.57 575.14 179.77 574.18 179.193 572.942C178.615 571.698 178.327 570.227 178.327 568.53C178.327 566.846 178.615 565.386 179.193 564.148C179.77 562.91 180.573 561.954 181.602 561.279C182.632 560.604 183.821 560.267 185.17 560.267C186.214 560.267 187.038 560.441 187.643 560.789C188.255 561.129 188.721 561.519 189.041 561.957C189.368 562.388 189.622 562.743 189.802 563.021H190.011V555.134H192.473V576.5H190.095V574.038H189.802C189.622 574.33 189.364 574.699 189.03 575.144C188.697 575.582 188.22 575.975 187.601 576.323C186.982 576.663 186.158 576.834 185.129 576.834ZM185.463 574.622C186.45 574.622 187.285 574.365 187.966 573.85C188.648 573.328 189.166 572.609 189.521 571.691C189.875 570.766 190.053 569.698 190.053 568.488C190.053 567.292 189.879 566.245 189.531 565.348C189.183 564.443 188.669 563.741 187.987 563.24C187.306 562.732 186.464 562.479 185.463 562.479C184.419 562.479 183.55 562.746 182.854 563.282C182.166 563.811 181.648 564.53 181.3 565.441C180.959 566.346 180.789 567.361 180.789 568.488C180.789 569.628 180.963 570.665 181.31 571.597C181.665 572.522 182.187 573.259 182.875 573.808C183.571 574.351 184.433 574.622 185.463 574.622ZM210.428 560.476L204.502 576.5H201.998L196.072 560.476H198.743L203.167 573.245H203.333L207.757 560.476H210.428ZM219.822 576.834C218.278 576.834 216.946 576.493 215.827 575.811C214.714 575.123 213.855 574.163 213.25 572.932C212.652 571.694 212.352 570.254 212.352 568.613C212.352 566.972 212.652 565.525 213.25 564.273C213.855 563.014 214.696 562.033 215.774 561.331C216.859 560.622 218.125 560.267 219.572 560.267C220.406 560.267 221.231 560.406 222.044 560.684C222.858 560.962 223.599 561.414 224.266 562.04C224.934 562.659 225.466 563.48 225.863 564.503C226.259 565.525 226.457 566.784 226.457 568.279V569.322H214.105V567.194H223.953C223.953 566.29 223.773 565.483 223.411 564.774C223.056 564.064 222.549 563.504 221.888 563.094C221.234 562.684 220.462 562.479 219.572 562.479C218.591 562.479 217.743 562.722 217.026 563.209C216.317 563.689 215.771 564.315 215.388 565.087C215.006 565.859 214.815 566.686 214.815 567.57V568.989C214.815 570.199 215.023 571.225 215.44 572.066C215.865 572.901 216.452 573.537 217.204 573.975C217.955 574.407 218.828 574.622 219.822 574.622C220.469 574.622 221.053 574.532 221.575 574.351C222.103 574.163 222.559 573.885 222.942 573.516C223.324 573.141 223.62 572.675 223.828 572.118L226.207 572.786C225.957 573.593 225.536 574.302 224.945 574.914C224.353 575.519 223.623 575.992 222.754 576.333C221.884 576.667 220.907 576.834 219.822 576.834ZM230.203 576.5V560.476H232.581V562.896H232.748C233.04 562.103 233.569 561.46 234.334 560.966C235.099 560.472 235.961 560.225 236.921 560.225C237.102 560.225 237.328 560.229 237.599 560.236C237.871 560.243 238.076 560.253 238.215 560.267V562.771C238.131 562.75 237.94 562.719 237.641 562.677C237.349 562.628 237.039 562.604 236.713 562.604C235.934 562.604 235.238 562.767 234.626 563.094C234.021 563.414 233.541 563.859 233.186 564.43C232.839 564.993 232.665 565.636 232.665 566.36V576.5H230.203ZM249.106 560.476V562.562H240.802V560.476H249.106ZM243.222 556.636H245.685V571.91C245.685 572.605 245.785 573.127 245.987 573.475C246.196 573.815 246.46 574.045 246.78 574.163C247.107 574.274 247.451 574.33 247.813 574.33C248.084 574.33 248.307 574.316 248.48 574.288C248.654 574.254 248.793 574.226 248.898 574.205L249.399 576.417C249.232 576.479 248.999 576.542 248.7 576.604C248.4 576.674 248.021 576.709 247.562 576.709C246.867 576.709 246.185 576.559 245.518 576.26C244.857 575.961 244.307 575.505 243.869 574.893C243.438 574.281 243.222 573.509 243.222 572.577V556.636ZM252.81 576.5V560.476H255.272V576.5H252.81ZM254.062 557.805C253.582 557.805 253.168 557.641 252.82 557.314C252.48 556.988 252.309 556.595 252.309 556.136C252.309 555.677 252.48 555.284 252.82 554.957C253.168 554.63 253.582 554.466 254.062 554.466C254.542 554.466 254.952 554.63 255.293 554.957C255.641 555.284 255.815 555.677 255.815 556.136C255.815 556.595 255.641 556.988 255.293 557.314C254.952 557.641 254.542 557.805 254.062 557.805ZM271.132 564.064L268.92 564.69C268.781 564.322 268.576 563.964 268.305 563.616C268.041 563.261 267.679 562.969 267.22 562.739C266.761 562.51 266.173 562.395 265.457 562.395C264.476 562.395 263.659 562.621 263.005 563.073C262.358 563.518 262.035 564.085 262.035 564.774C262.035 565.386 262.258 565.869 262.703 566.224C263.148 566.579 263.843 566.874 264.789 567.111L267.168 567.695C268.601 568.043 269.668 568.575 270.371 569.291C271.073 570.001 271.424 570.915 271.424 572.035C271.424 572.953 271.16 573.774 270.631 574.497C270.11 575.22 269.38 575.791 268.441 576.208C267.502 576.625 266.41 576.834 265.165 576.834C263.53 576.834 262.178 576.479 261.106 575.77C260.035 575.06 259.357 574.024 259.072 572.661L261.409 572.077C261.632 572.939 262.052 573.586 262.671 574.017C263.297 574.448 264.115 574.664 265.123 574.664C266.271 574.664 267.182 574.42 267.856 573.934C268.538 573.44 268.879 572.849 268.879 572.16C268.879 571.604 268.684 571.138 268.295 570.762C267.905 570.38 267.307 570.094 266.5 569.907L263.829 569.281C262.362 568.933 261.284 568.394 260.595 567.664C259.914 566.926 259.573 566.005 259.573 564.899C259.573 563.995 259.827 563.195 260.334 562.499C260.849 561.804 261.548 561.258 262.431 560.862C263.322 560.465 264.33 560.267 265.457 560.267C267.043 560.267 268.288 560.615 269.192 561.31C270.103 562.006 270.75 562.924 271.132 564.064ZM281.849 576.834C280.305 576.834 278.973 576.493 277.853 575.811C276.741 575.123 275.882 574.163 275.277 572.932C274.678 571.694 274.379 570.254 274.379 568.613C274.379 566.972 274.678 565.525 275.277 564.273C275.882 563.014 276.723 562.033 277.801 561.331C278.886 560.622 280.152 560.267 281.599 560.267C282.433 560.267 283.257 560.406 284.071 560.684C284.885 560.962 285.626 561.414 286.293 562.04C286.961 562.659 287.493 563.48 287.89 564.503C288.286 565.525 288.484 566.784 288.484 568.279V569.322H276.132V567.194H285.98C285.98 566.29 285.8 565.483 285.438 564.774C285.083 564.064 284.575 563.504 283.915 563.094C283.261 562.684 282.489 562.479 281.599 562.479C280.618 562.479 279.769 562.722 279.053 563.209C278.344 563.689 277.798 564.315 277.415 565.087C277.033 565.859 276.841 566.686 276.841 567.57V568.989C276.841 570.199 277.05 571.225 277.467 572.066C277.892 572.901 278.479 573.537 279.23 573.975C279.982 574.407 280.854 574.622 281.849 574.622C282.496 574.622 283.08 574.532 283.602 574.351C284.13 574.163 284.586 573.885 284.968 573.516C285.351 573.141 285.646 572.675 285.855 572.118L288.234 572.786C287.983 573.593 287.563 574.302 286.971 574.914C286.38 575.519 285.65 575.992 284.781 576.333C283.911 576.667 282.934 576.834 281.849 576.834ZM292.229 576.5V560.476H294.608V562.979H294.817C295.151 562.124 295.69 561.46 296.434 560.987C297.178 560.507 298.072 560.267 299.115 560.267C300.172 560.267 301.052 560.507 301.754 560.987C302.464 561.46 303.017 562.124 303.413 562.979H303.58C303.99 562.152 304.606 561.494 305.427 561.008C306.247 560.514 307.231 560.267 308.379 560.267C309.812 560.267 310.984 560.716 311.895 561.613C312.806 562.503 313.262 563.89 313.262 565.775V576.5H310.799V565.775C310.799 564.593 310.476 563.748 309.829 563.24C309.182 562.732 308.421 562.479 307.544 562.479C306.418 562.479 305.545 562.819 304.926 563.501C304.307 564.176 303.997 565.031 303.997 566.067V576.5H301.494V565.525C301.494 564.614 301.198 563.88 300.607 563.324C300.016 562.76 299.254 562.479 298.322 562.479C297.682 562.479 297.084 562.649 296.528 562.99C295.978 563.331 295.533 563.804 295.192 564.409C294.858 565.007 294.692 565.699 294.692 566.485V576.5H292.229ZM324.482 576.834C322.938 576.834 321.606 576.493 320.486 575.811C319.373 575.123 318.514 574.163 317.909 572.932C317.311 571.694 317.012 570.254 317.012 568.613C317.012 566.972 317.311 565.525 317.909 564.273C318.514 563.014 319.356 562.033 320.434 561.331C321.519 560.622 322.785 560.267 324.231 560.267C325.066 560.267 325.89 560.406 326.704 560.684C327.518 560.962 328.258 561.414 328.926 562.04C329.594 562.659 330.126 563.48 330.522 564.503C330.919 565.525 331.117 566.784 331.117 568.279V569.322H318.765V567.194H328.613C328.613 566.29 328.432 565.483 328.071 564.774C327.716 564.064 327.208 563.504 326.547 563.094C325.894 562.684 325.122 562.479 324.231 562.479C323.251 562.479 322.402 562.722 321.686 563.209C320.976 563.689 320.43 564.315 320.048 565.087C319.665 565.859 319.474 566.686 319.474 567.57V568.989C319.474 570.199 319.683 571.225 320.1 572.066C320.524 572.901 321.112 573.537 321.863 573.975C322.614 574.407 323.487 574.622 324.482 574.622C325.129 574.622 325.713 574.532 326.234 574.351C326.763 574.163 327.219 573.885 327.601 573.516C327.984 573.141 328.279 572.675 328.488 572.118L330.866 572.786C330.616 573.593 330.195 574.302 329.604 574.914C329.013 575.519 328.283 575.992 327.413 576.333C326.544 576.667 325.567 576.834 324.482 576.834ZM337.324 566.86V576.5H334.862V560.476H337.241V562.979H337.449C337.825 562.166 338.395 561.512 339.16 561.018C339.925 560.517 340.913 560.267 342.123 560.267C343.208 560.267 344.158 560.489 344.971 560.935C345.785 561.373 346.418 562.04 346.87 562.938C347.322 563.828 347.548 564.955 347.548 566.318V576.5H345.086V566.485C345.086 565.226 344.759 564.245 344.105 563.543C343.452 562.833 342.554 562.479 341.414 562.479C340.628 562.479 339.925 562.649 339.306 562.99C338.694 563.331 338.211 563.828 337.856 564.482C337.502 565.135 337.324 565.928 337.324 566.86ZM359.016 560.476V562.562H350.712V560.476H359.016ZM353.132 556.636H355.594V571.91C355.594 572.605 355.695 573.127 355.897 573.475C356.105 573.815 356.37 574.045 356.69 574.163C357.017 574.274 357.361 574.33 357.723 574.33C357.994 574.33 358.216 574.316 358.39 574.288C358.564 574.254 358.703 574.226 358.808 574.205L359.308 576.417C359.141 576.479 358.908 576.542 358.609 576.604C358.31 576.674 357.931 576.709 357.472 576.709C356.777 576.709 356.095 576.559 355.427 576.26C354.767 575.961 354.217 575.505 353.779 574.893C353.348 574.281 353.132 573.509 353.132 572.577V556.636ZM383.001 560.476C382.875 559.418 382.368 558.598 381.478 558.013C380.587 557.429 379.495 557.137 378.202 557.137C377.256 557.137 376.428 557.29 375.719 557.596C375.016 557.902 374.467 558.323 374.07 558.859C373.681 559.394 373.486 560.003 373.486 560.684C373.486 561.255 373.622 561.745 373.893 562.155C374.171 562.559 374.526 562.896 374.957 563.167C375.388 563.431 375.84 563.651 376.313 563.824C376.786 563.991 377.221 564.127 377.617 564.231L379.787 564.816C380.344 564.962 380.963 565.163 381.644 565.421C382.333 565.678 382.99 566.029 383.616 566.474C384.249 566.912 384.771 567.476 385.181 568.164C385.591 568.853 385.797 569.698 385.797 570.699C385.797 571.854 385.494 572.897 384.889 573.829C384.291 574.761 383.414 575.502 382.26 576.051C381.112 576.601 379.718 576.876 378.076 576.876C376.546 576.876 375.221 576.629 374.102 576.135C372.989 575.641 372.113 574.953 371.473 574.069C370.84 573.186 370.482 572.16 370.398 570.992H373.069C373.138 571.798 373.41 572.466 373.883 572.995C374.362 573.516 374.968 573.906 375.698 574.163C376.435 574.413 377.228 574.539 378.076 574.539C379.064 574.539 379.951 574.379 380.737 574.059C381.523 573.732 382.145 573.28 382.604 572.703C383.063 572.118 383.293 571.437 383.293 570.658C383.293 569.948 383.095 569.371 382.698 568.926C382.302 568.481 381.78 568.119 381.133 567.841C380.486 567.563 379.787 567.319 379.036 567.111L376.407 566.36C374.738 565.88 373.417 565.195 372.443 564.304C371.469 563.414 370.982 562.249 370.982 560.809C370.982 559.613 371.306 558.57 371.953 557.68C372.606 556.782 373.483 556.087 374.582 555.593C375.687 555.092 376.922 554.842 378.285 554.842C379.662 554.842 380.886 555.089 381.957 555.583C383.028 556.07 383.877 556.737 384.503 557.586C385.136 558.434 385.47 559.398 385.504 560.476H383.001ZM389.717 582.509V560.476H392.095V563.021H392.387C392.568 562.743 392.819 562.388 393.139 561.957C393.465 561.519 393.931 561.129 394.536 560.789C395.149 560.441 395.976 560.267 397.019 560.267C398.369 560.267 399.558 560.604 400.587 561.279C401.617 561.954 402.42 562.91 402.997 564.148C403.575 565.386 403.863 566.846 403.863 568.53C403.863 570.227 403.575 571.698 402.997 572.942C402.42 574.18 401.62 575.14 400.598 575.822C399.575 576.497 398.397 576.834 397.061 576.834C396.032 576.834 395.208 576.663 394.589 576.323C393.97 575.975 393.493 575.582 393.159 575.144C392.826 574.699 392.568 574.33 392.387 574.038H392.179V582.509H389.717ZM392.137 568.488C392.137 569.698 392.314 570.766 392.669 571.691C393.024 572.609 393.542 573.328 394.223 573.85C394.905 574.365 395.74 574.622 396.727 574.622C397.757 574.622 398.616 574.351 399.304 573.808C400 573.259 400.521 572.522 400.869 571.597C401.224 570.665 401.401 569.628 401.401 568.488C401.401 567.361 401.227 566.346 400.879 565.441C400.539 564.53 400.021 563.811 399.325 563.282C398.636 562.746 397.771 562.479 396.727 562.479C395.726 562.479 394.884 562.732 394.203 563.24C393.521 563.741 393.006 564.443 392.659 565.348C392.311 566.245 392.137 567.292 392.137 568.488ZM412.334 576.876C411.319 576.876 410.397 576.684 409.57 576.302C408.742 575.912 408.085 575.352 407.598 574.622C407.111 573.885 406.868 572.995 406.868 571.951C406.868 571.033 407.049 570.289 407.41 569.719C407.772 569.142 408.255 568.689 408.86 568.363C409.465 568.036 410.133 567.792 410.863 567.632C411.601 567.465 412.341 567.333 413.086 567.236C414.059 567.111 414.849 567.017 415.454 566.954C416.066 566.885 416.511 566.77 416.789 566.61C417.074 566.45 417.217 566.172 417.217 565.775V565.692C417.217 564.663 416.935 563.863 416.372 563.292C415.815 562.722 414.97 562.437 413.837 562.437C412.661 562.437 411.74 562.694 411.072 563.209C410.404 563.724 409.935 564.273 409.664 564.857L407.327 564.023C407.744 563.049 408.301 562.291 408.996 561.748C409.698 561.199 410.464 560.816 411.291 560.601C412.126 560.378 412.946 560.267 413.753 560.267C414.268 560.267 414.859 560.33 415.527 560.455C416.201 560.573 416.852 560.82 417.478 561.195C418.111 561.571 418.636 562.138 419.053 562.896C419.47 563.654 419.679 564.669 419.679 565.942V576.5H417.217V574.33H417.092C416.925 574.678 416.647 575.05 416.257 575.446C415.868 575.843 415.349 576.18 414.703 576.458C414.056 576.736 413.266 576.876 412.334 576.876ZM412.71 574.664C413.684 574.664 414.504 574.473 415.172 574.09C415.847 573.708 416.354 573.214 416.695 572.609C417.043 572.004 417.217 571.367 417.217 570.699V568.446C417.113 568.571 416.883 568.686 416.528 568.79C416.181 568.888 415.777 568.975 415.318 569.051C414.866 569.121 414.424 569.183 413.993 569.239C413.569 569.288 413.225 569.329 412.96 569.364C412.321 569.448 411.722 569.583 411.166 569.771C410.617 569.952 410.171 570.227 409.831 570.595C409.497 570.957 409.33 571.451 409.33 572.077C409.33 572.932 409.646 573.579 410.279 574.017C410.919 574.448 411.729 574.664 412.71 574.664ZM430.683 576.834C429.18 576.834 427.887 576.479 426.802 575.77C425.717 575.06 424.882 574.083 424.298 572.838C423.714 571.593 423.422 570.171 423.422 568.571C423.422 566.944 423.721 565.508 424.319 564.263C424.924 563.011 425.766 562.033 426.844 561.331C427.929 560.622 429.194 560.267 430.641 560.267C431.768 560.267 432.783 560.476 433.687 560.893C434.591 561.31 435.332 561.894 435.909 562.646C436.487 563.397 436.845 564.273 436.984 565.275H434.522C434.334 564.544 433.917 563.897 433.27 563.334C432.63 562.764 431.768 562.479 430.683 562.479C429.723 562.479 428.881 562.729 428.158 563.23C427.442 563.724 426.882 564.423 426.478 565.327C426.082 566.224 425.884 567.278 425.884 568.488C425.884 569.726 426.078 570.804 426.468 571.722C426.864 572.64 427.421 573.353 428.137 573.861C428.861 574.368 429.709 574.622 430.683 574.622C431.323 574.622 431.903 574.511 432.425 574.288C432.947 574.066 433.388 573.746 433.75 573.328C434.112 572.911 434.369 572.41 434.522 571.826H436.984C436.845 572.772 436.501 573.624 435.951 574.382C435.409 575.133 434.689 575.731 433.792 576.177C432.901 576.615 431.865 576.834 430.683 576.834ZM447.302 576.834C445.758 576.834 444.426 576.493 443.306 575.811C442.193 575.123 441.334 574.163 440.729 572.932C440.131 571.694 439.832 570.254 439.832 568.613C439.832 566.972 440.131 565.525 440.729 564.273C441.334 563.014 442.176 562.033 443.254 561.331C444.339 560.622 445.605 560.267 447.051 560.267C447.886 560.267 448.71 560.406 449.524 560.684C450.338 560.962 451.078 561.414 451.746 562.04C452.414 562.659 452.946 563.48 453.342 564.503C453.739 565.525 453.937 566.784 453.937 568.279V569.322H441.585V567.194H451.433C451.433 566.29 451.252 565.483 450.891 564.774C450.536 564.064 450.028 563.504 449.367 563.094C448.714 562.684 447.942 562.479 447.051 562.479C446.071 562.479 445.222 562.722 444.506 563.209C443.796 563.689 443.25 564.315 442.868 565.087C442.485 565.859 442.294 566.686 442.294 567.57V568.989C442.294 570.199 442.503 571.225 442.92 572.066C443.344 572.901 443.932 573.537 444.683 573.975C445.434 574.407 446.307 574.622 447.302 574.622C447.949 574.622 448.533 574.532 449.054 574.351C449.583 574.163 450.039 573.885 450.421 573.516C450.804 573.141 451.099 572.675 451.308 572.118L453.687 572.786C453.436 573.593 453.015 574.302 452.424 574.914C451.833 575.519 451.103 575.992 450.233 576.333C449.364 576.667 448.387 576.834 447.302 576.834Z" fill="#4A5565"/>
<path d="M224.509 629.722C223.464 629.722 222.533 629.542 221.715 629.183C220.902 628.824 220.255 628.326 219.775 627.687C219.3 627.043 219.041 626.296 218.999 625.447H220.994C221.036 625.969 221.216 626.42 221.533 626.8C221.849 627.175 222.264 627.465 222.776 627.671C223.287 627.877 223.855 627.98 224.478 627.98C225.174 627.98 225.792 627.859 226.33 627.616C226.869 627.373 227.291 627.035 227.597 626.602C227.903 626.17 228.056 625.668 228.056 625.098C228.056 624.502 227.908 623.977 227.613 623.523C227.317 623.064 226.884 622.705 226.314 622.446C225.744 622.188 225.048 622.058 224.224 622.058H222.926V620.316H224.224C224.868 620.316 225.433 620.2 225.919 619.968C226.409 619.736 226.792 619.409 227.066 618.986C227.346 618.564 227.486 618.068 227.486 617.498C227.486 616.949 227.365 616.472 227.122 616.065C226.879 615.659 226.536 615.342 226.093 615.115C225.655 614.888 225.137 614.775 224.541 614.775C223.982 614.775 223.454 614.878 222.958 615.083C222.467 615.284 222.066 615.577 221.754 615.962C221.443 616.342 221.274 616.801 221.248 617.34H219.348C219.379 616.49 219.635 615.746 220.115 615.107C220.596 614.463 221.224 613.962 222 613.603C222.781 613.244 223.638 613.065 224.573 613.065C225.575 613.065 226.436 613.268 227.154 613.674C227.871 614.075 228.423 614.606 228.808 615.266C229.193 615.925 229.386 616.638 229.386 617.403C229.386 618.316 229.146 619.095 228.666 619.739C228.191 620.382 227.544 620.828 226.726 621.077V621.203C227.75 621.372 228.55 621.807 229.125 622.509C229.7 623.206 229.988 624.069 229.988 625.098C229.988 625.98 229.748 626.771 229.267 627.473C228.792 628.17 228.143 628.719 227.32 629.12C226.496 629.521 225.56 629.722 224.509 629.722ZM238.514 629.722C237.321 629.722 236.305 629.397 235.466 628.748C234.627 628.093 233.986 627.146 233.542 625.906C233.099 624.66 232.877 623.156 232.877 621.393C232.877 619.641 233.099 618.145 233.542 616.904C233.991 615.659 234.635 614.709 235.474 614.054C236.319 613.395 237.332 613.065 238.514 613.065C239.696 613.065 240.707 613.395 241.546 614.054C242.391 614.709 243.035 615.659 243.478 616.904C243.927 618.145 244.151 619.641 244.151 621.393C244.151 623.156 243.929 624.66 243.486 625.906C243.043 627.146 242.401 628.093 241.562 628.748C240.723 629.397 239.707 629.722 238.514 629.722ZM238.514 627.98C239.696 627.98 240.615 627.41 241.269 626.27C241.924 625.13 242.251 623.504 242.251 621.393C242.251 619.989 242.1 618.794 241.8 617.807C241.504 616.82 241.077 616.068 240.517 615.551C239.963 615.033 239.295 614.775 238.514 614.775C237.342 614.775 236.427 615.353 235.767 616.509C235.107 617.659 234.777 619.287 234.777 621.393C234.777 622.797 234.925 623.99 235.221 624.972C235.516 625.953 235.941 626.7 236.495 627.212C237.055 627.724 237.728 627.98 238.514 627.98ZM252.448 629.722C251.255 629.722 250.239 629.397 249.4 628.748C248.561 628.093 247.919 627.146 247.476 625.906C247.033 624.66 246.811 623.156 246.811 621.393C246.811 619.641 247.033 618.145 247.476 616.904C247.925 615.659 248.569 614.709 249.408 614.054C250.252 613.395 251.266 613.065 252.448 613.065C253.63 613.065 254.641 613.395 255.48 614.054C256.324 614.709 256.968 615.659 257.412 616.904C257.86 618.145 258.085 619.641 258.085 621.393C258.085 623.156 257.863 624.66 257.42 625.906C256.976 627.146 256.335 628.093 255.496 628.748C254.657 629.397 253.641 629.722 252.448 629.722ZM252.448 627.98C253.63 627.98 254.548 627.41 255.203 626.27C255.857 625.13 256.185 623.504 256.185 621.393C256.185 619.989 256.034 618.794 255.733 617.807C255.438 616.82 255.01 616.068 254.451 615.551C253.897 615.033 253.229 614.775 252.448 614.775C251.276 614.775 250.36 615.353 249.701 616.509C249.041 617.659 248.711 619.287 248.711 621.393C248.711 622.797 248.859 623.99 249.154 624.972C249.45 625.953 249.875 626.7 250.429 627.212C250.988 627.724 251.661 627.98 252.448 627.98ZM276.895 626.587L267.965 617.656L269.168 616.453L278.098 625.383L276.895 626.587ZM269.168 626.587L267.965 625.383L276.895 616.453L278.098 617.656L269.168 626.587ZM293.712 629.722C293.047 629.711 292.382 629.584 291.717 629.342C291.052 629.099 290.445 628.69 289.896 628.115C289.347 627.534 288.907 626.75 288.574 625.763C288.242 624.771 288.075 623.525 288.075 622.027C288.075 620.591 288.21 619.319 288.479 618.211C288.748 617.097 289.139 616.16 289.651 615.4C290.163 614.635 290.78 614.054 291.503 613.658C292.232 613.263 293.052 613.065 293.966 613.065C294.873 613.065 295.681 613.247 296.388 613.611C297.101 613.97 297.681 614.471 298.13 615.115C298.578 615.759 298.869 616.501 299.001 617.34H297.069C296.889 616.611 296.541 616.007 296.024 615.527C295.507 615.047 294.821 614.806 293.966 614.806C292.709 614.806 291.72 615.353 290.997 616.445C290.279 617.538 289.917 619.071 289.912 621.045H290.039C290.334 620.596 290.685 620.214 291.092 619.897C291.503 619.575 291.957 619.327 292.453 619.153C292.95 618.979 293.475 618.891 294.029 618.891C294.958 618.891 295.807 619.124 296.578 619.588C297.349 620.047 297.966 620.683 298.431 621.496C298.895 622.304 299.127 623.23 299.127 624.275C299.127 625.278 298.903 626.196 298.454 627.03C298.006 627.859 297.375 628.518 296.562 629.009C295.755 629.495 294.805 629.732 293.712 629.722ZM293.712 627.98C294.377 627.98 294.974 627.814 295.501 627.481C296.034 627.149 296.454 626.703 296.76 626.143C297.072 625.584 297.227 624.961 297.227 624.275C297.227 623.605 297.077 622.995 296.776 622.446C296.48 621.892 296.071 621.451 295.549 621.124C295.032 620.797 294.441 620.633 293.776 620.633C293.274 620.633 292.807 620.733 292.374 620.934C291.941 621.129 291.561 621.398 291.234 621.742C290.912 622.085 290.659 622.478 290.474 622.921C290.289 623.359 290.197 623.821 290.197 624.307C290.197 624.95 290.348 625.552 290.648 626.112C290.954 626.671 291.371 627.122 291.899 627.465C292.432 627.808 293.037 627.98 293.712 627.98ZM307.529 629.722C306.336 629.722 305.32 629.397 304.481 628.748C303.642 628.093 303.001 627.146 302.557 625.906C302.114 624.66 301.892 623.156 301.892 621.393C301.892 619.641 302.114 618.145 302.557 616.904C303.006 615.659 303.65 614.709 304.489 614.054C305.333 613.395 306.347 613.065 307.529 613.065C308.711 613.065 309.722 613.395 310.561 614.054C311.406 614.709 312.05 615.659 312.493 616.904C312.941 618.145 313.166 619.641 313.166 621.393C313.166 623.156 312.944 624.66 312.501 625.906C312.057 627.146 311.416 628.093 310.577 628.748C309.738 629.397 308.722 629.722 307.529 629.722ZM307.529 627.98C308.711 627.98 309.63 627.41 310.284 626.27C310.939 625.13 311.266 623.504 311.266 621.393C311.266 619.989 311.115 618.794 310.814 617.807C310.519 616.82 310.091 616.068 309.532 615.551C308.978 615.033 308.31 614.775 307.529 614.775C306.357 614.775 305.442 615.353 304.782 616.509C304.122 617.659 303.792 619.287 303.792 621.393C303.792 622.797 303.94 623.99 304.236 624.972C304.531 625.953 304.956 626.7 305.51 627.212C306.07 627.724 306.743 627.98 307.529 627.98ZM321.463 629.722C320.27 629.722 319.254 629.397 318.415 628.748C317.575 628.093 316.934 627.146 316.491 625.906C316.047 624.66 315.826 623.156 315.826 621.393C315.826 619.641 316.047 618.145 316.491 616.904C316.939 615.659 317.583 614.709 318.423 614.054C319.267 613.395 320.28 613.065 321.463 613.065C322.645 613.065 323.656 613.395 324.495 614.054C325.339 614.709 325.983 615.659 326.426 616.904C326.875 618.145 327.099 619.641 327.099 621.393C327.099 623.156 326.878 624.66 326.434 625.906C325.991 627.146 325.35 628.093 324.511 628.748C323.671 629.397 322.655 629.722 321.463 629.722ZM321.463 627.98C322.645 627.98 323.563 627.41 324.218 626.27C324.872 625.13 325.199 623.504 325.199 621.393C325.199 619.989 325.049 618.794 324.748 617.807C324.453 616.82 324.025 616.068 323.466 615.551C322.911 615.033 322.244 614.775 321.463 614.775C320.291 614.775 319.375 615.353 318.715 616.509C318.056 617.659 317.726 619.287 317.726 621.393C317.726 622.797 317.874 623.99 318.169 624.972C318.465 625.953 318.89 626.7 319.444 627.212C320.003 627.724 320.676 627.98 321.463 627.98ZM336.41 634.06V617.34H338.215V619.271H338.436C338.573 619.06 338.763 618.791 339.006 618.464C339.254 618.131 339.608 617.836 340.067 617.577C340.532 617.313 341.16 617.181 341.951 617.181C342.975 617.181 343.878 617.437 344.659 617.949C345.44 618.461 346.05 619.187 346.488 620.126C346.926 621.066 347.145 622.174 347.145 623.452C347.145 624.739 346.926 625.856 346.488 626.8C346.05 627.74 345.443 628.468 344.667 628.985C343.891 629.497 342.996 629.753 341.983 629.753C341.202 629.753 340.576 629.624 340.107 629.365C339.637 629.102 339.275 628.803 339.022 628.471C338.769 628.133 338.573 627.853 338.436 627.632H338.278V634.06H336.41ZM338.246 623.42C338.246 624.338 338.381 625.148 338.65 625.85C338.919 626.547 339.312 627.093 339.83 627.489C340.347 627.88 340.98 628.075 341.73 628.075C342.511 628.075 343.163 627.869 343.685 627.457C344.213 627.041 344.609 626.481 344.873 625.779C345.142 625.072 345.276 624.285 345.276 623.42C345.276 622.565 345.144 621.794 344.881 621.108C344.622 620.417 344.229 619.871 343.701 619.469C343.178 619.063 342.521 618.86 341.73 618.86C340.97 618.86 340.331 619.052 339.814 619.438C339.297 619.818 338.906 620.351 338.642 621.037C338.378 621.718 338.246 622.512 338.246 623.42ZM349.995 629.5V617.34H351.863V629.5H349.995ZM350.945 615.313C350.581 615.313 350.267 615.189 350.003 614.941C349.744 614.693 349.615 614.395 349.615 614.046C349.615 613.698 349.744 613.4 350.003 613.152C350.267 612.904 350.581 612.78 350.945 612.78C351.309 612.78 351.62 612.904 351.879 613.152C352.143 613.4 352.275 613.698 352.275 614.046C352.275 614.395 352.143 614.693 351.879 614.941C351.62 615.189 351.309 615.313 350.945 615.313ZM356.679 617.34L359.592 622.312L362.505 617.34H364.659L360.732 623.42L364.659 629.5H362.505L359.592 624.782L356.679 629.5H354.525L358.389 623.42L354.525 617.34H356.679ZM371.922 629.753C370.751 629.753 369.74 629.495 368.89 628.977C368.046 628.455 367.394 627.727 366.935 626.792C366.481 625.853 366.254 624.76 366.254 623.515C366.254 622.269 366.481 621.172 366.935 620.221C367.394 619.266 368.033 618.522 368.851 617.989C369.674 617.451 370.635 617.181 371.732 617.181C372.366 617.181 372.991 617.287 373.609 617.498C374.226 617.709 374.788 618.052 375.295 618.527C375.802 618.997 376.205 619.62 376.506 620.396C376.807 621.172 376.957 622.127 376.957 623.262V624.053H367.584V622.438H375.057C375.057 621.752 374.92 621.14 374.646 620.601C374.377 620.063 373.991 619.638 373.49 619.327C372.994 619.015 372.408 618.86 371.732 618.86C370.988 618.86 370.344 619.045 369.801 619.414C369.262 619.778 368.848 620.253 368.558 620.839C368.267 621.425 368.122 622.053 368.122 622.723V623.8C368.122 624.718 368.281 625.497 368.597 626.135C368.919 626.769 369.365 627.252 369.935 627.584C370.505 627.911 371.168 628.075 371.922 628.075C372.413 628.075 372.857 628.006 373.252 627.869C373.654 627.727 373.999 627.516 374.29 627.236C374.58 626.951 374.804 626.597 374.962 626.175L376.767 626.682C376.577 627.294 376.258 627.832 375.81 628.297C375.361 628.756 374.807 629.115 374.147 629.373C373.487 629.627 372.746 629.753 371.922 629.753ZM381.668 613.286V629.5H379.8V613.286H381.668ZM393.704 620.063L392.025 620.538C391.92 620.258 391.764 619.987 391.558 619.723C391.358 619.454 391.083 619.232 390.735 619.058C390.386 618.884 389.94 618.796 389.397 618.796C388.653 618.796 388.032 618.968 387.536 619.311C387.045 619.649 386.8 620.079 386.8 620.601C386.8 621.066 386.969 621.433 387.307 621.702C387.645 621.971 388.172 622.195 388.89 622.375L390.695 622.818C391.782 623.082 392.593 623.486 393.126 624.029C393.659 624.568 393.925 625.262 393.925 626.112C393.925 626.808 393.725 627.431 393.324 627.98C392.928 628.529 392.374 628.962 391.661 629.278C390.948 629.595 390.12 629.753 389.175 629.753C387.935 629.753 386.908 629.484 386.095 628.946C385.283 628.407 384.768 627.621 384.552 626.587L386.325 626.143C386.494 626.798 386.813 627.289 387.283 627.616C387.758 627.943 388.378 628.107 389.143 628.107C390.014 628.107 390.706 627.922 391.218 627.552C391.735 627.178 391.993 626.729 391.993 626.207C391.993 625.784 391.846 625.431 391.55 625.146C391.255 624.855 390.801 624.639 390.188 624.497L388.162 624.022C387.048 623.758 386.23 623.349 385.708 622.794C385.19 622.235 384.932 621.536 384.932 620.697C384.932 620.01 385.124 619.403 385.51 618.876C385.9 618.348 386.431 617.934 387.101 617.633C387.776 617.332 388.542 617.181 389.397 617.181C390.6 617.181 391.545 617.445 392.231 617.973C392.922 618.501 393.413 619.198 393.704 620.063Z" fill="#6A7282"/>
<rect x="203.76" y="667" width="204.46" height="59" rx="3" fill="white"/>
<rect x="203.76" y="667" width="204.46" height="59" rx="3" stroke="#D1D5DC"/>
<path d="M236.711 691.94C236.628 691.244 236.294 690.703 235.707 690.318C235.121 689.933 234.401 689.74 233.549 689.74C232.925 689.74 232.38 689.841 231.912 690.043C231.449 690.245 231.087 690.522 230.826 690.875C230.569 691.228 230.441 691.629 230.441 692.078C230.441 692.454 230.53 692.777 230.709 693.047C230.893 693.313 231.126 693.535 231.41 693.714C231.695 693.888 231.993 694.033 232.304 694.147C232.616 694.257 232.902 694.347 233.164 694.415L234.593 694.8C234.96 694.896 235.368 695.029 235.817 695.199C236.271 695.369 236.704 695.6 237.117 695.893C237.534 696.182 237.877 696.553 238.148 697.007C238.418 697.461 238.553 698.018 238.553 698.678C238.553 699.438 238.354 700.126 237.955 700.74C237.561 701.354 236.984 701.842 236.223 702.204C235.467 702.566 234.548 702.747 233.466 702.747C232.458 702.747 231.585 702.585 230.847 702.259C230.113 701.934 229.536 701.48 229.114 700.898C228.697 700.316 228.461 699.64 228.406 698.87H230.166C230.212 699.402 230.391 699.842 230.702 700.19C231.019 700.534 231.417 700.79 231.899 700.96C232.384 701.125 232.907 701.208 233.466 701.208C234.117 701.208 234.701 701.102 235.219 700.891C235.737 700.676 236.147 700.378 236.45 699.998C236.752 699.613 236.903 699.163 236.903 698.65C236.903 698.183 236.773 697.802 236.512 697.509C236.25 697.216 235.907 696.977 235.48 696.794C235.054 696.611 234.593 696.45 234.099 696.313L232.366 695.818C231.266 695.501 230.395 695.05 229.754 694.463C229.112 693.877 228.791 693.109 228.791 692.16C228.791 691.372 229.004 690.685 229.431 690.098C229.861 689.507 230.439 689.048 231.163 688.723C231.892 688.393 232.705 688.228 233.604 688.228C234.511 688.228 235.318 688.391 236.023 688.716C236.729 689.037 237.288 689.477 237.701 690.036C238.118 690.595 238.338 691.23 238.361 691.94H236.711ZM245.729 691.94V693.315H240.257V691.94H245.729ZM241.852 689.41H243.474V699.475C243.474 699.933 243.54 700.277 243.673 700.506C243.811 700.731 243.985 700.882 244.196 700.96C244.411 701.033 244.638 701.07 244.876 701.07C245.055 701.07 245.202 701.061 245.316 701.043C245.431 701.02 245.523 701.001 245.591 700.988L245.921 702.445C245.811 702.486 245.658 702.527 245.461 702.569C245.264 702.615 245.014 702.637 244.711 702.637C244.253 702.637 243.804 702.539 243.364 702.342C242.929 702.145 242.567 701.845 242.278 701.441C241.994 701.038 241.852 700.529 241.852 699.915V689.41ZM248.169 702.5V691.94H249.792V702.5H248.169ZM248.994 690.18C248.678 690.18 248.405 690.073 248.176 689.857C247.952 689.642 247.839 689.383 247.839 689.08C247.839 688.778 247.952 688.519 248.176 688.304C248.405 688.088 248.678 687.98 248.994 687.98C249.311 687.98 249.581 688.088 249.806 688.304C250.035 688.519 250.149 688.778 250.149 689.08C250.149 689.383 250.035 689.642 249.806 689.857C249.581 690.073 249.311 690.18 248.994 690.18ZM257.053 702.72C256.063 702.72 255.211 702.486 254.496 702.019C253.781 701.551 253.231 700.907 252.846 700.087C252.461 699.267 252.269 698.329 252.269 697.275C252.269 696.203 252.466 695.256 252.86 694.436C253.259 693.611 253.813 692.967 254.523 692.504C255.238 692.037 256.073 691.803 257.026 691.803C257.768 691.803 258.438 691.94 259.033 692.215C259.629 692.49 260.117 692.875 260.498 693.37C260.878 693.865 261.114 694.443 261.206 695.103H259.583C259.46 694.622 259.185 694.195 258.758 693.824C258.337 693.448 257.768 693.26 257.053 693.26C256.421 693.26 255.866 693.425 255.39 693.755C254.918 694.081 254.549 694.541 254.283 695.137C254.022 695.728 253.891 696.423 253.891 697.22C253.891 698.036 254.019 698.746 254.276 699.351C254.537 699.956 254.904 700.426 255.376 700.761C255.853 701.095 256.412 701.263 257.053 701.263C257.475 701.263 257.858 701.189 258.201 701.043C258.545 700.896 258.836 700.685 259.075 700.41C259.313 700.135 259.482 699.805 259.583 699.42H261.206C261.114 700.043 260.887 700.605 260.525 701.104C260.168 701.599 259.693 701.994 259.102 702.287C258.515 702.576 257.833 702.72 257.053 702.72ZM265.09 698.65L265.063 696.643H265.392L270.012 691.94H272.02L267.097 696.918H266.96L265.09 698.65ZM263.578 702.5V688.42H265.2V702.5H263.578ZM270.287 702.5L266.162 697.275L267.317 696.148L272.35 702.5H270.287ZM275.153 706.46C274.878 706.46 274.633 706.437 274.417 706.391C274.202 706.35 274.053 706.309 273.971 706.267L274.383 704.837C274.777 704.938 275.125 704.975 275.428 704.947C275.73 704.92 275.999 704.785 276.232 704.542C276.471 704.303 276.688 703.916 276.885 703.38L277.188 702.555L273.283 691.94H275.043L277.958 700.355H278.068L280.983 691.94H282.743L278.26 704.04C278.059 704.585 277.809 705.037 277.511 705.394C277.213 705.756 276.867 706.024 276.473 706.199C276.083 706.373 275.643 706.46 275.153 706.46ZM290.549 702.5V688.42H295.306C296.411 688.42 297.314 688.62 298.015 689.019C298.721 689.413 299.243 689.947 299.582 690.62C299.922 691.294 300.091 692.046 300.091 692.875C300.091 693.705 299.922 694.459 299.582 695.137C299.248 695.815 298.73 696.356 298.029 696.76C297.328 697.158 296.429 697.358 295.334 697.358H291.924V695.845H295.279C296.035 695.845 296.642 695.715 297.101 695.453C297.559 695.192 297.891 694.839 298.098 694.395C298.308 693.945 298.414 693.439 298.414 692.875C298.414 692.312 298.308 691.807 298.098 691.363C297.891 690.918 297.557 690.57 297.094 690.318C296.631 690.061 296.017 689.933 295.251 689.933H292.254V702.5H290.549ZM306.794 702.72C305.841 702.72 305.004 702.493 304.285 702.039C303.57 701.586 303.011 700.951 302.607 700.135C302.209 699.319 302.009 698.366 302.009 697.275C302.009 696.175 302.209 695.215 302.607 694.395C303.011 693.574 303.57 692.937 304.285 692.483C305.004 692.03 305.841 691.803 306.794 691.803C307.747 691.803 308.582 692.03 309.297 692.483C310.016 692.937 310.575 693.574 310.974 694.395C311.377 695.215 311.579 696.175 311.579 697.275C311.579 698.366 311.377 699.319 310.974 700.135C310.575 700.951 310.016 701.586 309.297 702.039C308.582 702.493 307.747 702.72 306.794 702.72ZM306.794 701.263C307.518 701.263 308.114 701.077 308.582 700.706C309.049 700.334 309.395 699.846 309.62 699.241C309.844 698.636 309.957 697.981 309.957 697.275C309.957 696.569 309.844 695.912 309.62 695.302C309.395 694.693 309.049 694.2 308.582 693.824C308.114 693.448 307.518 693.26 306.794 693.26C306.07 693.26 305.474 693.448 305.007 693.824C304.539 694.2 304.193 694.693 303.969 695.302C303.744 695.912 303.632 696.569 303.632 697.275C303.632 697.981 303.744 698.636 303.969 699.241C304.193 699.846 304.539 700.334 305.007 700.706C305.474 701.077 306.07 701.263 306.794 701.263ZM321.535 694.305L320.078 694.718C319.986 694.475 319.851 694.239 319.672 694.01C319.498 693.776 319.26 693.583 318.957 693.432C318.655 693.281 318.268 693.205 317.795 693.205C317.149 693.205 316.611 693.354 316.18 693.652C315.754 693.945 315.541 694.319 315.541 694.773C315.541 695.176 315.687 695.495 315.981 695.728C316.274 695.962 316.732 696.157 317.356 696.313L318.923 696.698C319.867 696.927 320.571 697.277 321.034 697.75C321.496 698.217 321.728 698.82 321.728 699.558C321.728 700.163 321.554 700.703 321.205 701.18C320.862 701.657 320.38 702.033 319.762 702.308C319.143 702.582 318.423 702.72 317.603 702.72C316.526 702.72 315.635 702.486 314.929 702.019C314.223 701.551 313.776 700.868 313.588 699.97L315.128 699.585C315.275 700.153 315.552 700.58 315.96 700.864C316.372 701.148 316.911 701.29 317.576 701.29C318.332 701.29 318.932 701.13 319.377 700.809C319.826 700.483 320.05 700.094 320.05 699.64C320.05 699.273 319.922 698.966 319.665 698.719C319.409 698.467 319.015 698.279 318.483 698.155L316.723 697.743C315.756 697.513 315.046 697.158 314.592 696.677C314.143 696.191 313.918 695.584 313.918 694.855C313.918 694.259 314.085 693.732 314.42 693.274C314.759 692.816 315.22 692.456 315.802 692.195C316.388 691.933 317.053 691.803 317.795 691.803C318.84 691.803 319.661 692.032 320.257 692.49C320.857 692.949 321.283 693.554 321.535 694.305ZM324.17 702.5V691.94H325.793V702.5H324.17ZM324.995 690.18C324.679 690.18 324.406 690.073 324.177 689.857C323.952 689.642 323.84 689.383 323.84 689.08C323.84 688.778 323.952 688.519 324.177 688.304C324.406 688.088 324.679 687.98 324.995 687.98C325.311 687.98 325.582 688.088 325.806 688.304C326.035 688.519 326.15 688.778 326.15 689.08C326.15 689.383 326.035 689.642 325.806 689.857C325.582 690.073 325.311 690.18 324.995 690.18ZM333.357 691.94V693.315H327.884V691.94H333.357ZM329.479 689.41H331.102V699.475C331.102 699.933 331.168 700.277 331.301 700.506C331.438 700.731 331.613 700.882 331.823 700.96C332.039 701.033 332.266 701.07 332.504 701.07C332.683 701.07 332.829 701.061 332.944 701.043C333.059 701.02 333.15 701.001 333.219 700.988L333.549 702.445C333.439 702.486 333.286 702.527 333.088 702.569C332.891 702.615 332.642 702.637 332.339 702.637C331.881 702.637 331.432 702.539 330.992 702.342C330.556 702.145 330.194 701.845 329.905 701.441C329.621 701.038 329.479 700.529 329.479 699.915V689.41ZM335.797 702.5V691.94H337.42V702.5H335.797ZM336.622 690.18C336.306 690.18 336.033 690.073 335.804 689.857C335.579 689.642 335.467 689.383 335.467 689.08C335.467 688.778 335.579 688.519 335.804 688.304C336.033 688.088 336.306 687.98 336.622 687.98C336.938 687.98 337.209 688.088 337.433 688.304C337.662 688.519 337.777 688.778 337.777 689.08C337.777 689.383 337.662 689.642 337.433 689.857C337.209 690.073 336.938 690.18 336.622 690.18ZM344.681 702.72C343.728 702.72 342.891 702.493 342.172 702.039C341.457 701.586 340.898 700.951 340.494 700.135C340.096 699.319 339.896 698.366 339.896 697.275C339.896 696.175 340.096 695.215 340.494 694.395C340.898 693.574 341.457 692.937 342.172 692.483C342.891 692.03 343.728 691.803 344.681 691.803C345.634 691.803 346.468 692.03 347.183 692.483C347.903 692.937 348.462 693.574 348.861 694.395C349.264 695.215 349.466 696.175 349.466 697.275C349.466 698.366 349.264 699.319 348.861 700.135C348.462 700.951 347.903 701.586 347.183 702.039C346.468 702.493 345.634 702.72 344.681 702.72ZM344.681 701.263C345.405 701.263 346.001 701.077 346.468 700.706C346.936 700.334 347.282 699.846 347.507 699.241C347.731 698.636 347.843 697.981 347.843 697.275C347.843 696.569 347.731 695.912 347.507 695.302C347.282 694.693 346.936 694.2 346.468 693.824C346.001 693.448 345.405 693.26 344.681 693.26C343.957 693.26 343.361 693.448 342.894 693.824C342.426 694.2 342.08 694.693 341.855 695.302C341.631 695.912 341.519 696.569 341.519 697.275C341.519 697.981 341.631 698.636 341.855 699.241C342.08 699.846 342.426 700.334 342.894 700.706C343.361 701.077 343.957 701.263 344.681 701.263ZM353.565 696.148V702.5H351.943V691.94H353.51V693.59H353.647C353.895 693.054 354.271 692.623 354.775 692.298C355.279 691.968 355.93 691.803 356.727 691.803C357.442 691.803 358.068 691.95 358.604 692.243C359.14 692.532 359.557 692.972 359.855 693.563C360.153 694.149 360.302 694.892 360.302 695.79V702.5H358.68V695.9C358.68 695.071 358.464 694.424 358.034 693.962C357.603 693.494 357.012 693.26 356.26 693.26C355.742 693.26 355.279 693.373 354.871 693.597C354.468 693.822 354.149 694.149 353.916 694.58C353.682 695.011 353.565 695.534 353.565 696.148ZM367.694 702.72C366.677 702.72 365.799 702.495 365.061 702.046C364.328 701.593 363.762 700.96 363.363 700.149C362.969 699.333 362.772 698.384 362.772 697.303C362.772 696.221 362.969 695.268 363.363 694.443C363.762 693.613 364.317 692.967 365.027 692.504C365.742 692.037 366.576 691.803 367.529 691.803C368.079 691.803 368.622 691.895 369.159 692.078C369.695 692.261 370.183 692.559 370.623 692.972C371.063 693.379 371.414 693.92 371.675 694.594C371.936 695.268 372.067 696.097 372.067 697.083V697.77H363.927V696.368H370.417C370.417 695.772 370.298 695.24 370.059 694.773C369.826 694.305 369.491 693.936 369.056 693.666C368.625 693.396 368.116 693.26 367.529 693.26C366.883 693.26 366.324 693.421 365.852 693.742C365.384 694.058 365.025 694.47 364.773 694.979C364.52 695.488 364.394 696.033 364.394 696.615V697.55C364.394 698.348 364.532 699.024 364.807 699.578C365.087 700.128 365.474 700.548 365.969 700.836C366.464 701.12 367.039 701.263 367.694 701.263C368.121 701.263 368.506 701.203 368.849 701.084C369.198 700.96 369.498 700.777 369.75 700.534C370.002 700.286 370.197 699.979 370.334 699.613L371.902 700.053C371.737 700.584 371.459 701.052 371.07 701.455C370.68 701.854 370.199 702.165 369.626 702.39C369.053 702.61 368.409 702.72 367.694 702.72ZM378.522 702.72C377.642 702.72 376.865 702.498 376.192 702.053C375.518 701.604 374.991 700.972 374.61 700.156C374.23 699.335 374.04 698.366 374.04 697.248C374.04 696.139 374.23 695.176 374.61 694.36C374.991 693.544 375.52 692.914 376.198 692.47C376.877 692.025 377.66 691.803 378.55 691.803C379.237 691.803 379.78 691.917 380.179 692.147C380.582 692.371 380.889 692.628 381.1 692.917C381.316 693.201 381.483 693.434 381.602 693.618H381.74V688.42H383.362V702.5H381.795V700.878H381.602C381.483 701.07 381.313 701.313 381.093 701.606C380.873 701.895 380.559 702.154 380.151 702.383C379.744 702.608 379.2 702.72 378.522 702.72ZM378.742 701.263C379.393 701.263 379.943 701.093 380.392 700.754C380.841 700.41 381.183 699.936 381.416 699.331C381.65 698.721 381.767 698.018 381.767 697.22C381.767 696.432 381.652 695.742 381.423 695.151C381.194 694.555 380.855 694.092 380.406 693.762C379.957 693.428 379.402 693.26 378.742 693.26C378.055 693.26 377.482 693.437 377.023 693.79C376.57 694.138 376.228 694.612 375.999 695.213C375.775 695.809 375.662 696.478 375.662 697.22C375.662 697.972 375.777 698.655 376.006 699.269C376.24 699.878 376.583 700.364 377.037 700.726C377.495 701.084 378.064 701.263 378.742 701.263Z" fill="#99A1AF"/>
<rect x="220.56" y="741" width="170.88" height="59" rx="3" fill="white"/>
<rect x="220.56" y="741" width="170.88" height="59" rx="3" stroke="#D1D5DC"/>
<path d="M249.82 776.5H245.401V762.182H250.015C251.404 762.182 252.593 762.468 253.581 763.042C254.569 763.61 255.326 764.428 255.853 765.496C256.38 766.558 256.643 767.831 256.643 769.313C256.643 770.804 256.377 772.088 255.846 773.165C255.315 774.237 254.541 775.062 253.525 775.64C252.509 776.213 251.274 776.5 249.82 776.5ZM247.135 774.962H249.708C250.892 774.962 251.873 774.734 252.651 774.277C253.429 773.82 254.01 773.17 254.392 772.326C254.774 771.483 254.965 770.478 254.965 769.313C254.965 768.157 254.776 767.162 254.399 766.328C254.021 765.489 253.457 764.846 252.707 764.398C251.957 763.946 251.022 763.72 249.903 763.72H247.135V774.962ZM263.83 776.724C262.795 776.724 261.903 776.495 261.152 776.039C260.407 775.577 259.831 774.934 259.426 774.109C259.025 773.279 258.824 772.315 258.824 771.215C258.824 770.115 259.025 769.145 259.426 768.306C259.831 767.463 260.395 766.805 261.118 766.335C261.845 765.859 262.693 765.622 263.662 765.622C264.222 765.622 264.774 765.715 265.319 765.901C265.865 766.088 266.361 766.391 266.808 766.81C267.256 767.225 267.612 767.775 267.878 768.46C268.144 769.145 268.277 769.989 268.277 770.991V771.69H259.999V770.264H266.599C266.599 769.658 266.478 769.117 266.235 768.642C265.997 768.166 265.657 767.791 265.214 767.516C264.776 767.241 264.259 767.104 263.662 767.104C263.005 767.104 262.437 767.267 261.956 767.593C261.481 767.915 261.115 768.334 260.859 768.852C260.603 769.369 260.474 769.924 260.474 770.515V771.466C260.474 772.277 260.614 772.965 260.894 773.529C261.178 774.088 261.572 774.514 262.075 774.808C262.579 775.097 263.164 775.242 263.83 775.242C264.264 775.242 264.655 775.181 265.005 775.06C265.359 774.934 265.664 774.748 265.921 774.5C266.177 774.249 266.375 773.937 266.515 773.564L268.109 774.011C267.941 774.552 267.659 775.027 267.263 775.437C266.867 775.843 266.377 776.16 265.795 776.388C265.212 776.612 264.557 776.724 263.83 776.724ZM278.393 768.166L276.911 768.586C276.818 768.339 276.68 768.099 276.498 767.866C276.321 767.628 276.079 767.432 275.771 767.278C275.464 767.125 275.07 767.048 274.59 767.048C273.933 767.048 273.385 767.199 272.947 767.502C272.513 767.8 272.297 768.18 272.297 768.642C272.297 769.052 272.446 769.376 272.744 769.614C273.042 769.851 273.508 770.049 274.142 770.208L275.736 770.599C276.696 770.832 277.412 771.189 277.883 771.669C278.353 772.144 278.589 772.757 278.589 773.508C278.589 774.123 278.412 774.673 278.057 775.158C277.708 775.642 277.218 776.025 276.589 776.304C275.96 776.584 275.228 776.724 274.394 776.724C273.299 776.724 272.392 776.486 271.674 776.011C270.957 775.535 270.502 774.841 270.311 773.927L271.877 773.536C272.026 774.114 272.308 774.547 272.723 774.836C273.143 775.125 273.69 775.27 274.366 775.27C275.135 775.27 275.746 775.106 276.198 774.78C276.655 774.449 276.883 774.053 276.883 773.592C276.883 773.219 276.752 772.906 276.491 772.655C276.23 772.398 275.83 772.207 275.289 772.081L273.499 771.662C272.516 771.429 271.793 771.068 271.332 770.578C270.875 770.084 270.647 769.467 270.647 768.726C270.647 768.12 270.817 767.584 271.157 767.118C271.502 766.652 271.97 766.286 272.562 766.02C273.159 765.754 273.835 765.622 274.59 765.622C275.652 765.622 276.487 765.855 277.093 766.321C277.703 766.787 278.137 767.402 278.393 768.166ZM282.611 772.585L282.583 770.543H282.918L287.616 765.761H289.658L284.652 770.823H284.512L282.611 772.585ZM281.072 776.5V762.182H282.722V776.5H281.072ZM287.896 776.5L283.701 771.187L284.876 770.04L289.993 776.5H287.896ZM296.452 765.761V767.16H290.886V765.761H296.452ZM292.508 763.189H294.158V773.424C294.158 773.89 294.226 774.239 294.361 774.473C294.501 774.701 294.678 774.855 294.893 774.934C295.112 775.009 295.342 775.046 295.585 775.046C295.766 775.046 295.916 775.036 296.032 775.018C296.149 774.995 296.242 774.976 296.312 774.962L296.647 776.444C296.535 776.486 296.379 776.528 296.179 776.57C295.978 776.617 295.724 776.64 295.417 776.64C294.951 776.64 294.494 776.54 294.047 776.339C293.604 776.139 293.236 775.833 292.942 775.423C292.653 775.013 292.508 774.496 292.508 773.871V763.189ZM303.181 776.724C302.211 776.724 301.361 776.493 300.629 776.032C299.902 775.57 299.333 774.925 298.923 774.095C298.517 773.265 298.315 772.296 298.315 771.187C298.315 770.068 298.517 769.092 298.923 768.257C299.333 767.423 299.902 766.775 300.629 766.314C301.361 765.852 302.211 765.622 303.181 765.622C304.15 765.622 304.998 765.852 305.726 766.314C306.457 766.775 307.026 767.423 307.431 768.257C307.842 769.092 308.047 770.068 308.047 771.187C308.047 772.296 307.842 773.265 307.431 774.095C307.026 774.925 306.457 775.57 305.726 776.032C304.998 776.493 304.15 776.724 303.181 776.724ZM303.181 775.242C303.917 775.242 304.523 775.053 304.998 774.675C305.474 774.298 305.826 773.801 306.054 773.186C306.282 772.571 306.397 771.904 306.397 771.187C306.397 770.469 306.282 769.8 306.054 769.18C305.826 768.56 305.474 768.059 304.998 767.677C304.523 767.295 303.917 767.104 303.181 767.104C302.444 767.104 301.838 767.295 301.363 767.677C300.888 768.059 300.536 768.56 300.307 769.18C300.079 769.8 299.965 770.469 299.965 771.187C299.965 771.904 300.079 772.571 300.307 773.186C300.536 773.801 300.888 774.298 301.363 774.675C301.838 775.053 302.444 775.242 303.181 775.242ZM310.565 780.527V765.761H312.159V767.467H312.355C312.476 767.281 312.644 767.043 312.858 766.754C313.077 766.46 313.39 766.199 313.795 765.971C314.205 765.738 314.76 765.622 315.459 765.622C316.363 765.622 317.16 765.848 317.85 766.3C318.54 766.752 319.078 767.393 319.465 768.222C319.852 769.052 320.045 770.031 320.045 771.159C320.045 772.296 319.852 773.282 319.465 774.116C319.078 774.946 318.542 775.589 317.857 776.046C317.172 776.498 316.382 776.724 315.487 776.724C314.797 776.724 314.245 776.61 313.83 776.381C313.415 776.148 313.096 775.885 312.872 775.591C312.649 775.293 312.476 775.046 312.355 774.85H312.215V780.527H310.565ZM312.187 771.131C312.187 771.942 312.306 772.657 312.544 773.277C312.781 773.892 313.129 774.375 313.585 774.724C314.042 775.069 314.602 775.242 315.263 775.242C315.953 775.242 316.529 775.06 316.99 774.696C317.456 774.328 317.806 773.834 318.039 773.214C318.277 772.59 318.396 771.895 318.396 771.131C318.396 770.376 318.279 769.695 318.046 769.089C317.818 768.479 317.47 767.996 317.004 767.642C316.543 767.283 315.963 767.104 315.263 767.104C314.592 767.104 314.028 767.274 313.572 767.614C313.115 767.95 312.77 768.42 312.537 769.026C312.304 769.628 312.187 770.329 312.187 771.131ZM340.404 769.341C340.404 770.851 340.131 772.156 339.586 773.256C339.041 774.356 338.293 775.204 337.342 775.801C336.391 776.397 335.305 776.696 334.084 776.696C332.863 776.696 331.777 776.397 330.826 775.801C329.875 775.204 329.127 774.356 328.582 773.256C328.037 772.156 327.764 770.851 327.764 769.341C327.764 767.831 328.037 766.526 328.582 765.426C329.127 764.326 329.875 763.478 330.826 762.881C331.777 762.284 332.863 761.986 334.084 761.986C335.305 761.986 336.391 762.284 337.342 762.881C338.293 763.478 339.041 764.326 339.586 765.426C340.131 766.526 340.404 767.831 340.404 769.341ZM338.726 769.341C338.726 768.101 338.519 767.055 338.104 766.202C337.694 765.349 337.137 764.703 336.433 764.265C335.734 763.827 334.951 763.608 334.084 763.608C333.217 763.608 332.432 763.827 331.728 764.265C331.029 764.703 330.472 765.349 330.057 766.202C329.647 767.055 329.442 768.101 329.442 769.341C329.442 770.581 329.647 771.627 330.057 772.48C330.472 773.333 331.029 773.978 331.728 774.417C332.432 774.855 333.217 775.074 334.084 775.074C334.951 775.074 335.734 774.855 336.433 774.417C337.137 773.978 337.694 773.333 338.104 772.48C338.519 771.627 338.726 770.581 338.726 769.341ZM344.746 770.04V776.5H343.096V765.761H344.69V767.439H344.83C345.081 766.894 345.463 766.456 345.976 766.125C346.489 765.789 347.151 765.622 347.962 765.622C348.689 765.622 349.325 765.771 349.87 766.069C350.416 766.363 350.84 766.81 351.143 767.411C351.446 768.008 351.597 768.763 351.597 769.676V776.5H349.947V769.788C349.947 768.945 349.728 768.288 349.29 767.817C348.852 767.341 348.251 767.104 347.486 767.104C346.96 767.104 346.489 767.218 346.074 767.446C345.664 767.675 345.34 768.008 345.102 768.446C344.865 768.884 344.746 769.415 344.746 770.04ZM356.262 762.182V776.5H354.612V762.182H356.262ZM360.347 780.527C360.067 780.527 359.818 780.504 359.599 780.457C359.38 780.415 359.228 780.373 359.144 780.331L359.564 778.877C359.965 778.98 360.319 779.017 360.626 778.989C360.934 778.961 361.207 778.823 361.444 778.576C361.687 778.334 361.908 777.94 362.109 777.395L362.416 776.556L358.445 765.761H360.235L363.199 774.319H363.311L366.275 765.761H368.065L363.507 778.066C363.302 778.621 363.048 779.08 362.745 779.443C362.442 779.812 362.09 780.084 361.689 780.261C361.293 780.438 360.846 780.527 360.347 780.527Z" fill="#99A1AF"/>
</g>
<defs>
<filter id="filter0_dd_2_150" x="0" y="0" width="612" height="1212" filterUnits="userSpaceOnUse" color-interpolation-filters="sRGB">
<feFlood flood-opacity="0" result="BackgroundImageFix"/>
<feColorMatrix in="SourceAlpha" type="matrix" values="0 0 0 0 0 0 0 0 0 0 0 0 0 0 0 0 0 0 127 0" result="hardAlpha"/>
<feMorphology radius="1" operator="erode" in="SourceAlpha" result="effect1_dropShadow_2_150"/>
<feOffset dy="1"/>
<feGaussianBlur stdDeviation="1"/>
<feComposite in2="hardAlpha" operator="out"/>
<feColorMatrix type="matrix" values="0 0 0 0 0 0 0 0 0 0 0 0 0 0 0 0 0 0 0.1 0"/>
<feBlend mode="normal" in2="BackgroundImageFix" result="effect1_dropShadow_2_150"/>
<feColorMatrix in="SourceAlpha" type="matrix" values="0 0 0 0 0 0 0 0 0 0 0 0 0 0 0 0 0 0 127 0" result="hardAlpha"/>
<feOffset dy="1"/>
<feGaussianBlur stdDeviation="1.5"/>
<feComposite in2="hardAlpha" operator="out"/>
<feColorMatrix type="matrix" values="0 0 0 0 0 0 0 0 0 0 0 0 0 0 0 0 0 0 0.1 0"/>
<feBlend mode="normal" in2="effect1_dropShadow_2_150" result="effect2_dropShadow_2_150"/>
<feBlend mode="normal" in="SourceGraphic" in2="effect2_dropShadow_2_150" result="shape"/>
</filter>
<linearGradient id="paint0_linear_2_150" x1="-175.288" y1="366.575" x2="784.712" y2="846.575" gradientUnits="userSpaceOnUse">
<stop stop-color="#F3F4F6"/>
<stop offset="1" stop-color="#E5E7EB"/>
</linearGradient>
</defs>
</svg>
