<svg width="472" height="70" viewBox="0 0 472 70" fill="none" xmlns="http://www.w3.org/2000/svg">
<rect width="70" height="70" rx="8.75" fill="#FB2C36"/>
<path d="M22.75 22.75C22.7498 22.1342 22.9121 21.5292 23.2205 20.9961C23.529 20.4631 23.9726 20.0209 24.5066 19.7141C25.0406 19.4073 25.646 19.2469 26.2619 19.249C26.8777 19.2511 27.4821 19.4156 28.014 19.726L49.0087 31.9725C49.5386 32.2799 49.9785 32.7211 50.2844 33.2518C50.5903 33.7825 50.7516 34.3842 50.7522 34.9967C50.7527 35.6093 50.5924 36.2113 50.2874 36.7425C49.9824 37.2738 49.5433 37.7156 49.014 38.024L28.014 50.274C27.4821 50.5844 26.8777 50.7489 26.2619 50.751C25.646 50.7531 25.0406 50.5927 24.5066 50.2859C23.9726 49.9791 23.529 49.5369 23.2205 49.0039C22.9121 48.4708 22.7498 47.8658 22.75 47.25V22.75Z" fill="white" stroke="white" stroke-width="1.75" stroke-linecap="round" stroke-linejoin="round"/>
<path d="M86.1432 46.5V21.8409H102.47V26.1394H91.3568V32.0152H101.387V36.3137H91.3568V46.5H86.1432ZM105.583 46.5V28.0057H110.555V31.2326H110.748C111.085 30.0847 111.651 29.2178 112.446 28.6318C113.241 28.0378 114.156 27.7408 115.191 27.7408C115.448 27.7408 115.725 27.7568 116.022 27.789C116.319 27.8211 116.58 27.8652 116.805 27.9214V32.4727C116.564 32.4005 116.231 32.3363 115.805 32.2801C115.38 32.2239 114.99 32.1958 114.637 32.1958C113.883 32.1958 113.208 32.3604 112.614 32.6895C112.028 33.0105 111.563 33.4601 111.218 34.038C110.881 34.616 110.712 35.2822 110.712 36.0367V46.5H105.583ZM127.024 46.8612C125.122 46.8612 123.484 46.4759 122.111 45.7053C120.747 44.9267 119.695 43.827 118.957 42.4062C118.218 40.9774 117.849 39.2877 117.849 37.3371C117.849 35.4347 118.218 33.7651 118.957 32.3282C119.695 30.8914 120.735 29.7716 122.075 28.9689C123.424 28.1662 125.005 27.7649 126.819 27.7649C128.039 27.7649 129.175 27.9615 130.227 28.3549C131.286 28.7402 132.209 29.3221 132.996 30.1007C133.791 30.8794 134.409 31.8587 134.85 33.0386C135.292 34.2106 135.513 35.5832 135.513 37.1565V38.5653H119.896V35.3866H130.684C130.684 34.6481 130.524 33.9939 130.203 33.4239C129.882 32.854 129.436 32.4085 128.866 32.0874C128.304 31.7583 127.65 31.5938 126.904 31.5938C126.125 31.5938 125.435 31.7744 124.833 32.1356C124.239 32.4888 123.773 32.9664 123.436 33.5684C123.099 34.1624 122.926 34.8247 122.918 35.5551V38.5773C122.918 39.4924 123.087 40.2831 123.424 40.9493C123.769 41.6155 124.255 42.1293 124.881 42.4905C125.507 42.8517 126.249 43.0323 127.108 43.0323C127.678 43.0323 128.2 42.952 128.674 42.7915C129.147 42.631 129.552 42.3902 129.89 42.0691C130.227 41.748 130.484 41.3547 130.66 40.8891L135.404 41.2021C135.163 42.342 134.67 43.3373 133.923 44.1882C133.185 45.0311 132.23 45.6893 131.058 46.1629C129.894 46.6284 128.549 46.8612 127.024 46.8612ZM147.288 46.8612C145.386 46.8612 143.748 46.4759 142.376 45.7053C141.011 44.9267 139.96 43.827 139.221 42.4062C138.483 40.9774 138.113 39.2877 138.113 37.3371C138.113 35.4347 138.483 33.7651 139.221 32.3282C139.96 30.8914 140.999 29.7716 142.34 28.9689C143.688 28.1662 145.269 27.7649 147.084 27.7649C148.304 27.7649 149.44 27.9615 150.491 28.3549C151.551 28.7402 152.474 29.3221 153.26 30.1007C154.055 30.8794 154.673 31.8587 155.115 33.0386C155.556 34.2106 155.777 35.5832 155.777 37.1565V38.5653H140.16V35.3866H150.949C150.949 34.6481 150.788 33.9939 150.467 33.4239C150.146 32.854 149.7 32.4085 149.13 32.0874C148.569 31.7583 147.914 31.5938 147.168 31.5938C146.389 31.5938 145.699 31.7744 145.097 32.1356C144.503 32.4888 144.037 32.9664 143.7 33.5684C143.363 34.1624 143.19 34.8247 143.182 35.5551V38.5773C143.182 39.4924 143.351 40.2831 143.688 40.9493C144.033 41.6155 144.519 42.1293 145.145 42.4905C145.771 42.8517 146.514 43.0323 147.373 43.0323C147.942 43.0323 148.464 42.952 148.938 42.7915C149.411 42.631 149.817 42.3902 150.154 42.0691C150.491 41.748 150.748 41.3547 150.925 40.8891L155.668 41.2021C155.428 42.342 154.934 43.3373 154.188 44.1882C153.449 45.0311 152.494 45.6893 151.322 46.1629C150.158 46.6284 148.813 46.8612 147.288 46.8612ZM161.954 21.8409L167.914 40.576H168.143L174.115 21.8409H179.894L171.393 46.5H164.675L156.162 21.8409H161.954ZM182.766 46.5V28.0057H187.895V46.5H182.766ZM185.342 25.6216C184.58 25.6216 183.926 25.3688 183.38 24.8631C182.842 24.3494 182.573 23.7353 182.573 23.0209C182.573 22.3145 182.842 21.7085 183.38 21.2028C183.926 20.689 184.58 20.4322 185.342 20.4322C186.105 20.4322 186.755 20.689 187.293 21.2028C187.839 21.7085 188.112 22.3145 188.112 23.0209C188.112 23.7353 187.839 24.3494 187.293 24.8631C186.755 25.3688 186.105 25.6216 185.342 25.6216ZM198.819 46.801C197.414 46.801 196.142 46.4398 195.002 45.7174C193.87 44.9869 192.971 43.9153 192.305 42.5025C191.647 41.0817 191.318 39.3399 191.318 37.2769C191.318 35.1578 191.659 33.3958 192.341 31.9911C193.023 30.5784 193.93 29.5228 195.062 28.8244C196.202 28.1181 197.45 27.7649 198.807 27.7649C199.842 27.7649 200.705 27.9415 201.396 28.2947C202.094 28.6398 202.656 29.0733 203.081 29.595C203.515 30.1088 203.844 30.6145 204.069 31.1121H204.225V21.8409H209.342V46.5H204.285V43.538H204.069C203.828 44.0518 203.487 44.5615 203.045 45.0672C202.612 45.5648 202.046 45.9782 201.347 46.3074C200.657 46.6365 199.814 46.801 198.819 46.801ZM200.444 42.7193C201.271 42.7193 201.97 42.4945 202.539 42.045C203.117 41.5874 203.559 40.9493 203.864 40.1305C204.177 39.3118 204.333 38.3525 204.333 37.2528C204.333 36.1531 204.181 35.1979 203.876 34.3872C203.571 33.5765 203.129 32.9503 202.551 32.5089C201.974 32.0674 201.271 31.8466 200.444 31.8466C199.602 31.8466 198.891 32.0754 198.313 32.5329C197.735 32.9905 197.298 33.6246 197.001 34.4353C196.704 35.2461 196.555 36.1852 196.555 37.2528C196.555 38.3285 196.704 39.2797 197.001 40.1065C197.306 40.9252 197.743 41.5674 198.313 42.0329C198.891 42.4905 199.602 42.7193 200.444 42.7193ZM221.988 46.8612C220.086 46.8612 218.448 46.4759 217.075 45.7053C215.711 44.9267 214.659 43.827 213.921 42.4062C213.182 40.9774 212.813 39.2877 212.813 37.3371C212.813 35.4347 213.182 33.7651 213.921 32.3282C214.659 30.8914 215.699 29.7716 217.039 28.9689C218.388 28.1662 219.969 27.7649 221.783 27.7649C223.003 27.7649 224.139 27.9615 225.191 28.3549C226.25 28.7402 227.173 29.3221 227.96 30.1007C228.755 30.8794 229.373 31.8587 229.814 33.0386C230.256 34.2106 230.477 35.5832 230.477 37.1565V38.5653H214.86V35.3866H225.648C225.648 34.6481 225.488 33.9939 225.167 33.4239C224.846 32.854 224.4 32.4085 223.83 32.0874C223.268 31.7583 222.614 31.5938 221.868 31.5938C221.089 31.5938 220.399 31.7744 219.797 32.1356C219.203 32.4888 218.737 32.9664 218.4 33.5684C218.063 34.1624 217.89 34.8247 217.882 35.5551V38.5773C217.882 39.4924 218.051 40.2831 218.388 40.9493C218.733 41.6155 219.219 42.1293 219.845 42.4905C220.471 42.8517 221.213 43.0323 222.072 43.0323C222.642 43.0323 223.164 42.952 223.638 42.7915C224.111 42.631 224.516 42.3902 224.854 42.0691C225.191 41.748 225.448 41.3547 225.624 40.8891L230.368 41.2021C230.127 42.342 229.634 43.3373 228.887 44.1882C228.149 45.0311 227.194 45.6893 226.022 46.1629C224.858 46.6284 223.513 46.8612 221.988 46.8612ZM242.18 46.8612C240.31 46.8612 238.692 46.4639 237.328 45.6692C235.971 44.8665 234.924 43.7507 234.185 42.3219C233.447 40.8851 233.077 39.2195 233.077 37.3251C233.077 35.4146 233.447 33.745 234.185 32.3162C234.924 30.8794 235.971 29.7636 237.328 28.9689C238.692 28.1662 240.31 27.7649 242.18 27.7649C244.05 27.7649 245.664 28.1662 247.02 28.9689C248.385 29.7636 249.436 30.8794 250.175 32.3162C250.913 33.745 251.283 35.4146 251.283 37.3251C251.283 39.2195 250.913 40.8851 250.175 42.3219C249.436 43.7507 248.385 44.8665 247.02 45.6692C245.664 46.4639 244.05 46.8612 242.18 46.8612ZM242.204 42.8878C243.055 42.8878 243.765 42.647 244.335 42.1654C244.905 41.6757 245.335 41.0095 245.624 40.1667C245.921 39.3238 246.069 38.3646 246.069 37.289C246.069 36.2133 245.921 35.2541 245.624 34.4113C245.335 33.5684 244.905 32.9022 244.335 32.4125C243.765 31.9229 243.055 31.6781 242.204 31.6781C241.345 31.6781 240.623 31.9229 240.037 32.4125C239.459 32.9022 239.021 33.5684 238.724 34.4113C238.435 35.2541 238.291 36.2133 238.291 37.289C238.291 38.3646 238.435 39.3238 238.724 40.1667C239.021 41.0095 239.459 41.6757 240.037 42.1654C240.623 42.647 241.345 42.8878 242.204 42.8878ZM270.006 33.2795L265.31 33.5684C265.23 33.1671 265.057 32.8059 264.792 32.4848C264.527 32.1557 264.178 31.8948 263.745 31.7021C263.319 31.5015 262.81 31.4011 262.216 31.4011C261.421 31.4011 260.751 31.5697 260.205 31.9068C259.659 32.2359 259.386 32.6774 259.386 33.2313C259.386 33.6728 259.563 34.046 259.916 34.3511C260.269 34.6561 260.875 34.9009 261.734 35.0855L265.081 35.7598C266.879 36.1291 268.22 36.7231 269.103 37.5418C269.986 38.3606 270.427 39.4362 270.427 40.7687C270.427 41.9808 270.07 43.0444 269.356 43.9594C268.649 44.8745 267.678 45.5889 266.442 46.1027C265.214 46.6084 263.797 46.8612 262.191 46.8612C259.743 46.8612 257.793 46.3515 256.34 45.3321C254.895 44.3046 254.048 42.9079 253.799 41.1419L258.844 40.8771C258.997 41.6236 259.366 42.1935 259.952 42.5868C260.538 42.9721 261.288 43.1648 262.203 43.1648C263.103 43.1648 263.825 42.9922 264.371 42.647C264.925 42.2938 265.206 41.8403 265.214 41.2864C265.206 40.8209 265.009 40.4396 264.624 40.1426C264.238 39.8376 263.644 39.6048 262.842 39.4442L259.639 38.8061C257.833 38.4449 256.488 37.8187 255.605 36.9277C254.73 36.0367 254.293 34.9009 254.293 33.5203C254.293 32.3323 254.614 31.3088 255.256 30.4499C255.906 29.591 256.817 28.9288 257.989 28.4632C259.169 27.9977 260.55 27.7649 262.131 27.7649C264.467 27.7649 266.305 28.2585 267.646 29.2459C268.994 30.2332 269.781 31.5777 270.006 33.2795ZM282.495 46.5H273.753V21.8409H282.567C285.047 21.8409 287.183 22.3346 288.973 23.3219C290.763 24.3012 292.139 25.7099 293.103 27.5481C294.074 29.3863 294.559 31.5857 294.559 34.1464C294.559 36.715 294.074 38.9225 293.103 40.7687C292.139 42.6149 290.755 44.0317 288.949 45.019C287.151 46.0063 284.999 46.5 282.495 46.5ZM278.967 42.0329H282.278C283.819 42.0329 285.116 41.76 286.167 41.2142C287.227 40.6603 288.021 39.8054 288.551 38.6495C289.089 37.4856 289.358 35.9846 289.358 34.1464C289.358 32.3242 289.089 30.8352 288.551 29.6793C288.021 28.5234 287.231 27.6726 286.179 27.1267C285.128 26.5809 283.831 26.308 282.29 26.308H278.967V42.0329ZM306.681 46.8612C304.811 46.8612 303.194 46.4639 301.829 45.6692C300.472 44.8665 299.425 43.7507 298.686 42.3219C297.948 40.8851 297.579 39.2195 297.579 37.3251C297.579 35.4146 297.948 33.745 298.686 32.3162C299.425 30.8794 300.472 29.7636 301.829 28.9689C303.194 28.1662 304.811 27.7649 306.681 27.7649C308.552 27.7649 310.165 28.1662 311.522 28.9689C312.886 29.7636 313.938 30.8794 314.676 32.3162C315.415 33.745 315.784 35.4146 315.784 37.3251C315.784 39.2195 315.415 40.8851 314.676 42.3219C313.938 43.7507 312.886 44.8665 311.522 45.6692C310.165 46.4639 308.552 46.8612 306.681 46.8612ZM306.705 42.8878C307.556 42.8878 308.267 42.647 308.837 42.1654C309.407 41.6757 309.836 41.0095 310.125 40.1667C310.422 39.3238 310.57 38.3646 310.57 37.289C310.57 36.2133 310.422 35.2541 310.125 34.4113C309.836 33.5684 309.407 32.9022 308.837 32.4125C308.267 31.9229 307.556 31.6781 306.705 31.6781C305.847 31.6781 305.124 31.9229 304.538 32.4125C303.96 32.9022 303.523 33.5684 303.226 34.4113C302.937 35.2541 302.792 36.2133 302.792 37.289C302.792 38.3646 302.937 39.3238 303.226 40.1667C303.523 41.0095 303.96 41.6757 304.538 42.1654C305.124 42.647 305.847 42.8878 306.705 42.8878ZM322.304 46.5L317.271 28.0057H322.461L325.326 40.4316H325.495L328.481 28.0057H333.574L336.608 40.3593H336.765L339.582 28.0057H344.76L339.739 46.5H334.308L331.13 34.8688H330.901L327.722 46.5H322.304ZM352.625 35.808V46.5H347.496V28.0057H352.384V31.2687H352.601C353.01 30.1931 353.697 29.3422 354.66 28.7161C355.623 28.0819 356.791 27.7649 358.164 27.7649C359.448 27.7649 360.568 28.0458 361.523 28.6077C362.478 29.1696 363.221 29.9723 363.751 31.0158C364.28 32.0513 364.545 33.2875 364.545 34.7243V46.5H359.416V35.6394C359.424 34.5076 359.135 33.6246 358.549 32.9905C357.963 32.3483 357.156 32.0272 356.129 32.0272C355.439 32.0272 354.829 32.1757 354.299 32.4727C353.777 32.7697 353.368 33.2032 353.071 33.7731C352.782 34.335 352.633 35.0133 352.625 35.808ZM373.717 21.8409V46.5H368.588V21.8409H373.717ZM386.182 46.8612C384.312 46.8612 382.694 46.4639 381.33 45.6692C379.973 44.8665 378.926 43.7507 378.187 42.3219C377.449 40.8851 377.08 39.2195 377.08 37.3251C377.08 35.4146 377.449 33.745 378.187 32.3162C378.926 30.8794 379.973 29.7636 381.33 28.9689C382.694 28.1662 384.312 27.7649 386.182 27.7649C388.053 27.7649 389.666 28.1662 391.023 28.9689C392.387 29.7636 393.439 30.8794 394.177 32.3162C394.916 33.745 395.285 35.4146 395.285 37.3251C395.285 39.2195 394.916 40.8851 394.177 42.3219C393.439 43.7507 392.387 44.8665 391.023 45.6692C389.666 46.4639 388.053 46.8612 386.182 46.8612ZM386.206 42.8878C387.057 42.8878 387.768 42.647 388.337 42.1654C388.907 41.6757 389.337 41.0095 389.626 40.1667C389.923 39.3238 390.071 38.3646 390.071 37.289C390.071 36.2133 389.923 35.2541 389.626 34.4113C389.337 33.5684 388.907 32.9022 388.337 32.4125C387.768 31.9229 387.057 31.6781 386.206 31.6781C385.347 31.6781 384.625 31.9229 384.039 32.4125C383.461 32.9022 383.024 33.5684 382.727 34.4113C382.438 35.2541 382.293 36.2133 382.293 37.289C382.293 38.3646 382.438 39.3238 382.727 40.1667C383.024 41.0095 383.461 41.6757 384.039 42.1654C384.625 42.647 385.347 42.8878 386.206 42.8878ZM403.894 46.8492C402.714 46.8492 401.662 46.6445 400.739 46.2351C399.816 45.8177 399.086 45.2036 398.548 44.3929C398.018 43.5741 397.753 42.5547 397.753 41.3346C397.753 40.3071 397.942 39.4442 398.319 38.7459C398.696 38.0475 399.21 37.4856 399.86 37.0602C400.511 36.6348 401.249 36.3137 402.076 36.0969C402.911 35.8802 403.786 35.7277 404.701 35.6394C405.776 35.527 406.643 35.4227 407.301 35.3263C407.96 35.222 408.437 35.0695 408.734 34.8688C409.031 34.6681 409.18 34.3711 409.18 33.9778V33.9056C409.18 33.143 408.939 32.553 408.457 32.1356C407.984 31.7182 407.309 31.5095 406.434 31.5095C405.511 31.5095 404.777 31.7142 404.231 32.1236C403.685 32.5249 403.324 33.0306 403.147 33.6407L398.403 33.2554C398.644 32.1316 399.118 31.1603 399.824 30.3416C400.531 29.5148 401.442 28.8806 402.557 28.4391C403.681 27.9896 404.982 27.7649 406.459 27.7649C407.486 27.7649 408.469 27.8853 409.408 28.1261C410.356 28.3669 411.195 28.7402 411.925 29.2459C412.663 29.7516 413.245 30.4018 413.671 31.1964C414.096 31.9831 414.309 32.9263 414.309 34.026V46.5H409.445V43.9354H409.3C409.003 44.5133 408.606 45.023 408.108 45.4645C407.61 45.898 407.012 46.2391 406.314 46.488C405.616 46.7288 404.809 46.8492 403.894 46.8492ZM405.363 43.3092C406.117 43.3092 406.784 43.1607 407.362 42.8637C407.94 42.5587 408.393 42.1493 408.722 41.6356C409.051 41.1219 409.216 40.5399 409.216 39.8897V37.9271C409.055 38.0315 408.835 38.1278 408.554 38.2161C408.281 38.2964 407.972 38.3726 407.626 38.4449C407.281 38.5091 406.936 38.5693 406.591 38.6255C406.246 38.6736 405.933 38.7178 405.652 38.7579C405.05 38.8462 404.524 38.9867 404.075 39.1793C403.625 39.372 403.276 39.6329 403.027 39.962C402.778 40.2831 402.654 40.6844 402.654 41.166C402.654 41.8644 402.907 42.3982 403.412 42.7674C403.926 43.1286 404.576 43.3092 405.363 43.3092ZM425.103 46.801C423.699 46.801 422.426 46.4398 421.287 45.7174C420.155 44.9869 419.256 43.9153 418.589 42.5025C417.931 41.0817 417.602 39.3399 417.602 37.2769C417.602 35.1578 417.943 33.3958 418.626 31.9911C419.308 30.5784 420.215 29.5228 421.347 28.8244C422.487 28.1181 423.735 27.7649 425.091 27.7649C426.127 27.7649 426.99 27.9415 427.68 28.2947C428.378 28.6398 428.94 29.0733 429.366 29.595C429.799 30.1088 430.128 30.6145 430.353 31.1121H430.51V21.8409H435.627V46.5H430.57V43.538H430.353C430.112 44.0518 429.771 44.5615 429.33 45.0672C428.896 45.5648 428.33 45.9782 427.632 46.3074C426.942 46.6365 426.099 46.801 425.103 46.801ZM426.729 42.7193C427.556 42.7193 428.254 42.4945 428.824 42.045C429.402 41.5874 429.843 40.9493 430.148 40.1305C430.461 39.3118 430.618 38.3525 430.618 37.2528C430.618 36.1531 430.465 35.1979 430.16 34.3872C429.855 33.5765 429.414 32.9503 428.836 32.5089C428.258 32.0674 427.556 31.8466 426.729 31.8466C425.886 31.8466 425.176 32.0754 424.598 32.5329C424.02 32.9905 423.582 33.6246 423.285 34.4353C422.988 35.2461 422.84 36.1852 422.84 37.2528C422.84 38.3285 422.988 39.2797 423.285 40.1065C423.59 40.9252 424.028 41.5674 424.598 42.0329C425.176 42.4905 425.886 42.7193 426.729 42.7193ZM448.272 46.8612C446.37 46.8612 444.733 46.4759 443.36 45.7053C441.995 44.9267 440.944 43.827 440.205 42.4062C439.467 40.9774 439.098 39.2877 439.098 37.3371C439.098 35.4347 439.467 33.7651 440.205 32.3282C440.944 30.8914 441.983 29.7716 443.324 28.9689C444.672 28.1662 446.254 27.7649 448.068 27.7649C449.288 27.7649 450.424 27.9615 451.475 28.3549C452.535 28.7402 453.458 29.3221 454.245 30.1007C455.039 30.8794 455.657 31.8587 456.099 33.0386C456.54 34.2106 456.761 35.5832 456.761 37.1565V38.5653H441.144V35.3866H451.933C451.933 34.6481 451.772 33.9939 451.451 33.4239C451.13 32.854 450.685 32.4085 450.115 32.0874C449.553 31.7583 448.899 31.5938 448.152 31.5938C447.373 31.5938 446.683 31.7744 446.081 32.1356C445.487 32.4888 445.021 32.9664 444.684 33.5684C444.347 34.1624 444.175 34.8247 444.167 35.5551V38.5773C444.167 39.4924 444.335 40.2831 444.672 40.9493C445.017 41.6155 445.503 42.1293 446.129 42.4905C446.755 42.8517 447.498 43.0323 448.357 43.0323C448.927 43.0323 449.448 42.952 449.922 42.7915C450.396 42.631 450.801 42.3902 451.138 42.0691C451.475 41.748 451.732 41.3547 451.909 40.8891L456.653 41.2021C456.412 42.342 455.918 43.3373 455.172 44.1882C454.433 45.0311 453.478 45.6893 452.306 46.1629C451.142 46.6284 449.798 46.8612 448.272 46.8612ZM460.108 46.5V28.0057H465.081V31.2326H465.274C465.611 30.0847 466.177 29.2178 466.971 28.6318C467.766 28.0378 468.681 27.7408 469.717 27.7408C469.974 27.7408 470.251 27.7568 470.548 27.789C470.845 27.8211 471.105 27.8652 471.33 27.9214V32.4727C471.089 32.4005 470.756 32.3363 470.331 32.2801C469.905 32.2239 469.516 32.1958 469.163 32.1958C468.408 32.1958 467.734 32.3604 467.14 32.6895C466.554 33.0105 466.088 33.4601 465.743 34.038C465.406 34.616 465.238 35.2822 465.238 36.0367V46.5H460.108Z" fill="#0A0A0A"/>
</svg>
