<svg width="1176" height="77" viewBox="0 0 1176 77" fill="none" xmlns="http://www.w3.org/2000/svg">
<rect width="1176" height="77" rx="8.75" fill="#733E0A" fill-opacity="0.2"/>
<path d="M230.562 47L241.482 28.4452L252.402 47H230.562ZM241.482 44.9222C241.895 44.9222 242.247 44.7773 242.537 44.4874C242.832 44.1921 242.98 43.8377 242.98 43.4243C242.98 43.0109 242.832 42.6593 242.537 42.3693C242.247 42.0741 241.895 41.9264 241.482 41.9264C241.068 41.9264 240.714 42.0741 240.419 42.3693C240.129 42.6593 239.984 43.0109 239.984 43.4243C239.984 43.8377 240.129 44.1921 240.419 44.4874C240.714 44.7773 241.068 44.9222 241.482 44.9222ZM240.499 40.1064H242.464L242.609 34.6301H240.354L240.499 40.1064ZM275.215 38.7534C275.215 40.4929 274.901 41.9962 274.273 43.2633C273.645 44.5303 272.783 45.5075 271.688 46.1947C270.593 46.8819 269.342 47.2255 267.935 47.2255C266.528 47.2255 265.277 46.8819 264.182 46.1947C263.087 45.5075 262.225 44.5303 261.597 43.2633C260.969 41.9962 260.655 40.4929 260.655 38.7534C260.655 37.0139 260.969 35.5106 261.597 34.2436C262.225 32.9765 263.087 31.9994 264.182 31.3121C265.277 30.6249 266.528 30.2813 267.935 30.2813C269.342 30.2813 270.593 30.6249 271.688 31.3121C272.783 31.9994 273.645 32.9765 274.273 34.2436C274.901 35.5106 275.215 37.0139 275.215 38.7534ZM273.282 38.7534C273.282 37.3253 273.043 36.12 272.566 35.1375C272.093 34.155 271.452 33.4114 270.641 32.9067C269.836 32.402 268.934 32.1497 267.935 32.1497C266.936 32.1497 266.032 32.402 265.221 32.9067C264.416 33.4114 263.774 34.155 263.296 35.1375C262.824 36.12 262.588 37.3253 262.588 38.7534C262.588 40.1815 262.824 41.3868 263.296 42.3693C263.774 43.3518 264.416 44.0954 265.221 44.6001C266.032 45.1048 266.936 45.3571 267.935 45.3571C268.934 45.3571 269.836 45.1048 270.641 44.6001C271.452 44.0954 272.093 43.3518 272.566 42.3693C273.043 41.3868 273.282 40.1815 273.282 38.7534ZM280.216 39.5587V47H278.316V34.6301H280.152V36.5629H280.313C280.603 35.9347 281.043 35.4301 281.634 35.0489C282.224 34.6623 282.987 34.469 283.921 34.469C284.758 34.469 285.491 34.6409 286.119 34.9845C286.747 35.3227 287.236 35.8381 287.585 36.5307C287.934 37.2179 288.108 38.0877 288.108 39.14V47H286.208V39.2688C286.208 38.2971 285.956 37.54 285.451 36.9978C284.946 36.4502 284.254 36.1763 283.373 36.1763C282.766 36.1763 282.224 36.3079 281.746 36.571C281.274 36.834 280.901 37.2179 280.627 37.7226C280.353 38.2273 280.216 38.8393 280.216 39.5587ZM293.482 30.5068V47H291.581V30.5068H293.482ZM298.187 51.6387C297.865 51.6387 297.578 51.6119 297.326 51.5582C297.073 51.5099 296.899 51.4615 296.802 51.4132L297.285 49.7381C297.747 49.8562 298.155 49.8992 298.509 49.867C298.864 49.8348 299.178 49.6764 299.452 49.3918C299.731 49.1127 299.986 48.659 300.217 48.0308L300.571 47.0644L295.997 34.6301H298.058L301.473 44.4874H301.602L305.016 34.6301H307.078L301.827 48.8039C301.591 49.4428 301.298 49.9717 300.949 50.3904C300.601 50.8146 300.195 51.1287 299.733 51.3327C299.277 51.5367 298.762 51.6387 298.187 51.6387ZM320.636 47.2577C319.605 47.2577 318.695 46.9973 317.906 46.4765C317.117 45.9504 316.499 45.2095 316.053 44.2538C315.608 43.2928 315.385 42.1573 315.385 40.8473C315.385 39.548 315.608 38.4205 316.053 37.4649C316.499 36.5092 317.119 35.771 317.914 35.2502C318.708 34.7294 319.626 34.469 320.668 34.469C321.473 34.469 322.11 34.6033 322.577 34.8717C323.049 35.1348 323.409 35.4354 323.656 35.7737C323.908 36.1066 324.104 36.3804 324.244 36.5951H324.405V30.5068H326.305V47H324.469V45.0994H324.244C324.104 45.3249 323.905 45.6095 323.648 45.9531C323.39 46.2913 323.022 46.5946 322.544 46.8631C322.067 47.1262 321.43 47.2577 320.636 47.2577ZM320.894 45.5504C321.656 45.5504 322.3 45.3518 322.826 44.9545C323.352 44.5518 323.752 43.9961 324.026 43.2874C324.3 42.5734 324.437 41.7492 324.437 40.8151C324.437 39.8916 324.303 39.0836 324.034 38.391C323.766 37.6931 323.369 37.1508 322.842 36.7642C322.316 36.3723 321.667 36.1763 320.894 36.1763C320.088 36.1763 319.417 36.3831 318.88 36.7965C318.349 37.2045 317.949 37.7602 317.68 38.4635C317.417 39.1614 317.286 39.9453 317.286 40.8151C317.286 41.6956 317.42 42.4955 317.688 43.2149C317.962 43.929 318.365 44.4981 318.896 44.9222C319.433 45.341 320.099 45.5504 320.894 45.5504ZM335.075 47.2577C333.959 47.2577 332.979 46.9919 332.136 46.4604C331.298 45.9289 330.643 45.1853 330.171 44.2297C329.704 43.274 329.47 42.1573 329.47 40.8795C329.47 39.591 329.704 38.4662 330.171 37.5051C330.643 36.5441 331.298 35.7978 332.136 35.2663C332.979 34.7348 333.959 34.469 335.075 34.469C336.192 34.469 337.169 34.7348 338.007 35.2663C338.85 35.7978 339.505 36.5441 339.972 37.5051C340.444 38.4662 340.681 39.591 340.681 40.8795C340.681 42.1573 340.444 43.274 339.972 44.2297C339.505 45.1853 338.85 45.9289 338.007 46.4604C337.169 46.9919 336.192 47.2577 335.075 47.2577ZM335.075 45.5504C335.924 45.5504 336.622 45.333 337.169 44.8981C337.717 44.4632 338.122 43.8914 338.385 43.1827C338.648 42.474 338.78 41.7063 338.78 40.8795C338.78 40.0527 338.648 39.2822 338.385 38.5682C338.122 37.8541 337.717 37.277 337.169 36.8367C336.622 36.3965 335.924 36.1763 335.075 36.1763C334.227 36.1763 333.529 36.3965 332.982 36.8367C332.434 37.277 332.029 37.8541 331.765 38.5682C331.502 39.2822 331.371 40.0527 331.371 40.8795C331.371 41.7063 331.502 42.474 331.765 43.1827C332.029 43.8914 332.434 44.4632 332.982 44.8981C333.529 45.333 334.227 45.5504 335.075 45.5504ZM345.963 47L342.195 34.6301H344.192L346.865 44.1008H346.994L349.636 34.6301H351.665L354.275 44.0686H354.403L357.077 34.6301H359.074L355.305 47H353.437L350.731 37.4971H350.538L347.832 47H345.963ZM363.487 39.5587V47H361.587V34.6301H363.423V36.5629H363.584C363.874 35.9347 364.314 35.4301 364.905 35.0489C365.495 34.6623 366.258 34.469 367.192 34.469C368.03 34.469 368.762 34.6409 369.391 34.9845C370.019 35.3227 370.507 35.8381 370.856 36.5307C371.205 37.2179 371.38 38.0877 371.38 39.14V47H369.479V39.2688C369.479 38.2971 369.227 37.54 368.722 36.9978C368.217 36.4502 367.525 36.1763 366.644 36.1763C366.038 36.1763 365.495 36.3079 365.018 36.571C364.545 36.834 364.172 37.2179 363.898 37.7226C363.624 38.2273 363.487 38.8393 363.487 39.5587ZM376.753 30.5068V47H374.853V30.5068H376.753ZM385.26 47.2577C384.143 47.2577 383.163 46.9919 382.32 46.4604C381.483 45.9289 380.828 45.1853 380.355 44.2297C379.888 43.274 379.655 42.1573 379.655 40.8795C379.655 39.591 379.888 38.4662 380.355 37.5051C380.828 36.5441 381.483 35.7978 382.32 35.2663C383.163 34.7348 384.143 34.469 385.26 34.469C386.376 34.469 387.353 34.7348 388.191 35.2663C389.034 35.7978 389.689 36.5441 390.156 37.5051C390.628 38.4662 390.865 39.591 390.865 40.8795C390.865 42.1573 390.628 43.274 390.156 44.2297C389.689 45.1853 389.034 45.9289 388.191 46.4604C387.353 46.9919 386.376 47.2577 385.26 47.2577ZM385.26 45.5504C386.108 45.5504 386.806 45.333 387.353 44.8981C387.901 44.4632 388.306 43.8914 388.57 43.1827C388.833 42.474 388.964 41.7063 388.964 40.8795C388.964 40.0527 388.833 39.2822 388.57 38.5682C388.306 37.8541 387.901 37.277 387.353 36.8367C386.806 36.3965 386.108 36.1763 385.26 36.1763C384.411 36.1763 383.713 36.3965 383.166 36.8367C382.618 37.277 382.213 37.8541 381.95 38.5682C381.687 39.2822 381.555 40.0527 381.555 40.8795C381.555 41.7063 381.687 42.474 381.95 43.1827C382.213 43.8914 382.618 44.4632 383.166 44.8981C383.713 45.333 384.411 45.5504 385.26 45.5504ZM397.406 47.2899C396.622 47.2899 395.911 47.1423 395.272 46.847C394.633 46.5463 394.126 46.1141 393.75 45.5504C393.374 44.9813 393.186 44.2941 393.186 43.4888C393.186 42.7801 393.326 42.2056 393.605 41.7653C393.884 41.3197 394.257 40.9708 394.724 40.7184C395.191 40.4661 395.707 40.2782 396.271 40.1547C396.84 40.0258 397.411 39.9238 397.986 39.8487C398.738 39.752 399.347 39.6795 399.814 39.6312C400.286 39.5775 400.63 39.4889 400.845 39.3655C401.065 39.242 401.175 39.0272 401.175 38.7212V38.6568C401.175 37.8622 400.958 37.2448 400.523 36.8045C400.093 36.3643 399.441 36.1441 398.566 36.1441C397.658 36.1441 396.947 36.3428 396.432 36.7401C395.916 37.1374 395.554 37.5615 395.344 38.0125L393.54 37.3682C393.863 36.6166 394.292 36.0314 394.829 35.6126C395.371 35.1885 395.962 34.8932 396.601 34.7268C397.245 34.5549 397.878 34.469 398.501 34.469C398.899 34.469 399.355 34.5174 399.87 34.614C400.391 34.7053 400.893 34.8959 401.376 35.1858C401.865 35.4757 402.27 35.9133 402.592 36.4985C402.914 37.0837 403.076 37.8675 403.076 38.85V47H401.175V45.3249H401.078C400.949 45.5934 400.735 45.8806 400.434 46.1866C400.133 46.4926 399.733 46.753 399.234 46.9678C398.735 47.1825 398.125 47.2899 397.406 47.2899ZM397.696 45.5826C398.448 45.5826 399.081 45.435 399.597 45.1397C400.117 44.8444 400.509 44.4632 400.772 43.9961C401.041 43.529 401.175 43.0378 401.175 42.5224V40.7828C401.094 40.8795 400.917 40.9681 400.643 41.0486C400.375 41.1238 400.064 41.1909 399.709 41.2499C399.36 41.3036 399.019 41.3519 398.687 41.3949C398.359 41.4325 398.093 41.4647 397.889 41.4915C397.395 41.556 396.934 41.6607 396.504 41.8056C396.08 41.9452 395.736 42.1573 395.473 42.4418C395.216 42.721 395.087 43.1022 395.087 43.5854C395.087 44.2458 395.331 44.7451 395.82 45.0833C396.313 45.4162 396.939 45.5826 397.696 45.5826ZM411.215 47.2577C410.185 47.2577 409.275 46.9973 408.485 46.4765C407.696 45.9504 407.079 45.2095 406.633 44.2538C406.187 43.2928 405.965 42.1573 405.965 40.8473C405.965 39.548 406.187 38.4205 406.633 37.4649C407.079 36.5092 407.699 35.771 408.493 35.2502C409.288 34.7294 410.206 34.469 411.248 34.469C412.053 34.469 412.689 34.6033 413.156 34.8717C413.629 35.1348 413.988 35.4354 414.235 35.7737C414.488 36.1066 414.684 36.3804 414.823 36.5951H414.984V30.5068H416.885V47H415.049V45.0994H414.823C414.684 45.3249 414.485 45.6095 414.227 45.9531C413.97 46.2913 413.602 46.5946 413.124 46.8631C412.646 47.1262 412.01 47.2577 411.215 47.2577ZM411.473 45.5504C412.236 45.5504 412.88 45.3518 413.406 44.9545C413.932 44.5518 414.332 43.9961 414.606 43.2874C414.88 42.5734 415.017 41.7492 415.017 40.8151C415.017 39.8916 414.882 39.0836 414.614 38.391C414.345 37.6931 413.948 37.1508 413.422 36.7642C412.896 36.3723 412.246 36.1763 411.473 36.1763C410.668 36.1763 409.997 36.3831 409.46 36.7965C408.928 37.2045 408.528 37.7602 408.26 38.4635C407.997 39.1614 407.865 39.9453 407.865 40.8151C407.865 41.6956 407.999 42.4955 408.268 43.2149C408.542 43.929 408.944 44.4981 409.476 44.9222C410.013 45.341 410.679 45.5504 411.473 45.5504ZM437.123 34.6301L432.549 47H430.616L426.042 34.6301H428.103L431.518 44.4874H431.647L435.061 34.6301H437.123ZM439.632 47V34.6301H441.532V47H439.632ZM440.598 32.5685C440.227 32.5685 439.908 32.4423 439.64 32.19C439.377 31.9376 439.245 31.6343 439.245 31.2799C439.245 30.9256 439.377 30.6222 439.64 30.3699C439.908 30.1176 440.227 29.9914 440.598 29.9914C440.968 29.9914 441.285 30.1176 441.548 30.3699C441.817 30.6222 441.951 30.9256 441.951 31.2799C441.951 31.6343 441.817 31.9376 441.548 32.19C441.285 32.4423 440.968 32.5685 440.598 32.5685ZM449.684 47.2577C448.653 47.2577 447.743 46.9973 446.954 46.4765C446.165 45.9504 445.547 45.2095 445.102 44.2538C444.656 43.2928 444.433 42.1573 444.433 40.8473C444.433 39.548 444.656 38.4205 445.102 37.4649C445.547 36.5092 446.167 35.771 446.962 35.2502C447.757 34.7294 448.675 34.469 449.716 34.469C450.522 34.469 451.158 34.6033 451.625 34.8717C452.097 35.1348 452.457 35.4354 452.704 35.7737C452.956 36.1066 453.152 36.3804 453.292 36.5951H453.453V30.5068H455.354V47H453.517V45.0994H453.292C453.152 45.3249 452.954 45.6095 452.696 45.9531C452.438 46.2913 452.071 46.5946 451.593 46.8631C451.115 47.1262 450.479 47.2577 449.684 47.2577ZM449.942 45.5504C450.704 45.5504 451.348 45.3518 451.875 44.9545C452.401 44.5518 452.801 43.9961 453.075 43.2874C453.348 42.5734 453.485 41.7492 453.485 40.8151C453.485 39.8916 453.351 39.0836 453.083 38.391C452.814 37.6931 452.417 37.1508 451.891 36.7642C451.365 36.3723 450.715 36.1763 449.942 36.1763C449.136 36.1763 448.465 36.3831 447.928 36.7965C447.397 37.2045 446.997 37.7602 446.729 38.4635C446.465 39.1614 446.334 39.9453 446.334 40.8151C446.334 41.6956 446.468 42.4955 446.737 43.2149C447.01 43.929 447.413 44.4981 447.945 44.9222C448.481 45.341 449.147 45.5504 449.942 45.5504ZM464.285 47.2577C463.093 47.2577 462.065 46.9946 461.2 46.4685C460.341 45.937 459.678 45.1961 459.211 44.2458C458.749 43.2901 458.519 42.1788 458.519 40.9117C458.519 39.6446 458.749 38.5279 459.211 37.5615C459.678 36.5898 460.328 35.8327 461.16 35.2905C461.998 34.7429 462.975 34.469 464.091 34.469C464.736 34.469 465.372 34.5764 466 34.7912C466.628 35.0059 467.2 35.3549 467.715 35.8381C468.231 36.3159 468.642 36.9495 468.948 37.7387C469.254 38.5279 469.407 39.4997 469.407 40.654V41.4593H459.872V39.8164H467.474C467.474 39.1185 467.334 38.4957 467.055 37.9481C466.781 37.4005 466.389 36.9683 465.879 36.6515C465.375 36.3347 464.779 36.1763 464.091 36.1763C463.334 36.1763 462.679 36.3643 462.126 36.7401C461.579 37.1105 461.157 37.5937 460.862 38.1897C460.567 38.7856 460.419 39.4245 460.419 40.1064V41.2016C460.419 42.1358 460.58 42.9277 460.902 43.5773C461.23 44.2216 461.684 44.7129 462.263 45.0511C462.843 45.384 463.517 45.5504 464.285 45.5504C464.784 45.5504 465.235 45.4806 465.638 45.341C466.046 45.1961 466.397 44.9813 466.693 44.6968C466.988 44.4068 467.216 44.0471 467.377 43.6176L469.213 44.133C469.02 44.7558 468.695 45.3034 468.239 45.7759C467.783 46.243 467.219 46.6081 466.548 46.8711C465.877 47.1289 465.122 47.2577 464.285 47.2577ZM477.323 47.2577C476.206 47.2577 475.227 46.9919 474.384 46.4604C473.546 45.9289 472.891 45.1853 472.419 44.2297C471.951 43.274 471.718 42.1573 471.718 40.8795C471.718 39.591 471.951 38.4662 472.419 37.5051C472.891 36.5441 473.546 35.7978 474.384 35.2663C475.227 34.7348 476.206 34.469 477.323 34.469C478.44 34.469 479.417 34.7348 480.254 35.2663C481.097 35.7978 481.752 36.5441 482.219 37.5051C482.692 38.4662 482.928 39.591 482.928 40.8795C482.928 42.1573 482.692 43.274 482.219 44.2297C481.752 45.1853 481.097 45.9289 480.254 46.4604C479.417 46.9919 478.44 47.2577 477.323 47.2577ZM477.323 45.5504C478.171 45.5504 478.869 45.333 479.417 44.8981C479.965 44.4632 480.37 43.8914 480.633 43.1827C480.896 42.474 481.028 41.7063 481.028 40.8795C481.028 40.0527 480.896 39.2822 480.633 38.5682C480.37 37.8541 479.965 37.277 479.417 36.8367C478.869 36.3965 478.171 36.1763 477.323 36.1763C476.475 36.1763 475.777 36.3965 475.229 36.8367C474.682 37.277 474.276 37.8541 474.013 38.5682C473.75 39.2822 473.619 40.0527 473.619 40.8795C473.619 41.7063 473.75 42.474 474.013 43.1827C474.276 43.8914 474.682 44.4632 475.229 44.8981C475.777 45.333 476.475 45.5504 477.323 45.5504ZM494.591 37.4005L492.884 37.8837C492.777 37.5991 492.618 37.3226 492.409 37.0542C492.205 36.7803 491.926 36.5549 491.571 36.3777C491.217 36.2005 490.763 36.1119 490.21 36.1119C489.453 36.1119 488.823 36.2864 488.318 36.6354C487.819 36.979 487.569 37.4166 487.569 37.9481C487.569 38.4205 487.741 38.7937 488.084 39.0675C488.428 39.3413 488.965 39.5695 489.695 39.752L491.531 40.203C492.637 40.4714 493.461 40.8822 494.003 41.4352C494.546 41.9828 494.817 42.6888 494.817 43.5532C494.817 44.2619 494.613 44.8954 494.205 45.4538C493.802 46.0121 493.238 46.4524 492.514 46.7745C491.789 47.0966 490.946 47.2577 489.985 47.2577C488.723 47.2577 487.679 46.9839 486.852 46.4363C486.025 45.8886 485.502 45.0887 485.282 44.0364L487.086 43.5854C487.257 44.2511 487.582 44.7504 488.06 45.0833C488.543 45.4162 489.174 45.5826 489.953 45.5826C490.839 45.5826 491.542 45.3947 492.063 45.0189C492.589 44.6377 492.852 44.1813 492.852 43.6498C492.852 43.2203 492.702 42.8606 492.401 42.5707C492.1 42.2754 491.638 42.0553 491.016 41.9103L488.954 41.4271C487.821 41.1587 486.989 40.7426 486.458 40.1788C485.931 39.6097 485.668 38.8984 485.668 38.0447C485.668 37.3468 485.864 36.7293 486.256 36.1925C486.653 35.6556 487.193 35.2341 487.875 34.9281C488.562 34.6221 489.341 34.469 490.21 34.469C491.434 34.469 492.396 34.7375 493.093 35.2744C493.797 35.8113 494.296 36.52 494.591 37.4005ZM505.28 51.6387C504.958 51.6387 504.671 51.6119 504.418 51.5582C504.166 51.5099 503.992 51.4615 503.895 51.4132L504.378 49.7381C504.84 49.8562 505.248 49.8992 505.602 49.867C505.957 49.8348 506.271 49.6764 506.545 49.3918C506.824 49.1127 507.079 48.659 507.31 48.0308L507.664 47.0644L503.09 34.6301H505.151L508.566 44.4874H508.695L512.109 34.6301H514.171L508.92 48.8039C508.684 49.4428 508.391 49.9717 508.042 50.3904C507.693 50.8146 507.288 51.1287 506.826 51.3327C506.37 51.5367 505.855 51.6387 505.28 51.6387ZM521.262 47.2577C520.145 47.2577 519.165 46.9919 518.322 46.4604C517.485 45.9289 516.83 45.1853 516.357 44.2297C515.89 43.274 515.657 42.1573 515.657 40.8795C515.657 39.591 515.89 38.4662 516.357 37.5051C516.83 36.5441 517.485 35.7978 518.322 35.2663C519.165 34.7348 520.145 34.469 521.262 34.469C522.379 34.469 523.356 34.7348 524.193 35.2663C525.036 35.7978 525.691 36.5441 526.158 37.5051C526.631 38.4662 526.867 39.591 526.867 40.8795C526.867 42.1573 526.631 43.274 526.158 44.2297C525.691 45.1853 525.036 45.9289 524.193 46.4604C523.356 46.9919 522.379 47.2577 521.262 47.2577ZM521.262 45.5504C522.11 45.5504 522.808 45.333 523.356 44.8981C523.903 44.4632 524.309 43.8914 524.572 43.1827C524.835 42.474 524.966 41.7063 524.966 40.8795C524.966 40.0527 524.835 39.2822 524.572 38.5682C524.309 37.8541 523.903 37.277 523.356 36.8367C522.808 36.3965 522.11 36.1763 521.262 36.1763C520.414 36.1763 519.716 36.3965 519.168 36.8367C518.62 37.277 518.215 37.8541 517.952 38.5682C517.689 39.2822 517.557 40.0527 517.557 40.8795C517.557 41.7063 517.689 42.474 517.952 43.1827C518.215 43.8914 518.62 44.4632 519.168 44.8981C519.716 45.333 520.414 45.5504 521.262 45.5504ZM537.564 41.9425V34.6301H539.464V47H537.564V44.9061H537.435C537.145 45.5343 536.694 46.0685 536.082 46.5087C535.47 46.9436 534.697 47.1611 533.763 47.1611C532.99 47.1611 532.302 46.9919 531.701 46.6537C531.1 46.3101 530.627 45.7947 530.284 45.1075C529.94 44.4149 529.768 43.5424 529.768 42.4901V34.6301H531.669V42.3613C531.669 43.2633 531.921 43.9827 532.426 44.5196C532.936 45.0565 533.586 45.3249 534.375 45.3249C534.847 45.3249 535.328 45.2041 535.816 44.9625C536.31 44.7209 536.724 44.3505 537.056 43.8512C537.395 43.3518 537.564 42.7156 537.564 41.9425ZM554.349 47.2577C553.232 47.2577 552.252 46.9919 551.41 46.4604C550.572 45.9289 549.917 45.1853 549.444 44.2297C548.977 43.274 548.744 42.1573 548.744 40.8795C548.744 39.591 548.977 38.4662 549.444 37.5051C549.917 36.5441 550.572 35.7978 551.41 35.2663C552.252 34.7348 553.232 34.469 554.349 34.469C555.466 34.469 556.443 34.7348 557.28 35.2663C558.123 35.7978 558.778 36.5441 559.245 37.5051C559.718 38.4662 559.954 39.591 559.954 40.8795C559.954 42.1573 559.718 43.274 559.245 44.2297C558.778 45.1853 558.123 45.9289 557.28 46.4604C556.443 46.9919 555.466 47.2577 554.349 47.2577ZM554.349 45.5504C555.197 45.5504 555.895 45.333 556.443 44.8981C556.99 44.4632 557.396 43.8914 557.659 43.1827C557.922 42.474 558.053 41.7063 558.053 40.8795C558.053 40.0527 557.922 39.2822 557.659 38.5682C557.396 37.8541 556.99 37.277 556.443 36.8367C555.895 36.3965 555.197 36.1763 554.349 36.1763C553.501 36.1763 552.803 36.3965 552.255 36.8367C551.707 37.277 551.302 37.8541 551.039 38.5682C550.776 39.2822 550.644 40.0527 550.644 40.8795C550.644 41.7063 550.776 42.474 551.039 43.1827C551.302 43.8914 551.707 44.4632 552.255 44.8981C552.803 45.333 553.501 45.5504 554.349 45.5504ZM565.237 47L561.468 34.6301H563.465L566.139 44.1008H566.268L568.909 34.6301H570.939L573.548 44.0686H573.677L576.351 34.6301H578.348L574.579 47H572.711L570.005 37.4971H569.811L567.105 47H565.237ZM582.761 39.5587V47H580.86V34.6301H582.697V36.5629H582.858C583.148 35.9347 583.588 35.4301 584.178 35.0489C584.769 34.6623 585.531 34.469 586.466 34.469C587.303 34.469 588.036 34.6409 588.664 34.9845C589.292 35.3227 589.781 35.8381 590.13 36.5307C590.479 37.2179 590.653 38.0877 590.653 39.14V47H588.753V39.2688C588.753 38.2971 588.5 37.54 587.996 36.9978C587.491 36.4502 586.798 36.1763 585.918 36.1763C585.311 36.1763 584.769 36.3079 584.291 36.571C583.819 36.834 583.446 37.2179 583.172 37.7226C582.898 38.2273 582.761 38.8393 582.761 39.5587ZM605.53 47.2577C604.413 47.2577 603.433 46.9919 602.59 46.4604C601.753 45.9289 601.098 45.1853 600.625 44.2297C600.158 43.274 599.925 42.1573 599.925 40.8795C599.925 39.591 600.158 38.4662 600.625 37.5051C601.098 36.5441 601.753 35.7978 602.59 35.2663C603.433 34.7348 604.413 34.469 605.53 34.469C606.647 34.469 607.624 34.7348 608.461 35.2663C609.304 35.7978 609.959 36.5441 610.426 37.5051C610.899 38.4662 611.135 39.591 611.135 40.8795C611.135 42.1573 610.899 43.274 610.426 44.2297C609.959 45.1853 609.304 45.9289 608.461 46.4604C607.624 46.9919 606.647 47.2577 605.53 47.2577ZM605.53 45.5504C606.378 45.5504 607.076 45.333 607.624 44.8981C608.171 44.4632 608.577 43.8914 608.84 43.1827C609.103 42.474 609.234 41.7063 609.234 40.8795C609.234 40.0527 609.103 39.2822 608.84 38.5682C608.577 37.8541 608.171 37.277 607.624 36.8367C607.076 36.3965 606.378 36.1763 605.53 36.1763C604.681 36.1763 603.984 36.3965 603.436 36.8367C602.888 37.277 602.483 37.8541 602.22 38.5682C601.957 39.2822 601.825 40.0527 601.825 40.8795C601.825 41.7063 601.957 42.474 602.22 43.1827C602.483 43.8914 602.888 44.4632 603.436 44.8981C603.984 45.333 604.681 45.5504 605.53 45.5504ZM614.036 47V34.6301H615.872V36.4985H616.001C616.227 35.8864 616.635 35.3898 617.225 35.0086C617.816 34.6274 618.481 34.4368 619.222 34.4368C619.362 34.4368 619.536 34.4395 619.746 34.4449C619.955 34.4503 620.114 34.4583 620.221 34.469V36.4018C620.157 36.3857 620.009 36.3616 619.778 36.3294C619.553 36.2918 619.314 36.273 619.061 36.273C618.46 36.273 617.923 36.3992 617.451 36.6515C616.984 36.8985 616.613 37.2421 616.339 37.6823C616.071 38.1172 615.937 38.6138 615.937 39.1722V47H614.036ZM630.753 39.5587V47H628.852V30.5068H630.753V36.5629H630.914C631.204 35.924 631.639 35.4167 632.218 35.0408C632.804 34.6596 633.582 34.469 634.554 34.469C635.397 34.469 636.135 34.6382 636.769 34.9764C637.402 35.3093 637.893 35.822 638.242 36.5146C638.597 37.2018 638.774 38.0769 638.774 39.14V47H636.873V39.2688C636.873 38.2863 636.618 37.5266 636.108 36.9897C635.604 36.4475 634.903 36.1763 634.006 36.1763C633.384 36.1763 632.825 36.3079 632.331 36.571C631.843 36.834 631.456 37.2179 631.172 37.7226C630.892 38.2273 630.753 38.8393 630.753 39.5587ZM645.891 47.2899C645.107 47.2899 644.396 47.1423 643.757 46.847C643.118 46.5463 642.611 46.1141 642.235 45.5504C641.859 44.9813 641.671 44.2941 641.671 43.4888C641.671 42.7801 641.811 42.2056 642.09 41.7653C642.369 41.3197 642.742 40.9708 643.209 40.7184C643.676 40.4661 644.192 40.2782 644.755 40.1547C645.325 40.0258 645.896 39.9238 646.471 39.8487C647.222 39.752 647.832 39.6795 648.299 39.6312C648.771 39.5775 649.115 39.4889 649.33 39.3655C649.55 39.242 649.66 39.0272 649.66 38.7212V38.6568C649.66 37.8622 649.442 37.2448 649.008 36.8045C648.578 36.3643 647.926 36.1441 647.051 36.1441C646.143 36.1441 645.432 36.3428 644.916 36.7401C644.401 37.1374 644.039 37.5615 643.829 38.0125L642.025 37.3682C642.347 36.6166 642.777 36.0314 643.314 35.6126C643.856 35.1885 644.447 34.8932 645.086 34.7268C645.73 34.5549 646.363 34.469 646.986 34.469C647.383 34.469 647.84 34.5174 648.355 34.614C648.876 34.7053 649.378 34.8959 649.861 35.1858C650.35 35.4757 650.755 35.9133 651.077 36.4985C651.399 37.0837 651.56 37.8675 651.56 38.85V47H649.66V45.3249H649.563C649.434 45.5934 649.22 45.8806 648.919 46.1866C648.618 46.4926 648.218 46.753 647.719 46.9678C647.22 47.1825 646.61 47.2899 645.891 47.2899ZM646.181 45.5826C646.933 45.5826 647.566 45.435 648.081 45.1397C648.602 44.8444 648.994 44.4632 649.257 43.9961C649.526 43.529 649.66 43.0378 649.66 42.5224V40.7828C649.579 40.8795 649.402 40.9681 649.128 41.0486C648.86 41.1238 648.549 41.1909 648.194 41.2499C647.845 41.3036 647.504 41.3519 647.171 41.3949C646.844 41.4325 646.578 41.4647 646.374 41.4915C645.88 41.556 645.418 41.6607 644.989 41.8056C644.565 41.9452 644.221 42.1573 643.958 42.4418C643.7 42.721 643.572 43.1022 643.572 43.5854C643.572 44.2458 643.816 44.7451 644.304 45.0833C644.798 45.4162 645.424 45.5826 646.181 45.5826ZM664.701 34.6301L660.127 47H658.194L653.62 34.6301H655.682L659.096 44.4874H659.225L662.64 34.6301H664.701ZM671.953 47.2577C670.762 47.2577 669.733 46.9946 668.869 46.4685C668.01 45.937 667.347 45.1961 666.88 44.2458C666.418 43.2901 666.187 42.1788 666.187 40.9117C666.187 39.6446 666.418 38.5279 666.88 37.5615C667.347 36.5898 667.997 35.8327 668.829 35.2905C669.666 34.7429 670.643 34.469 671.76 34.469C672.404 34.469 673.041 34.5764 673.669 34.7912C674.297 35.0059 674.869 35.3549 675.384 35.8381C675.9 36.3159 676.31 36.9495 676.616 37.7387C676.922 38.5279 677.075 39.4997 677.075 40.654V41.4593H667.54V39.8164H675.143C675.143 39.1185 675.003 38.4957 674.724 37.9481C674.45 37.4005 674.058 36.9683 673.548 36.6515C673.043 36.3347 672.447 36.1763 671.76 36.1763C671.003 36.1763 670.348 36.3643 669.795 36.7401C669.248 37.1105 668.826 37.5937 668.531 38.1897C668.236 38.7856 668.088 39.4245 668.088 40.1064V41.2016C668.088 42.1358 668.249 42.9277 668.571 43.5773C668.899 44.2216 669.352 44.7129 669.932 45.0511C670.512 45.384 671.186 45.5504 671.953 45.5504C672.453 45.5504 672.904 45.4806 673.306 45.341C673.714 45.1961 674.066 44.9813 674.361 44.6968C674.657 44.4068 674.885 44.0471 675.046 43.6176L676.882 44.133C676.689 44.7558 676.364 45.3034 675.908 45.7759C675.451 46.243 674.888 46.6081 674.216 46.8711C673.545 47.1289 672.791 47.2577 671.953 47.2577ZM686.345 51.6387V34.6301H688.181V36.5951H688.406C688.546 36.3804 688.739 36.1066 688.986 35.7737C689.239 35.4354 689.598 35.1348 690.065 34.8717C690.538 34.6033 691.177 34.469 691.982 34.469C693.024 34.469 693.942 34.7294 694.736 35.2502C695.531 35.771 696.151 36.5092 696.597 37.4649C697.042 38.4205 697.265 39.548 697.265 40.8473C697.265 42.1573 697.042 43.2928 696.597 44.2538C696.151 45.2095 695.534 45.9504 694.744 46.4765C693.955 46.9973 693.045 47.2577 692.014 47.2577C691.22 47.2577 690.583 47.1262 690.106 46.8631C689.628 46.5946 689.26 46.2913 689.002 45.9531C688.745 45.6095 688.546 45.3249 688.406 45.0994H688.245V51.6387H686.345ZM688.213 40.8151C688.213 41.7492 688.35 42.5734 688.624 43.2874C688.898 43.9961 689.298 44.5518 689.824 44.9545C690.35 45.3518 690.994 45.5504 691.757 45.5504C692.551 45.5504 693.214 45.341 693.746 44.9222C694.283 44.4981 694.685 43.929 694.954 43.2149C695.228 42.4955 695.364 41.6956 695.364 40.8151C695.364 39.9453 695.23 39.1614 694.962 38.4635C694.699 37.7602 694.299 37.2045 693.762 36.7965C693.23 36.3831 692.562 36.1763 691.757 36.1763C690.983 36.1763 690.334 36.3723 689.808 36.7642C689.282 37.1508 688.884 37.6931 688.616 38.391C688.347 39.0836 688.213 39.8916 688.213 40.8151ZM705.351 47.2577C704.159 47.2577 703.131 46.9946 702.266 46.4685C701.407 45.937 700.744 45.1961 700.277 44.2458C699.815 43.2901 699.584 42.1788 699.584 40.9117C699.584 39.6446 699.815 38.5279 700.277 37.5615C700.744 36.5898 701.394 35.8327 702.226 35.2905C703.063 34.7429 704.041 34.469 705.157 34.469C705.802 34.469 706.438 34.5764 707.066 34.7912C707.694 35.0059 708.266 35.3549 708.781 35.8381C709.297 36.3159 709.707 36.9495 710.013 37.7387C710.319 38.5279 710.472 39.4997 710.472 40.654V41.4593H700.937V39.8164H708.54C708.54 39.1185 708.4 38.4957 708.121 37.9481C707.847 37.4005 707.455 36.9683 706.945 36.6515C706.44 36.3347 705.845 36.1763 705.157 36.1763C704.4 36.1763 703.745 36.3643 703.192 36.7401C702.645 37.1105 702.223 37.5937 701.928 38.1897C701.633 38.7856 701.485 39.4245 701.485 40.1064V41.2016C701.485 42.1358 701.646 42.9277 701.968 43.5773C702.296 44.2216 702.749 44.7129 703.329 45.0511C703.909 45.384 704.583 45.5504 705.351 45.5504C705.85 45.5504 706.301 45.4806 706.704 45.341C707.112 45.1961 707.463 44.9813 707.759 44.6968C708.054 44.4068 708.282 44.0471 708.443 43.6176L710.279 44.133C710.086 44.7558 709.761 45.3034 709.305 45.7759C708.848 46.243 708.285 46.6081 707.614 46.8711C706.942 47.1289 706.188 47.2577 705.351 47.2577ZM713.364 47V34.6301H715.2V36.4985H715.329C715.554 35.8864 715.962 35.3898 716.553 35.0086C717.143 34.6274 717.809 34.4368 718.55 34.4368C718.69 34.4368 718.864 34.4395 719.073 34.4449C719.283 34.4503 719.441 34.4583 719.549 34.469V36.4018C719.484 36.3857 719.336 36.3616 719.106 36.3294C718.88 36.2918 718.641 36.273 718.389 36.273C717.788 36.273 717.251 36.3992 716.778 36.6515C716.311 36.8985 715.941 37.2421 715.667 37.6823C715.398 38.1172 715.264 38.6138 715.264 39.1722V47H713.364ZM721.801 47V34.6301H723.638V36.5629H723.799C724.056 35.9025 724.472 35.3898 725.047 35.0247C725.621 34.6543 726.311 34.469 727.117 34.469C727.933 34.469 728.612 34.6543 729.154 35.0247C729.702 35.3898 730.129 35.9025 730.435 36.5629H730.563C730.88 35.924 731.355 35.4167 731.989 35.0408C732.622 34.6596 733.382 34.469 734.268 34.469C735.374 34.469 736.279 34.8153 736.982 35.5079C737.685 36.1951 738.037 37.2662 738.037 38.7212V47H736.136V38.7212C736.136 37.8085 735.887 37.1562 735.387 36.7642C734.888 36.3723 734.3 36.1763 733.624 36.1763C732.754 36.1763 732.08 36.4394 731.602 36.9656C731.125 37.4864 730.886 38.1467 730.886 38.9467V47H728.953V38.5279C728.953 37.8246 728.725 37.2582 728.268 36.8287C727.812 36.3938 727.224 36.1763 726.505 36.1763C726.011 36.1763 725.549 36.3079 725.119 36.571C724.695 36.834 724.352 37.1991 724.089 37.6662C723.831 38.1279 723.702 38.6621 723.702 39.2688V47H721.801ZM741.512 47V34.6301H743.413V47H741.512ZM742.478 32.5685C742.108 32.5685 741.788 32.4423 741.52 32.19C741.257 31.9376 741.125 31.6343 741.125 31.2799C741.125 30.9256 741.257 30.6222 741.52 30.3699C741.788 30.1176 742.108 29.9914 742.478 29.9914C742.849 29.9914 743.166 30.1176 743.429 30.3699C743.697 30.6222 743.831 30.9256 743.831 31.2799C743.831 31.6343 743.697 31.9376 743.429 32.19C743.166 32.4423 742.849 32.5685 742.478 32.5685ZM755.656 37.4005L753.948 37.8837C753.841 37.5991 753.682 37.3226 753.473 37.0542C753.269 36.7803 752.99 36.5549 752.636 36.3777C752.281 36.2005 751.828 36.1119 751.275 36.1119C750.518 36.1119 749.887 36.2864 749.382 36.6354C748.883 36.979 748.633 37.4166 748.633 37.9481C748.633 38.4205 748.805 38.7937 749.148 39.0675C749.492 39.3413 750.029 39.5695 750.759 39.752L752.595 40.203C753.701 40.4714 754.525 40.8822 755.068 41.4352C755.61 41.9828 755.881 42.6888 755.881 43.5532C755.881 44.2619 755.677 44.8954 755.269 45.4538C754.866 46.0121 754.303 46.4524 753.578 46.7745C752.853 47.0966 752.01 47.2577 751.049 47.2577C749.787 47.2577 748.743 46.9839 747.916 46.4363C747.09 45.8886 746.566 45.0887 746.346 44.0364L748.15 43.5854C748.322 44.2511 748.646 44.7504 749.124 45.0833C749.608 45.4162 750.238 45.5826 751.017 45.5826C751.903 45.5826 752.606 45.3947 753.127 45.0189C753.653 44.6377 753.916 44.1813 753.916 43.6498C753.916 43.2203 753.766 42.8606 753.465 42.5707C753.164 42.2754 752.703 42.0553 752.08 41.9103L750.018 41.4271C748.885 41.1587 748.053 40.7426 747.522 40.1788C746.996 39.6097 746.732 38.8984 746.732 38.0447C746.732 37.3468 746.928 36.7293 747.32 36.1925C747.718 35.6556 748.257 35.2341 748.939 34.9281C749.626 34.6221 750.405 34.469 751.275 34.469C752.499 34.469 753.46 34.7375 754.158 35.2744C754.861 35.8113 755.36 36.52 755.656 37.4005ZM767.504 37.4005L765.797 37.8837C765.689 37.5991 765.531 37.3226 765.322 37.0542C765.118 36.7803 764.838 36.5549 764.484 36.3777C764.13 36.2005 763.676 36.1119 763.123 36.1119C762.366 36.1119 761.735 36.2864 761.23 36.6354C760.731 36.979 760.482 37.4166 760.482 37.9481C760.482 38.4205 760.653 38.7937 760.997 39.0675C761.341 39.3413 761.877 39.5695 762.608 39.752L764.444 40.203C765.55 40.4714 766.374 40.8822 766.916 41.4352C767.458 41.9828 767.729 42.6888 767.729 43.5532C767.729 44.2619 767.525 44.8954 767.117 45.4538C766.715 46.0121 766.151 46.4524 765.426 46.7745C764.701 47.0966 763.859 47.2577 762.898 47.2577C761.636 47.2577 760.592 46.9839 759.765 46.4363C758.938 45.8886 758.415 45.0887 758.194 44.0364L759.998 43.5854C760.17 44.2511 760.495 44.7504 760.973 45.0833C761.456 45.4162 762.087 45.5826 762.865 45.5826C763.751 45.5826 764.454 45.3947 764.975 45.0189C765.501 44.6377 765.764 44.1813 765.764 43.6498C765.764 43.2203 765.614 42.8606 765.314 42.5707C765.013 42.2754 764.551 42.0553 763.928 41.9103L761.867 41.4271C760.734 41.1587 759.902 40.7426 759.37 40.1788C758.844 39.6097 758.581 38.8984 758.581 38.0447C758.581 37.3468 758.777 36.7293 759.169 36.1925C759.566 35.6556 760.106 35.2341 760.788 34.9281C761.475 34.6221 762.253 34.469 763.123 34.469C764.347 34.469 765.308 34.7375 766.006 35.2744C766.709 35.8113 767.209 36.52 767.504 37.4005ZM770.59 47V34.6301H772.491V47H770.59ZM771.557 32.5685C771.186 32.5685 770.867 32.4423 770.599 32.19C770.335 31.9376 770.204 31.6343 770.204 31.2799C770.204 30.9256 770.335 30.6222 770.599 30.3699C770.867 30.1176 771.186 29.9914 771.557 29.9914C771.927 29.9914 772.244 30.1176 772.507 30.3699C772.776 30.6222 772.91 30.9256 772.91 31.2799C772.91 31.6343 772.776 31.9376 772.507 32.19C772.244 32.4423 771.927 32.5685 771.557 32.5685ZM780.997 47.2577C779.881 47.2577 778.901 46.9919 778.058 46.4604C777.22 45.9289 776.565 45.1853 776.093 44.2297C775.626 43.274 775.392 42.1573 775.392 40.8795C775.392 39.591 775.626 38.4662 776.093 37.5051C776.565 36.5441 777.22 35.7978 778.058 35.2663C778.901 34.7348 779.881 34.469 780.997 34.469C782.114 34.469 783.091 34.7348 783.929 35.2663C784.772 35.7978 785.427 36.5441 785.894 37.5051C786.366 38.4662 786.602 39.591 786.602 40.8795C786.602 42.1573 786.366 43.274 785.894 44.2297C785.427 45.1853 784.772 45.9289 783.929 46.4604C783.091 46.9919 782.114 47.2577 780.997 47.2577ZM780.997 45.5504C781.846 45.5504 782.544 45.333 783.091 44.8981C783.639 44.4632 784.044 43.8914 784.307 43.1827C784.57 42.474 784.702 41.7063 784.702 40.8795C784.702 40.0527 784.57 39.2822 784.307 38.5682C784.044 37.8541 783.639 37.277 783.091 36.8367C782.544 36.3965 781.846 36.1763 780.997 36.1763C780.149 36.1763 779.451 36.3965 778.903 36.8367C778.356 37.277 777.95 37.8541 777.687 38.5682C777.424 39.2822 777.293 40.0527 777.293 40.8795C777.293 41.7063 777.424 42.474 777.687 43.1827C777.95 43.8914 778.356 44.4632 778.903 44.8981C779.451 45.333 780.149 45.5504 780.997 45.5504ZM791.404 39.5587V47H789.504V34.6301H791.34V36.5629H791.501C791.791 35.9347 792.231 35.4301 792.822 35.0489C793.412 34.6623 794.175 34.469 795.109 34.469C795.946 34.469 796.679 34.6409 797.307 34.9845C797.935 35.3227 798.424 35.8381 798.773 36.5307C799.122 37.2179 799.296 38.0877 799.296 39.14V47H797.396V39.2688C797.396 38.2971 797.144 37.54 796.639 36.9978C796.134 36.4502 795.442 36.1763 794.561 36.1763C793.954 36.1763 793.412 36.3079 792.934 36.571C792.462 36.834 792.089 37.2179 791.815 37.7226C791.541 38.2273 791.404 38.8393 791.404 39.5587ZM814.527 34.6301V36.2408H808.117V34.6301H814.527ZM809.985 31.6665H811.886V43.4565C811.886 43.9934 811.964 44.3961 812.119 44.6645C812.28 44.9276 812.484 45.1048 812.731 45.1961C812.984 45.282 813.25 45.3249 813.529 45.3249C813.738 45.3249 813.91 45.3142 814.044 45.2927C814.178 45.2659 814.286 45.2444 814.366 45.2283L814.753 46.9356C814.624 46.9839 814.444 47.0322 814.213 47.0805C813.982 47.1342 813.69 47.1611 813.335 47.1611C812.799 47.1611 812.272 47.0456 811.757 46.8148C811.247 46.5839 810.823 46.2323 810.485 45.7598C810.152 45.2873 809.985 44.6914 809.985 43.972V31.6665ZM822.279 47.2577C821.162 47.2577 820.182 46.9919 819.339 46.4604C818.502 45.9289 817.847 45.1853 817.374 44.2297C816.907 43.274 816.674 42.1573 816.674 40.8795C816.674 39.591 816.907 38.4662 817.374 37.5051C817.847 36.5441 818.502 35.7978 819.339 35.2663C820.182 34.7348 821.162 34.469 822.279 34.469C823.395 34.469 824.372 34.7348 825.21 35.2663C826.053 35.7978 826.708 36.5441 827.175 37.5051C827.647 38.4662 827.884 39.591 827.884 40.8795C827.884 42.1573 827.647 43.274 827.175 44.2297C826.708 45.1853 826.053 45.9289 825.21 46.4604C824.372 46.9919 823.395 47.2577 822.279 47.2577ZM822.279 45.5504C823.127 45.5504 823.825 45.333 824.372 44.8981C824.92 44.4632 825.325 43.8914 825.589 43.1827C825.852 42.474 825.983 41.7063 825.983 40.8795C825.983 40.0527 825.852 39.2822 825.589 38.5682C825.325 37.8541 824.92 37.277 824.372 36.8367C823.825 36.3965 823.127 36.1763 822.279 36.1763C821.43 36.1763 820.732 36.3965 820.185 36.8367C819.637 37.277 819.232 37.8541 818.969 38.5682C818.706 39.2822 818.574 40.0527 818.574 40.8795C818.574 41.7063 818.706 42.474 818.969 43.1827C819.232 43.8914 819.637 44.4632 820.185 44.8981C820.732 45.333 821.43 45.5504 822.279 45.5504ZM841.834 47.2577C840.803 47.2577 839.893 46.9973 839.104 46.4765C838.315 45.9504 837.697 45.2095 837.252 44.2538C836.806 43.2928 836.583 42.1573 836.583 40.8473C836.583 39.548 836.806 38.4205 837.252 37.4649C837.697 36.5092 838.317 35.771 839.112 35.2502C839.907 34.7294 840.825 34.469 841.866 34.469C842.672 34.469 843.308 34.6033 843.775 34.8717C844.247 35.1348 844.607 35.4354 844.854 35.7737C845.106 36.1066 845.302 36.3804 845.442 36.5951H845.603V30.5068H847.504V47H845.667V45.0994H845.442C845.302 45.3249 845.104 45.6095 844.846 45.9531C844.588 46.2913 844.221 46.5946 843.743 46.8631C843.265 47.1262 842.629 47.2577 841.834 47.2577ZM842.092 45.5504C842.854 45.5504 843.498 45.3518 844.025 44.9545C844.551 44.5518 844.951 43.9961 845.225 43.2874C845.498 42.5734 845.635 41.7492 845.635 40.8151C845.635 39.8916 845.501 39.0836 845.233 38.391C844.964 37.6931 844.567 37.1508 844.041 36.7642C843.515 36.3723 842.865 36.1763 842.092 36.1763C841.286 36.1763 840.615 36.3831 840.078 36.7965C839.547 37.2045 839.147 37.7602 838.879 38.4635C838.615 39.1614 838.484 39.9453 838.484 40.8151C838.484 41.6956 838.618 42.4955 838.887 43.2149C839.16 43.929 839.563 44.4981 840.095 44.9222C840.631 45.341 841.297 45.5504 842.092 45.5504ZM856.274 47.2577C855.157 47.2577 854.177 46.9919 853.334 46.4604C852.497 45.9289 851.842 45.1853 851.369 44.2297C850.902 43.274 850.669 42.1573 850.669 40.8795C850.669 39.591 850.902 38.4662 851.369 37.5051C851.842 36.5441 852.497 35.7978 853.334 35.2663C854.177 34.7348 855.157 34.469 856.274 34.469C857.39 34.469 858.368 34.7348 859.205 35.2663C860.048 35.7978 860.703 36.5441 861.17 37.5051C861.643 38.4662 861.879 39.591 861.879 40.8795C861.879 42.1573 861.643 43.274 861.17 44.2297C860.703 45.1853 860.048 45.9289 859.205 46.4604C858.368 46.9919 857.39 47.2577 856.274 47.2577ZM856.274 45.5504C857.122 45.5504 857.82 45.333 858.368 44.8981C858.915 44.4632 859.321 43.8914 859.584 43.1827C859.847 42.474 859.978 41.7063 859.978 40.8795C859.978 40.0527 859.847 39.2822 859.584 38.5682C859.321 37.8541 858.915 37.277 858.368 36.8367C857.82 36.3965 857.122 36.1763 856.274 36.1763C855.425 36.1763 854.727 36.3965 854.18 36.8367C853.632 37.277 853.227 37.8541 852.964 38.5682C852.701 39.2822 852.569 40.0527 852.569 40.8795C852.569 41.7063 852.701 42.474 852.964 43.1827C853.227 43.8914 853.632 44.4632 854.18 44.8981C854.727 45.333 855.425 45.5504 856.274 45.5504ZM867.162 47L863.393 34.6301H865.39L868.064 44.1008H868.193L870.834 34.6301H872.863L875.473 44.0686H875.602L878.275 34.6301H880.273L876.504 47H874.635L871.929 37.4971H871.736L869.03 47H867.162ZM884.686 39.5587V47H882.785V34.6301H884.621V36.5629H884.782C885.072 35.9347 885.513 35.4301 886.103 35.0489C886.694 34.6623 887.456 34.469 888.39 34.469C889.228 34.469 889.961 34.6409 890.589 34.9845C891.217 35.3227 891.706 35.8381 892.055 36.5307C892.403 37.2179 892.578 38.0877 892.578 39.14V47H890.677V39.2688C890.677 38.2971 890.425 37.54 889.92 36.9978C889.416 36.4502 888.723 36.1763 887.843 36.1763C887.236 36.1763 886.694 36.3079 886.216 36.571C885.743 36.834 885.37 37.2179 885.096 37.7226C884.823 38.2273 884.686 38.8393 884.686 39.5587ZM897.952 30.5068V47H896.051V30.5068H897.952ZM906.458 47.2577C905.341 47.2577 904.361 46.9919 903.518 46.4604C902.681 45.9289 902.026 45.1853 901.553 44.2297C901.086 43.274 900.853 42.1573 900.853 40.8795C900.853 39.591 901.086 38.4662 901.553 37.5051C902.026 36.5441 902.681 35.7978 903.518 35.2663C904.361 34.7348 905.341 34.469 906.458 34.469C907.575 34.469 908.552 34.7348 909.389 35.2663C910.232 35.7978 910.887 36.5441 911.354 37.5051C911.827 38.4662 912.063 39.591 912.063 40.8795C912.063 42.1573 911.827 43.274 911.354 44.2297C910.887 45.1853 910.232 45.9289 909.389 46.4604C908.552 46.9919 907.575 47.2577 906.458 47.2577ZM906.458 45.5504C907.306 45.5504 908.004 45.333 908.552 44.8981C909.099 44.4632 909.505 43.8914 909.768 43.1827C910.031 42.474 910.162 41.7063 910.162 40.8795C910.162 40.0527 910.031 39.2822 909.768 38.5682C909.505 37.8541 909.099 37.277 908.552 36.8367C908.004 36.3965 907.306 36.1763 906.458 36.1763C905.61 36.1763 904.912 36.3965 904.364 36.8367C903.816 37.277 903.411 37.8541 903.148 38.5682C902.885 39.2822 902.753 40.0527 902.753 40.8795C902.753 41.7063 902.885 42.474 903.148 43.1827C903.411 43.8914 903.816 44.4632 904.364 44.8981C904.912 45.333 905.61 45.5504 906.458 45.5504ZM918.604 47.2899C917.82 47.2899 917.109 47.1423 916.47 46.847C915.831 46.5463 915.324 46.1141 914.948 45.5504C914.572 44.9813 914.384 44.2941 914.384 43.4888C914.384 42.7801 914.524 42.2056 914.803 41.7653C915.082 41.3197 915.455 40.9708 915.923 40.7184C916.39 40.4661 916.905 40.2782 917.469 40.1547C918.038 40.0258 918.61 39.9238 919.184 39.8487C919.936 39.752 920.545 39.6795 921.012 39.6312C921.485 39.5775 921.828 39.4889 922.043 39.3655C922.263 39.242 922.373 39.0272 922.373 38.7212V38.6568C922.373 37.8622 922.156 37.2448 921.721 36.8045C921.291 36.3643 920.639 36.1441 919.764 36.1441C918.857 36.1441 918.145 36.3428 917.63 36.7401C917.114 37.1374 916.752 37.5615 916.543 38.0125L914.739 37.3682C915.061 36.6166 915.49 36.0314 916.027 35.6126C916.569 35.1885 917.16 34.8932 917.799 34.7268C918.443 34.5549 919.077 34.469 919.7 34.469C920.097 34.469 920.553 34.5174 921.069 34.614C921.589 34.7053 922.091 34.8959 922.575 35.1858C923.063 35.4757 923.468 35.9133 923.791 36.4985C924.113 37.0837 924.274 37.8675 924.274 38.85V47H922.373V45.3249H922.277C922.148 45.5934 921.933 45.8806 921.632 46.1866C921.332 46.4926 920.932 46.753 920.432 46.9678C919.933 47.1825 919.324 47.2899 918.604 47.2899ZM918.894 45.5826C919.646 45.5826 920.279 45.435 920.795 45.1397C921.316 44.8444 921.707 44.4632 921.971 43.9961C922.239 43.529 922.373 43.0378 922.373 42.5224V40.7828C922.293 40.8795 922.116 40.9681 921.842 41.0486C921.573 41.1238 921.262 41.1909 920.908 41.2499C920.559 41.3036 920.218 41.3519 919.885 41.3949C919.557 41.4325 919.291 41.4647 919.087 41.4915C918.594 41.556 918.132 41.6607 917.702 41.8056C917.278 41.9452 916.935 42.1573 916.671 42.4418C916.414 42.721 916.285 43.1022 916.285 43.5854C916.285 44.2458 916.529 44.7451 917.018 45.0833C917.512 45.4162 918.137 45.5826 918.894 45.5826ZM932.414 47.2577C931.383 47.2577 930.473 46.9973 929.684 46.4765C928.894 45.9504 928.277 45.2095 927.831 44.2538C927.386 43.2928 927.163 42.1573 927.163 40.8473C927.163 39.548 927.386 38.4205 927.831 37.4649C928.277 36.5092 928.897 35.771 929.692 35.2502C930.486 34.7294 931.404 34.469 932.446 34.469C933.251 34.469 933.887 34.6033 934.355 34.8717C934.827 35.1348 935.187 35.4354 935.434 35.7737C935.686 36.1066 935.882 36.3804 936.022 36.5951H936.183V30.5068H938.083V47H936.247V45.0994H936.022C935.882 45.3249 935.683 45.6095 935.426 45.9531C935.168 46.2913 934.8 46.5946 934.322 46.8631C933.845 47.1262 933.208 47.2577 932.414 47.2577ZM932.671 45.5504C933.434 45.5504 934.078 45.3518 934.604 44.9545C935.13 44.5518 935.53 43.9961 935.804 43.2874C936.078 42.5734 936.215 41.7492 936.215 40.8151C936.215 39.8916 936.081 39.0836 935.812 38.391C935.544 37.6931 935.146 37.1508 934.62 36.7642C934.094 36.3723 933.445 36.1763 932.671 36.1763C931.866 36.1763 931.195 36.3831 930.658 36.7965C930.127 37.2045 929.727 37.7602 929.458 38.4635C929.195 39.1614 929.064 39.9453 929.064 40.8151C929.064 41.6956 929.198 42.4955 929.466 43.2149C929.74 43.929 930.143 44.4981 930.674 44.9222C931.211 45.341 931.877 45.5504 932.671 45.5504ZM943.213 47.1289C942.816 47.1289 942.475 46.9866 942.19 46.702C941.906 46.4175 941.764 46.0766 941.764 45.6793C941.764 45.282 941.906 44.941 942.19 44.6565C942.475 44.3719 942.816 44.2297 943.213 44.2297C943.61 44.2297 943.951 44.3719 944.236 44.6565C944.52 44.941 944.663 45.282 944.663 45.6793C944.663 45.9423 944.596 46.1839 944.461 46.4041C944.333 46.6242 944.158 46.8014 943.938 46.9356C943.723 47.0644 943.482 47.1289 943.213 47.1289Z" fill="#FFF085"/>
</svg>
