<svg width="1468" height="512" viewBox="0 0 1468 512" fill="none" xmlns="http://www.w3.org/2000/svg">
<g filter="url(#filter0_dd_2_110)">
<rect x="6" y="4" width="1456" height="500" rx="8.75" fill="url(#paint0_linear_2_110)"/>
<rect x="7" y="5" width="1454" height="498" rx="7.75" stroke="#D1D5DC" stroke-width="2" stroke-dasharray="6 4"/>
<path d="M721.02 227.841H747.32V201.541H721.02V227.841Z" fill="#0A0A0A"/>
<path d="M600.849 270.786V287H598.886V270.786H600.849ZM606.401 279.685V287H604.532V274.84H606.337V276.74H606.496C606.781 276.122 607.214 275.626 607.794 275.251C608.375 274.871 609.124 274.681 610.042 274.681C610.866 274.681 611.586 274.85 612.204 275.188C612.821 275.521 613.302 276.027 613.645 276.708C613.988 277.384 614.159 278.239 614.159 279.273V287H612.291V279.4C612.291 278.445 612.043 277.7 611.547 277.167C611.051 276.629 610.37 276.36 609.504 276.36C608.908 276.36 608.375 276.489 607.905 276.748C607.44 277.006 607.074 277.384 606.804 277.88C606.535 278.376 606.401 278.978 606.401 279.685ZM624.54 279.178V280.92H617.447V279.178H624.54ZM641.128 275.853H639.164C639.048 275.288 638.845 274.792 638.555 274.365C638.27 273.937 637.922 273.578 637.51 273.288C637.103 272.993 636.652 272.771 636.156 272.623C635.66 272.475 635.143 272.401 634.604 272.401C633.623 272.401 632.733 272.649 631.936 273.146C631.145 273.642 630.514 274.373 630.044 275.339C629.58 276.304 629.348 277.489 629.348 278.893C629.348 280.297 629.58 281.482 630.044 282.448C630.514 283.414 631.145 284.145 631.936 284.641C632.733 285.137 633.623 285.385 634.604 285.385C635.143 285.385 635.66 285.311 636.156 285.163C636.652 285.016 637.103 284.796 637.51 284.506C637.922 284.211 638.27 283.849 638.555 283.422C638.845 282.989 639.048 282.493 639.164 281.933H641.128C640.98 282.762 640.711 283.503 640.32 284.158C639.93 284.812 639.444 285.369 638.864 285.828C638.283 286.282 637.631 286.628 636.908 286.865C636.19 287.103 635.422 287.222 634.604 287.222C633.222 287.222 631.992 286.884 630.915 286.208C629.838 285.533 628.991 284.572 628.374 283.327C627.756 282.081 627.448 280.603 627.448 278.893C627.448 277.183 627.756 275.705 628.374 274.46C628.991 273.214 629.838 272.254 630.915 271.578C631.992 270.902 633.222 270.565 634.604 270.565C635.422 270.565 636.19 270.683 636.908 270.921C637.631 271.158 638.283 271.507 638.864 271.966C639.444 272.42 639.93 272.974 640.32 273.628C640.711 274.278 640.98 275.019 641.128 275.853ZM648.987 287.253C647.889 287.253 646.926 286.992 646.098 286.47C645.274 285.947 644.63 285.216 644.166 284.277C643.707 283.337 643.477 282.239 643.477 280.983C643.477 279.717 643.707 278.611 644.166 277.666C644.63 276.721 645.274 275.988 646.098 275.465C646.926 274.943 647.889 274.681 648.987 274.681C650.085 274.681 651.046 274.943 651.869 275.465C652.698 275.988 653.341 276.721 653.801 277.666C654.265 278.611 654.497 279.717 654.497 280.983C654.497 282.239 654.265 283.337 653.801 284.277C653.341 285.216 652.698 285.947 651.869 286.47C651.046 286.992 650.085 287.253 648.987 287.253ZM648.987 285.575C649.821 285.575 650.507 285.361 651.046 284.934C651.584 284.506 651.982 283.944 652.241 283.247C652.5 282.551 652.629 281.796 652.629 280.983C652.629 280.17 652.5 279.413 652.241 278.711C651.982 278.009 651.584 277.442 651.046 277.009C650.507 276.576 649.821 276.36 648.987 276.36C648.153 276.36 647.467 276.576 646.929 277.009C646.391 277.442 645.992 278.009 645.733 278.711C645.475 279.413 645.346 280.17 645.346 280.983C645.346 281.796 645.475 282.551 645.733 283.247C645.992 283.944 646.391 284.506 646.929 284.934C647.467 285.361 648.153 285.575 648.987 285.575ZM659.218 279.685V287H657.349V274.84H659.154V276.74H659.313C659.598 276.122 660.031 275.626 660.611 275.251C661.192 274.871 661.941 274.681 662.859 274.681C663.683 274.681 664.403 274.85 665.021 275.188C665.638 275.521 666.119 276.027 666.462 276.708C666.805 277.384 666.976 278.239 666.976 279.273V287H665.108V279.4C665.108 278.445 664.86 277.7 664.364 277.167C663.868 276.629 663.187 276.36 662.321 276.36C661.725 276.36 661.192 276.489 660.722 276.748C660.257 277.006 659.891 277.384 659.621 277.88C659.352 278.376 659.218 278.978 659.218 279.685ZM675.679 274.84V276.423H669.377V274.84H675.679ZM671.214 271.926H673.082V283.517C673.082 284.044 673.159 284.44 673.312 284.704C673.47 284.963 673.671 285.137 673.913 285.227C674.161 285.311 674.423 285.353 674.697 285.353C674.903 285.353 675.072 285.343 675.204 285.322C675.336 285.295 675.441 285.274 675.52 285.258L675.9 286.937C675.774 286.984 675.597 287.032 675.37 287.079C675.143 287.132 674.855 287.158 674.507 287.158C673.979 287.158 673.462 287.045 672.955 286.818C672.454 286.591 672.037 286.245 671.705 285.781C671.377 285.316 671.214 284.731 671.214 284.023V271.926ZM683.457 287.253C682.285 287.253 681.275 286.995 680.425 286.477C679.58 285.955 678.929 285.227 678.469 284.292C678.016 283.353 677.789 282.26 677.789 281.015C677.789 279.769 678.016 278.672 678.469 277.721C678.929 276.766 679.567 276.022 680.385 275.489C681.209 274.951 682.169 274.681 683.267 274.681C683.9 274.681 684.526 274.787 685.143 274.998C685.761 275.209 686.323 275.552 686.83 276.027C687.336 276.497 687.74 277.12 688.041 277.896C688.342 278.672 688.492 279.627 688.492 280.762V281.553H679.119V279.938H686.592C686.592 279.252 686.455 278.64 686.18 278.101C685.911 277.563 685.526 277.138 685.025 276.827C684.528 276.515 683.943 276.36 683.267 276.36C682.523 276.36 681.879 276.545 681.335 276.914C680.797 277.278 680.383 277.753 680.092 278.339C679.802 278.925 679.657 279.553 679.657 280.223V281.3C679.657 282.218 679.815 282.997 680.132 283.635C680.454 284.269 680.9 284.752 681.47 285.084C682.04 285.411 682.702 285.575 683.457 285.575C683.948 285.575 684.391 285.506 684.787 285.369C685.188 285.227 685.534 285.016 685.824 284.736C686.114 284.451 686.339 284.097 686.497 283.675L688.302 284.182C688.112 284.794 687.793 285.332 687.344 285.797C686.896 286.256 686.341 286.615 685.682 286.873C685.022 287.127 684.28 287.253 683.457 287.253ZM693.203 279.685V287H691.334V274.84H693.139V276.74H693.298C693.583 276.122 694.015 275.626 694.596 275.251C695.177 274.871 695.926 274.681 696.844 274.681C697.668 274.681 698.388 274.85 699.006 275.188C699.623 275.521 700.103 276.027 700.447 276.708C700.79 277.384 700.961 278.239 700.961 279.273V287H699.093V279.4C699.093 278.445 698.845 277.7 698.349 277.167C697.852 276.629 697.172 276.36 696.306 276.36C695.71 276.36 695.177 276.489 694.707 276.748C694.242 277.006 693.876 277.384 693.606 277.88C693.337 278.376 693.203 278.978 693.203 279.685ZM709.664 274.84V276.423H703.362V274.84H709.664ZM705.199 271.926H707.067V283.517C707.067 284.044 707.144 284.44 707.297 284.704C707.455 284.963 707.655 285.137 707.898 285.227C708.146 285.311 708.408 285.353 708.682 285.353C708.888 285.353 709.057 285.343 709.189 285.322C709.321 285.295 709.426 285.274 709.505 285.258L709.885 286.937C709.759 286.984 709.582 287.032 709.355 287.079C709.128 287.132 708.84 287.158 708.492 287.158C707.964 287.158 707.447 287.045 706.94 286.818C706.439 286.591 706.022 286.245 705.689 285.781C705.362 285.316 705.199 284.731 705.199 284.023V271.926ZM719.663 287H717.604L723.558 270.786H725.584L731.538 287H729.479L724.634 273.351H724.508L719.663 287ZM720.423 280.667H728.719V282.408H720.423V280.667ZM738.402 287.253C737.388 287.253 736.494 286.997 735.718 286.485C734.942 285.968 734.335 285.24 733.897 284.3C733.459 283.356 733.24 282.239 733.24 280.952C733.24 279.674 733.459 278.566 733.897 277.626C734.335 276.687 734.945 275.961 735.726 275.449C736.507 274.937 737.409 274.681 738.433 274.681C739.225 274.681 739.85 274.813 740.31 275.077C740.774 275.336 741.128 275.631 741.371 275.964C741.619 276.291 741.811 276.56 741.948 276.771H742.107V270.786H743.975V287H742.17V285.132H741.948C741.811 285.353 741.616 285.633 741.363 285.971C741.109 286.303 740.748 286.602 740.278 286.865C739.808 287.124 739.183 287.253 738.402 287.253ZM738.655 285.575C739.405 285.575 740.038 285.38 740.555 284.989C741.072 284.593 741.466 284.047 741.735 283.35C742.004 282.648 742.138 281.838 742.138 280.92C742.138 280.012 742.007 279.218 741.743 278.537C741.479 277.851 741.088 277.318 740.571 276.938C740.054 276.552 739.415 276.36 738.655 276.36C737.863 276.36 737.204 276.563 736.676 276.969C736.153 277.371 735.76 277.917 735.496 278.608C735.238 279.294 735.108 280.065 735.108 280.92C735.108 281.785 735.24 282.572 735.504 283.279C735.773 283.981 736.169 284.541 736.692 284.957C737.219 285.369 737.874 285.575 738.655 285.575ZM757.6 274.84L753.103 287H751.203L746.706 274.84H748.733L752.09 284.53H752.217L755.573 274.84H757.6ZM764.729 287.253C763.557 287.253 762.547 286.995 761.697 286.477C760.852 285.955 760.201 285.227 759.741 284.292C759.288 283.353 759.061 282.26 759.061 281.015C759.061 279.769 759.288 278.672 759.741 277.721C760.201 276.766 760.839 276.022 761.657 275.489C762.481 274.951 763.441 274.681 764.539 274.681C765.172 274.681 765.798 274.787 766.415 274.998C767.033 275.209 767.595 275.552 768.102 276.027C768.608 276.497 769.012 277.12 769.313 277.896C769.614 278.672 769.764 279.627 769.764 280.762V281.553H760.391V279.938H767.864C767.864 279.252 767.727 278.64 767.452 278.101C767.183 277.563 766.798 277.138 766.297 276.827C765.8 276.515 765.215 276.36 764.539 276.36C763.795 276.36 763.151 276.545 762.607 276.914C762.069 277.278 761.655 277.753 761.364 278.339C761.074 278.925 760.929 279.553 760.929 280.223V281.3C760.929 282.218 761.087 282.997 761.404 283.635C761.726 284.269 762.172 284.752 762.742 285.084C763.312 285.411 763.974 285.575 764.729 285.575C765.22 285.575 765.663 285.506 766.059 285.369C766.46 285.227 766.806 285.016 767.096 284.736C767.386 284.451 767.611 284.097 767.769 283.675L769.574 284.182C769.384 284.794 769.065 285.332 768.616 285.797C768.168 286.256 767.613 286.615 766.954 286.873C766.294 287.127 765.552 287.253 764.729 287.253ZM772.606 287V274.84H774.411V276.676H774.538C774.76 276.075 775.161 275.587 775.741 275.212C776.322 274.837 776.976 274.65 777.705 274.65C777.842 274.65 778.014 274.652 778.219 274.658C778.425 274.663 778.581 274.671 778.686 274.681V276.581C778.623 276.566 778.478 276.542 778.251 276.51C778.029 276.473 777.794 276.455 777.546 276.455C776.955 276.455 776.428 276.579 775.963 276.827C775.504 277.07 775.14 277.407 774.871 277.84C774.607 278.268 774.475 278.756 774.475 279.305V287H772.606ZM786.952 274.84V276.423H780.65V274.84H786.952ZM782.487 271.926H784.355V283.517C784.355 284.044 784.431 284.44 784.584 284.704C784.743 284.963 784.943 285.137 785.186 285.227C785.434 285.311 785.695 285.353 785.97 285.353C786.176 285.353 786.345 285.343 786.477 285.322C786.609 285.295 786.714 285.274 786.793 285.258L787.173 286.937C787.047 286.984 786.87 287.032 786.643 287.079C786.416 287.132 786.128 287.158 785.78 287.158C785.252 287.158 784.735 287.045 784.228 286.818C783.727 286.591 783.31 286.245 782.977 285.781C782.65 285.316 782.487 284.731 782.487 284.023V271.926ZM789.762 287V274.84H791.63V287H789.762ZM790.712 272.813C790.348 272.813 790.034 272.689 789.77 272.441C789.511 272.193 789.382 271.895 789.382 271.546C789.382 271.198 789.511 270.9 789.77 270.652C790.034 270.404 790.348 270.28 790.712 270.28C791.076 270.28 791.388 270.404 791.646 270.652C791.91 270.9 792.042 271.198 792.042 271.546C792.042 271.895 791.91 272.193 791.646 272.441C791.388 272.689 791.076 272.813 790.712 272.813ZM803.666 277.563L801.988 278.038C801.882 277.758 801.726 277.487 801.521 277.223C801.32 276.954 801.045 276.732 800.697 276.558C800.349 276.384 799.903 276.296 799.359 276.296C798.615 276.296 797.995 276.468 797.499 276.811C797.008 277.149 796.763 277.579 796.763 278.101C796.763 278.566 796.931 278.933 797.269 279.202C797.607 279.471 798.135 279.695 798.853 279.875L800.658 280.318C801.745 280.582 802.555 280.986 803.088 281.529C803.621 282.068 803.888 282.762 803.888 283.612C803.888 284.308 803.687 284.931 803.286 285.48C802.89 286.029 802.336 286.462 801.623 286.778C800.911 287.095 800.082 287.253 799.138 287.253C797.897 287.253 796.871 286.984 796.058 286.446C795.245 285.907 794.731 285.121 794.514 284.087L796.287 283.643C796.456 284.298 796.776 284.789 797.245 285.116C797.72 285.443 798.341 285.607 799.106 285.607C799.977 285.607 800.668 285.422 801.18 285.052C801.697 284.678 801.956 284.229 801.956 283.707C801.956 283.284 801.808 282.931 801.513 282.646C801.217 282.355 800.763 282.139 800.151 281.997L798.124 281.522C797.011 281.258 796.192 280.849 795.67 280.294C795.153 279.735 794.894 279.036 794.894 278.197C794.894 277.51 795.087 276.903 795.472 276.376C795.863 275.848 796.393 275.434 797.063 275.133C797.739 274.832 798.504 274.681 799.359 274.681C800.563 274.681 801.507 274.945 802.193 275.473C802.885 276.001 803.376 276.698 803.666 277.563ZM811.799 287.253C810.627 287.253 809.616 286.995 808.766 286.477C807.922 285.955 807.27 285.227 806.811 284.292C806.357 283.353 806.13 282.26 806.13 281.015C806.13 279.769 806.357 278.672 806.811 277.721C807.27 276.766 807.909 276.022 808.727 275.489C809.55 274.951 810.511 274.681 811.609 274.681C812.242 274.681 812.867 274.787 813.485 274.998C814.102 275.209 814.664 275.552 815.171 276.027C815.678 276.497 816.082 277.12 816.382 277.896C816.683 278.672 816.834 279.627 816.834 280.762V281.553H807.46V279.938H814.934C814.934 279.252 814.796 278.64 814.522 278.101C814.253 277.563 813.867 277.138 813.366 276.827C812.87 276.515 812.284 276.36 811.609 276.36C810.864 276.36 810.22 276.545 809.677 276.914C809.138 277.278 808.724 277.753 808.434 278.339C808.144 278.925 807.998 279.553 807.998 280.223V281.3C807.998 282.218 808.157 282.997 808.473 283.635C808.795 284.269 809.241 284.752 809.811 285.084C810.381 285.411 811.044 285.575 811.799 285.575C812.289 285.575 812.733 285.506 813.129 285.369C813.53 285.227 813.875 285.016 814.166 284.736C814.456 284.451 814.68 284.097 814.839 283.675L816.644 284.182C816.454 284.794 816.134 285.332 815.686 285.797C815.237 286.256 814.683 286.615 814.023 286.873C813.363 287.127 812.622 287.253 811.799 287.253ZM819.676 287V274.84H821.481V276.74H821.639C821.892 276.091 822.301 275.587 822.866 275.228C823.431 274.864 824.109 274.681 824.901 274.681C825.703 274.681 826.371 274.864 826.904 275.228C827.442 275.587 827.862 276.091 828.163 276.74H828.289C828.601 276.112 829.068 275.613 829.691 275.244C830.313 274.869 831.06 274.681 831.931 274.681C833.018 274.681 833.908 275.022 834.599 275.703C835.29 276.378 835.636 277.431 835.636 278.862V287H833.768V278.862C833.768 277.964 833.522 277.323 833.031 276.938C832.541 276.552 831.963 276.36 831.298 276.36C830.443 276.36 829.78 276.618 829.311 277.136C828.841 277.648 828.606 278.297 828.606 279.083V287H826.706V278.672C826.706 277.98 826.482 277.423 826.033 277.001C825.584 276.574 825.006 276.36 824.299 276.36C823.814 276.36 823.36 276.489 822.937 276.748C822.521 277.006 822.183 277.365 821.924 277.824C821.671 278.278 821.544 278.803 821.544 279.4V287H819.676ZM844.151 287.253C842.979 287.253 841.968 286.995 841.118 286.477C840.274 285.955 839.622 285.227 839.163 284.292C838.709 283.353 838.482 282.26 838.482 281.015C838.482 279.769 838.709 278.672 839.163 277.721C839.622 276.766 840.261 276.022 841.079 275.489C841.902 274.951 842.863 274.681 843.961 274.681C844.594 274.681 845.219 274.787 845.837 274.998C846.454 275.209 847.016 275.552 847.523 276.027C848.03 276.497 848.434 277.12 848.734 277.896C849.035 278.672 849.186 279.627 849.186 280.762V281.553H839.812V279.938H847.286C847.286 279.252 847.148 278.64 846.874 278.101C846.605 277.563 846.22 277.138 845.718 276.827C845.222 276.515 844.636 276.36 843.961 276.36C843.216 276.36 842.572 276.545 842.029 276.914C841.491 277.278 841.076 277.753 840.786 278.339C840.496 278.925 840.351 279.553 840.351 280.223V281.3C840.351 282.218 840.509 282.997 840.826 283.635C841.147 284.269 841.593 284.752 842.163 285.084C842.733 285.411 843.396 285.575 844.151 285.575C844.641 285.575 845.085 285.506 845.481 285.369C845.882 285.227 846.227 285.016 846.518 284.736C846.808 284.451 847.032 284.097 847.191 283.675L848.996 284.182C848.806 284.794 848.486 285.332 848.038 285.797C847.589 286.256 847.035 286.615 846.375 286.873C845.715 287.127 844.974 287.253 844.151 287.253ZM853.896 279.685V287H852.028V274.84H853.833V276.74H853.991C854.276 276.122 854.709 275.626 855.29 275.251C855.87 274.871 856.62 274.681 857.538 274.681C858.361 274.681 859.082 274.85 859.699 275.188C860.317 275.521 860.797 276.027 861.14 276.708C861.483 277.384 861.655 278.239 861.655 279.273V287H859.786V279.4C859.786 278.445 859.538 277.7 859.042 277.167C858.546 276.629 857.865 276.36 857 276.36C856.403 276.36 855.87 276.489 855.4 276.748C854.936 277.006 854.569 277.384 854.3 277.88C854.031 278.376 853.896 278.978 853.896 279.685ZM870.357 274.84V276.423H864.055V274.84H870.357ZM865.892 271.926H867.76V283.517C867.76 284.044 867.837 284.44 867.99 284.704C868.148 284.963 868.349 285.137 868.592 285.227C868.84 285.311 869.101 285.353 869.376 285.353C869.581 285.353 869.75 285.343 869.882 285.322C870.014 285.295 870.12 285.274 870.199 285.258L870.579 286.937C870.452 286.984 870.275 287.032 870.048 287.079C869.821 287.132 869.534 287.158 869.186 287.158C868.658 287.158 868.14 287.045 867.634 286.818C867.132 286.591 866.715 286.245 866.383 285.781C866.056 285.316 865.892 284.731 865.892 284.023V271.926Z" fill="#4A5565"/>
<path d="M660.181 318L666.478 305.543V305.433H659.218V303.92H668.238V305.515L661.968 318H660.181ZM670.801 318V316.763L675.448 311.675C675.993 311.079 676.442 310.561 676.795 310.122C677.148 309.677 677.409 309.26 677.579 308.87C677.753 308.476 677.84 308.064 677.84 307.633C677.84 307.138 677.721 306.709 677.483 306.347C677.249 305.985 676.928 305.706 676.52 305.509C676.112 305.311 675.654 305.213 675.145 305.213C674.605 305.213 674.133 305.325 673.729 305.55C673.33 305.77 673.021 306.079 672.801 306.478C672.586 306.877 672.478 307.344 672.478 307.88H670.856C670.856 307.055 671.046 306.331 671.426 305.708C671.807 305.085 672.324 304.599 672.98 304.25C673.64 303.902 674.38 303.728 675.2 303.728C676.025 303.728 676.756 303.902 677.393 304.25C678.031 304.599 678.53 305.069 678.892 305.66C679.254 306.251 679.435 306.909 679.435 307.633C679.435 308.151 679.341 308.657 679.153 309.152C678.97 309.643 678.649 310.19 678.191 310.795C677.737 311.396 677.107 312.129 676.3 312.995L673.138 316.378V316.488H679.683V318H670.801ZM687.032 318.192C686.088 318.192 685.254 318.025 684.529 317.691C683.81 317.351 683.248 316.886 682.845 316.295C682.442 315.699 682.242 315.021 682.247 314.26C682.242 313.664 682.359 313.114 682.598 312.61C682.836 312.101 683.161 311.677 683.574 311.338C683.991 310.995 684.456 310.777 684.969 310.685V310.603C684.296 310.429 683.759 310.05 683.361 309.468C682.962 308.882 682.765 308.215 682.77 307.468C682.765 306.753 682.946 306.114 683.313 305.55C683.679 304.986 684.183 304.541 684.825 304.216C685.471 303.891 686.207 303.728 687.032 303.728C687.848 303.728 688.576 303.891 689.218 304.216C689.86 304.541 690.364 304.986 690.731 305.55C691.102 306.114 691.29 306.753 691.294 307.468C691.29 308.215 691.086 308.882 690.682 309.468C690.284 310.05 689.754 310.429 689.094 310.603V310.685C689.603 310.777 690.061 310.995 690.469 311.338C690.877 311.677 691.203 312.101 691.445 312.61C691.688 313.114 691.812 313.664 691.817 314.26C691.812 315.021 691.606 315.699 691.198 316.295C690.795 316.886 690.233 317.351 689.514 317.691C688.799 318.025 687.971 318.192 687.032 318.192ZM687.032 316.68C687.669 316.68 688.219 316.577 688.682 316.371C689.145 316.164 689.502 315.873 689.754 315.498C690.006 315.122 690.135 314.682 690.139 314.178C690.135 313.646 689.997 313.176 689.727 312.768C689.456 312.36 689.087 312.04 688.62 311.806C688.157 311.572 687.628 311.455 687.032 311.455C686.431 311.455 685.895 311.572 685.423 311.806C684.956 312.04 684.587 312.36 684.316 312.768C684.051 313.176 683.92 313.646 683.924 314.178C683.92 314.682 684.041 315.122 684.289 315.498C684.541 315.873 684.901 316.164 685.368 316.371C685.836 316.577 686.39 316.68 687.032 316.68ZM687.032 309.998C687.536 309.998 687.983 309.897 688.372 309.695C688.767 309.494 689.076 309.212 689.301 308.85C689.525 308.488 689.64 308.064 689.644 307.578C689.64 307.101 689.527 306.686 689.307 306.334C689.087 305.976 688.783 305.701 688.393 305.509C688.004 305.311 687.55 305.213 687.032 305.213C686.505 305.213 686.044 305.311 685.65 305.509C685.256 305.701 684.951 305.976 684.736 306.334C684.52 306.686 684.415 307.101 684.419 307.578C684.415 308.064 684.523 308.488 684.743 308.85C684.967 309.212 685.277 309.494 685.671 309.695C686.065 309.897 686.519 309.998 687.032 309.998ZM708.174 315.47L700.419 307.715L701.464 306.67L709.219 314.425L708.174 315.47ZM701.464 315.47L700.419 314.425L708.174 306.67L709.219 307.715L701.464 315.47ZM718.102 318V316.763L722.75 311.675C723.295 311.079 723.744 310.561 724.097 310.122C724.45 309.677 724.711 309.26 724.881 308.87C725.055 308.476 725.142 308.064 725.142 307.633C725.142 307.138 725.023 306.709 724.785 306.347C724.551 305.985 724.23 305.706 723.822 305.509C723.414 305.311 722.956 305.213 722.447 305.213C721.906 305.213 721.434 305.325 721.031 305.55C720.632 305.77 720.323 306.079 720.103 306.478C719.888 306.877 719.78 307.344 719.78 307.88H718.157C718.157 307.055 718.348 306.331 718.728 305.708C719.108 305.085 719.626 304.599 720.282 304.25C720.942 303.902 721.682 303.728 722.502 303.728C723.327 303.728 724.058 303.902 724.695 304.25C725.332 304.599 725.832 305.069 726.194 305.66C726.556 306.251 726.737 306.909 726.737 307.633C726.737 308.151 726.643 308.657 726.455 309.152C726.272 309.643 725.951 310.19 725.493 310.795C725.039 311.396 724.409 312.129 723.602 312.995L720.44 316.378V316.488H726.985V318H718.102ZM734.224 318.192C733.417 318.192 732.691 318.032 732.044 317.711C731.398 317.39 730.88 316.95 730.491 316.391C730.101 315.832 729.888 315.195 729.851 314.48H731.501C731.566 315.117 731.854 315.644 732.368 316.061C732.886 316.474 733.504 316.68 734.224 316.68C734.801 316.68 735.315 316.545 735.764 316.274C736.217 316.004 736.573 315.633 736.829 315.161C737.091 314.684 737.221 314.146 737.221 313.545C737.221 312.931 737.086 312.383 736.816 311.902C736.55 311.416 736.183 311.034 735.716 310.754C735.248 310.474 734.714 310.332 734.114 310.328C733.683 310.323 733.241 310.39 732.787 310.527C732.333 310.66 731.96 310.832 731.666 311.043L730.071 310.85L730.924 303.92H738.239V305.433H732.354L731.859 309.585H731.941C732.23 309.356 732.592 309.166 733.028 309.015C733.463 308.863 733.917 308.788 734.389 308.788C735.25 308.788 736.018 308.994 736.692 309.407C737.37 309.814 737.902 310.374 738.287 311.084C738.676 311.794 738.871 312.606 738.871 313.518C738.871 314.416 738.669 315.218 738.266 315.924C737.867 316.625 737.317 317.18 736.616 317.588C735.915 317.991 735.118 318.192 734.224 318.192ZM746.195 318.192C745.159 318.192 744.276 317.911 743.548 317.347C742.819 316.779 742.262 315.956 741.877 314.879C741.492 313.797 741.3 312.491 741.3 310.96C741.3 309.439 741.492 308.139 741.877 307.062C742.267 305.981 742.826 305.156 743.555 304.587C744.288 304.014 745.168 303.728 746.195 303.728C747.221 303.728 748.099 304.014 748.828 304.587C749.561 305.156 750.12 305.981 750.505 307.062C750.895 308.139 751.089 309.439 751.089 310.96C751.089 312.491 750.897 313.797 750.512 314.879C750.127 315.956 749.57 316.779 748.841 317.347C748.113 317.911 747.23 318.192 746.195 318.192ZM746.195 316.68C747.221 316.68 748.019 316.185 748.587 315.195C749.155 314.205 749.439 312.794 749.439 310.96C749.439 309.741 749.309 308.703 749.048 307.846C748.791 306.989 748.42 306.336 747.934 305.887C747.453 305.437 746.873 305.213 746.195 305.213C745.177 305.213 744.382 305.715 743.809 306.718C743.236 307.718 742.95 309.132 742.95 310.96C742.95 312.179 743.078 313.215 743.335 314.068C743.591 314.92 743.96 315.569 744.441 316.013C744.927 316.458 745.512 316.68 746.195 316.68ZM759.174 321.96V307.44H760.742V309.118H760.934C761.053 308.934 761.218 308.701 761.429 308.417C761.644 308.128 761.952 307.871 762.35 307.647C762.754 307.417 763.299 307.303 763.986 307.303C764.876 307.303 765.659 307.525 766.338 307.97C767.016 308.414 767.545 309.044 767.926 309.86C768.306 310.676 768.496 311.639 768.496 312.748C768.496 313.866 768.306 314.835 767.926 315.656C767.545 316.472 767.018 317.104 766.344 317.553C765.671 317.998 764.894 318.22 764.014 318.22C763.336 318.22 762.793 318.108 762.385 317.883C761.977 317.654 761.663 317.395 761.443 317.106C761.223 316.813 761.053 316.57 760.934 316.378H760.797V321.96H759.174ZM760.769 312.72C760.769 313.518 760.886 314.221 761.12 314.831C761.353 315.436 761.695 315.91 762.144 316.254C762.593 316.593 763.143 316.763 763.794 316.763C764.472 316.763 765.038 316.584 765.492 316.226C765.95 315.864 766.294 315.378 766.523 314.769C766.757 314.155 766.874 313.472 766.874 312.72C766.874 311.978 766.759 311.309 766.53 310.713C766.306 310.112 765.964 309.638 765.506 309.29C765.052 308.937 764.481 308.76 763.794 308.76C763.134 308.76 762.579 308.928 762.13 309.262C761.681 309.592 761.342 310.055 761.113 310.651C760.884 311.242 760.769 311.932 760.769 312.72ZM770.971 318V307.44H772.594V318H770.971ZM771.796 305.68C771.48 305.68 771.207 305.573 770.978 305.357C770.754 305.142 770.641 304.883 770.641 304.58C770.641 304.278 770.754 304.019 770.978 303.804C771.207 303.588 771.48 303.48 771.796 303.48C772.112 303.48 772.383 303.588 772.607 303.804C772.837 304.019 772.951 304.278 772.951 304.58C772.951 304.883 772.837 305.142 772.607 305.357C772.383 305.573 772.112 305.68 771.796 305.68ZM776.775 307.44L779.305 311.758L781.835 307.44H783.705L780.295 312.72L783.705 318H781.835L779.305 313.903L776.775 318H774.905L778.26 312.72L774.905 307.44H776.775ZM790.013 318.22C788.995 318.22 788.117 317.995 787.38 317.546C786.646 317.093 786.08 316.46 785.682 315.649C785.287 314.833 785.09 313.884 785.09 312.803C785.09 311.721 785.287 310.768 785.682 309.943C786.08 309.113 786.635 308.467 787.345 308.004C788.06 307.537 788.894 307.303 789.848 307.303C790.398 307.303 790.941 307.395 791.477 307.578C792.013 307.761 792.501 308.059 792.941 308.472C793.381 308.879 793.732 309.42 793.993 310.094C794.254 310.768 794.385 311.597 794.385 312.583V313.27H786.245V311.868H792.735C792.735 311.272 792.616 310.74 792.378 310.273C792.144 309.805 791.809 309.436 791.374 309.166C790.943 308.896 790.434 308.76 789.848 308.76C789.201 308.76 788.642 308.921 788.17 309.242C787.703 309.558 787.343 309.97 787.091 310.479C786.839 310.988 786.713 311.533 786.713 312.115V313.05C786.713 313.848 786.85 314.524 787.125 315.078C787.405 315.628 787.792 316.048 788.287 316.336C788.782 316.62 789.357 316.763 790.013 316.763C790.439 316.763 790.824 316.703 791.168 316.584C791.516 316.46 791.816 316.277 792.068 316.034C792.32 315.786 792.515 315.479 792.653 315.113L794.22 315.553C794.055 316.084 793.778 316.552 793.388 316.955C792.999 317.354 792.517 317.665 791.944 317.89C791.372 318.11 790.728 318.22 790.013 318.22ZM798.475 303.92V318H796.853V303.92H798.475ZM808.927 309.805L807.469 310.218C807.378 309.975 807.243 309.739 807.064 309.51C806.89 309.276 806.651 309.083 806.349 308.932C806.046 308.781 805.659 308.705 805.187 308.705C804.541 308.705 804.002 308.854 803.571 309.152C803.145 309.445 802.932 309.819 802.932 310.273C802.932 310.676 803.079 310.995 803.372 311.228C803.665 311.462 804.124 311.657 804.747 311.813L806.314 312.198C807.259 312.427 807.962 312.777 808.425 313.25C808.888 313.717 809.119 314.32 809.119 315.058C809.119 315.663 808.945 316.203 808.597 316.68C808.253 317.157 807.772 317.533 807.153 317.808C806.534 318.082 805.815 318.22 804.994 318.22C803.917 318.22 803.026 317.986 802.32 317.519C801.614 317.051 801.168 316.368 800.98 315.47L802.52 315.085C802.666 315.653 802.944 316.08 803.351 316.364C803.764 316.648 804.302 316.79 804.967 316.79C805.723 316.79 806.324 316.63 806.768 316.309C807.217 315.983 807.442 315.594 807.442 315.14C807.442 314.773 807.314 314.466 807.057 314.219C806.8 313.967 806.406 313.779 805.874 313.655L804.115 313.243C803.147 313.013 802.437 312.658 801.983 312.177C801.534 311.691 801.31 311.084 801.31 310.355C801.31 309.759 801.477 309.232 801.811 308.774C802.151 308.316 802.611 307.956 803.193 307.695C803.78 307.433 804.445 307.303 805.187 307.303C806.232 307.303 807.052 307.532 807.648 307.99C808.249 308.449 808.675 309.054 808.927 309.805Z" fill="#6A7282"/>
</g>
<defs>
<filter id="filter0_dd_2_110" x="0" y="0" width="1468" height="512" filterUnits="userSpaceOnUse" color-interpolation-filters="sRGB">
<feFlood flood-opacity="0" result="BackgroundImageFix"/>
<feColorMatrix in="SourceAlpha" type="matrix" values="0 0 0 0 0 0 0 0 0 0 0 0 0 0 0 0 0 0 127 0" result="hardAlpha"/>
<feMorphology radius="1" operator="erode" in="SourceAlpha" result="effect1_dropShadow_2_110"/>
<feOffset dy="1"/>
<feGaussianBlur stdDeviation="1"/>
<feComposite in2="hardAlpha" operator="out"/>
<feColorMatrix type="matrix" values="0 0 0 0 0 0 0 0 0 0 0 0 0 0 0 0 0 0 0.1 0"/>
<feBlend mode="normal" in2="BackgroundImageFix" result="effect1_dropShadow_2_110"/>
<feColorMatrix in="SourceAlpha" type="matrix" values="0 0 0 0 0 0 0 0 0 0 0 0 0 0 0 0 0 0 127 0" result="hardAlpha"/>
<feOffset dy="1"/>
<feGaussianBlur stdDeviation="1.5"/>
<feComposite in2="hardAlpha" operator="out"/>
<feColorMatrix type="matrix" values="0 0 0 0 0 0 0 0 0 0 0 0 0 0 0 0 0 0 0.1 0"/>
<feBlend mode="normal" in2="effect1_dropShadow_2_110" result="effect2_dropShadow_2_110"/>
<feBlend mode="normal" in="SourceGraphic" in2="effect2_dropShadow_2_110" result="shape"/>
</filter>
<linearGradient id="paint0_linear_2_110" x1="6" y1="254" x2="1462" y2="254" gradientUnits="userSpaceOnUse">
<stop stop-color="#F3F4F6"/>
<stop offset="1" stop-color="#E5E7EB"/>
</linearGradient>
</defs>
</svg>
