<svg width="1468" height="192" viewBox="0 0 1468 192" fill="none" xmlns="http://www.w3.org/2000/svg">
<g filter="url(#filter0_dd_2_78)">
<rect x="6" y="4" width="1456" height="180" rx="8.75" fill="url(#paint0_linear_2_78)"/>
<rect x="7" y="5" width="1454" height="178" rx="7.75" stroke="#D1D5DC" stroke-width="2" stroke-dasharray="6 4"/>
<path d="M723.66 70.47H744.66V49.47H723.66V70.47Z" fill="#0A0A0A"/>
<path d="M585.946 120V103.507H587.943V118.228H595.61V120H585.946ZM603.631 120.258C602.439 120.258 601.411 119.995 600.546 119.468C599.687 118.937 599.024 118.196 598.557 117.246C598.095 116.29 597.865 115.179 597.865 113.912C597.865 112.645 598.095 111.528 598.557 110.562C599.024 109.59 599.674 108.833 600.506 108.29C601.344 107.743 602.321 107.469 603.438 107.469C604.082 107.469 604.718 107.576 605.346 107.791C605.974 108.006 606.546 108.355 607.061 108.838C607.577 109.316 607.988 109.949 608.294 110.739C608.6 111.528 608.753 112.5 608.753 113.654V114.459H599.218V112.816H606.82C606.82 112.118 606.68 111.496 606.401 110.948C606.127 110.4 605.735 109.968 605.225 109.651C604.721 109.335 604.125 109.176 603.438 109.176C602.68 109.176 602.025 109.364 601.472 109.74C600.925 110.111 600.503 110.594 600.208 111.19C599.913 111.786 599.765 112.425 599.765 113.106V114.202C599.765 115.136 599.926 115.928 600.248 116.577C600.576 117.222 601.03 117.713 601.609 118.051C602.189 118.384 602.863 118.55 603.631 118.55C604.13 118.55 604.581 118.481 604.984 118.341C605.392 118.196 605.743 117.981 606.039 117.697C606.334 117.407 606.562 117.047 606.723 116.618L608.559 117.133C608.366 117.756 608.041 118.303 607.585 118.776C607.129 119.243 606.565 119.608 605.894 119.871C605.223 120.129 604.468 120.258 603.631 120.258ZM615.284 120.29C614.5 120.29 613.789 120.142 613.15 119.847C612.511 119.546 612.004 119.114 611.628 118.55C611.252 117.981 611.064 117.294 611.064 116.489C611.064 115.78 611.204 115.206 611.483 114.765C611.762 114.32 612.135 113.971 612.602 113.718C613.069 113.466 613.585 113.278 614.148 113.155C614.718 113.026 615.289 112.924 615.864 112.849C616.615 112.752 617.225 112.68 617.692 112.631C618.164 112.578 618.508 112.489 618.723 112.365C618.943 112.242 619.053 112.027 619.053 111.721V111.657C619.053 110.862 618.835 110.245 618.401 109.805C617.971 109.364 617.319 109.144 616.444 109.144C615.536 109.144 614.825 109.343 614.309 109.74C613.794 110.137 613.432 110.562 613.222 111.013L611.418 110.368C611.74 109.617 612.17 109.031 612.707 108.613C613.249 108.188 613.84 107.893 614.479 107.727C615.123 107.555 615.756 107.469 616.379 107.469C616.776 107.469 617.233 107.517 617.748 107.614C618.269 107.705 618.771 107.896 619.254 108.186C619.743 108.476 620.148 108.913 620.47 109.498C620.792 110.084 620.953 110.868 620.953 111.85V120H619.053V118.325H618.956C618.827 118.593 618.613 118.881 618.312 119.187C618.011 119.493 617.611 119.753 617.112 119.968C616.613 120.183 616.003 120.29 615.284 120.29ZM615.574 118.583C616.325 118.583 616.959 118.435 617.474 118.14C617.995 117.844 618.387 117.463 618.65 116.996C618.919 116.529 619.053 116.038 619.053 115.522V113.783C618.972 113.879 618.795 113.968 618.521 114.049C618.253 114.124 617.942 114.191 617.587 114.25C617.238 114.304 616.897 114.352 616.564 114.395C616.237 114.432 615.971 114.465 615.767 114.492C615.273 114.556 614.811 114.661 614.382 114.806C613.958 114.945 613.614 115.157 613.351 115.442C613.093 115.721 612.965 116.102 612.965 116.585C612.965 117.246 613.209 117.745 613.697 118.083C614.191 118.416 614.817 118.583 615.574 118.583ZM629.093 120.258C628.063 120.258 627.152 119.997 626.363 119.477C625.574 118.95 624.957 118.209 624.511 117.254C624.065 116.293 623.843 115.157 623.843 113.847C623.843 112.548 624.065 111.421 624.511 110.465C624.957 109.509 625.577 108.771 626.371 108.25C627.166 107.729 628.084 107.469 629.126 107.469C629.931 107.469 630.567 107.603 631.034 107.872C631.507 108.135 631.866 108.435 632.113 108.774C632.366 109.107 632.562 109.38 632.701 109.595H632.862V103.507H634.763V120H632.927V118.099H632.701C632.562 118.325 632.363 118.609 632.105 118.953C631.848 119.291 631.48 119.595 631.002 119.863C630.524 120.126 629.888 120.258 629.093 120.258ZM629.351 118.55C630.113 118.55 630.758 118.352 631.284 117.954C631.81 117.552 632.21 116.996 632.484 116.287C632.758 115.573 632.895 114.749 632.895 113.815C632.895 112.892 632.76 112.084 632.492 111.391C632.223 110.693 631.826 110.151 631.3 109.764C630.774 109.372 630.124 109.176 629.351 109.176C628.546 109.176 627.875 109.383 627.338 109.796C626.806 110.204 626.406 110.76 626.138 111.463C625.875 112.161 625.743 112.945 625.743 113.815C625.743 114.696 625.877 115.496 626.146 116.215C626.42 116.929 626.822 117.498 627.354 117.922C627.891 118.341 628.556 118.55 629.351 118.55ZM643.694 120.258C642.502 120.258 641.474 119.995 640.61 119.468C639.751 118.937 639.087 118.196 638.62 117.246C638.159 116.29 637.928 115.179 637.928 113.912C637.928 112.645 638.159 111.528 638.62 110.562C639.087 109.59 639.737 108.833 640.569 108.29C641.407 107.743 642.384 107.469 643.501 107.469C644.145 107.469 644.781 107.576 645.409 107.791C646.038 108.006 646.609 108.355 647.125 108.838C647.64 109.316 648.051 109.949 648.357 110.739C648.663 111.528 648.816 112.5 648.816 113.654V114.459H639.281V112.816H646.883C646.883 112.118 646.744 111.496 646.464 110.948C646.191 110.4 645.799 109.968 645.289 109.651C644.784 109.335 644.188 109.176 643.501 109.176C642.744 109.176 642.089 109.364 641.536 109.74C640.988 110.111 640.567 110.594 640.271 111.19C639.976 111.786 639.828 112.425 639.828 113.106V114.202C639.828 115.136 639.989 115.928 640.312 116.577C640.639 117.222 641.093 117.713 641.673 118.051C642.252 118.384 642.926 118.55 643.694 118.55C644.193 118.55 644.644 118.481 645.047 118.341C645.455 118.196 645.807 117.981 646.102 117.697C646.397 117.407 646.625 117.047 646.786 116.618L648.623 117.133C648.429 117.756 648.105 118.303 647.648 118.776C647.192 119.243 646.628 119.608 645.957 119.871C645.286 120.129 644.532 120.258 643.694 120.258ZM651.707 120V107.63H653.543V109.498H653.672C653.898 108.886 654.306 108.39 654.896 108.009C655.487 107.627 656.152 107.437 656.893 107.437C657.033 107.437 657.207 107.44 657.417 107.445C657.626 107.45 657.785 107.458 657.892 107.469V109.402C657.828 109.386 657.68 109.362 657.449 109.329C657.224 109.292 656.985 109.273 656.732 109.273C656.131 109.273 655.594 109.399 655.122 109.651C654.655 109.898 654.284 110.242 654.01 110.682C653.742 111.117 653.608 111.614 653.608 112.172V120H651.707ZM660.403 120V103.507H662.303V109.595H662.464C662.604 109.38 662.797 109.107 663.044 108.774C663.296 108.435 663.656 108.135 664.123 107.872C664.596 107.603 665.235 107.469 666.04 107.469C667.081 107.469 668 107.729 668.794 108.25C669.589 108.771 670.209 109.509 670.654 110.465C671.1 111.421 671.323 112.548 671.323 113.847C671.323 115.157 671.1 116.293 670.654 117.254C670.209 118.209 669.591 118.95 668.802 119.477C668.013 119.997 667.103 120.258 666.072 120.258C665.278 120.258 664.641 120.126 664.163 119.863C663.686 119.595 663.318 119.291 663.06 118.953C662.802 118.609 662.604 118.325 662.464 118.099H662.239V120H660.403ZM662.271 113.815C662.271 114.749 662.408 115.573 662.682 116.287C662.956 116.996 663.355 117.552 663.882 117.954C664.408 118.352 665.052 118.55 665.814 118.55C666.609 118.55 667.272 118.341 667.804 117.922C668.34 117.498 668.743 116.929 669.012 116.215C669.285 115.496 669.422 114.696 669.422 113.815C669.422 112.945 669.288 112.161 669.02 111.463C668.757 110.76 668.357 110.204 667.82 109.796C667.288 109.383 666.62 109.176 665.814 109.176C665.041 109.176 664.392 109.372 663.866 109.764C663.339 110.151 662.942 110.693 662.674 111.391C662.405 112.084 662.271 112.892 662.271 113.815ZM679.255 120.258C678.139 120.258 677.159 119.992 676.316 119.46C675.478 118.929 674.823 118.185 674.351 117.23C673.884 116.274 673.65 115.157 673.65 113.879C673.65 112.591 673.884 111.466 674.351 110.505C674.823 109.544 675.478 108.798 676.316 108.266C677.159 107.735 678.139 107.469 679.255 107.469C680.372 107.469 681.349 107.735 682.187 108.266C683.03 108.798 683.685 109.544 684.152 110.505C684.624 111.466 684.861 112.591 684.861 113.879C684.861 115.157 684.624 116.274 684.152 117.23C683.685 118.185 683.03 118.929 682.187 119.46C681.349 119.992 680.372 120.258 679.255 120.258ZM679.255 118.55C680.104 118.55 680.802 118.333 681.349 117.898C681.897 117.463 682.302 116.891 682.565 116.183C682.828 115.474 682.96 114.706 682.96 113.879C682.96 113.053 682.828 112.282 682.565 111.568C682.302 110.854 681.897 110.277 681.349 109.837C680.802 109.396 680.104 109.176 679.255 109.176C678.407 109.176 677.709 109.396 677.162 109.837C676.614 110.277 676.209 110.854 675.945 111.568C675.682 112.282 675.551 113.053 675.551 113.879C675.551 114.706 675.682 115.474 675.945 116.183C676.209 116.891 676.614 117.463 677.162 117.898C677.709 118.333 678.407 118.55 679.255 118.55ZM691.402 120.29C690.618 120.29 689.907 120.142 689.268 119.847C688.629 119.546 688.121 119.114 687.746 118.55C687.37 117.981 687.182 117.294 687.182 116.489C687.182 115.78 687.321 115.206 687.601 114.765C687.88 114.32 688.253 113.971 688.72 113.718C689.187 113.466 689.703 113.278 690.266 113.155C690.835 113.026 691.407 112.924 691.982 112.849C692.733 112.752 693.343 112.68 693.81 112.631C694.282 112.578 694.626 112.489 694.841 112.365C695.061 112.242 695.171 112.027 695.171 111.721V111.657C695.171 110.862 694.953 110.245 694.518 109.805C694.089 109.364 693.437 109.144 692.561 109.144C691.654 109.144 690.943 109.343 690.427 109.74C689.912 110.137 689.55 110.562 689.34 111.013L687.536 110.368C687.858 109.617 688.288 109.031 688.825 108.613C689.367 108.188 689.958 107.893 690.596 107.727C691.241 107.555 691.874 107.469 692.497 107.469C692.894 107.469 693.351 107.517 693.866 107.614C694.387 107.705 694.889 107.896 695.372 108.186C695.861 108.476 696.266 108.913 696.588 109.498C696.91 110.084 697.071 110.868 697.071 111.85V120H695.171V118.325H695.074C694.945 118.593 694.731 118.881 694.43 119.187C694.129 119.493 693.729 119.753 693.23 119.968C692.731 120.183 692.121 120.29 691.402 120.29ZM691.692 118.583C692.443 118.583 693.077 118.435 693.592 118.14C694.113 117.844 694.505 117.463 694.768 116.996C695.037 116.529 695.171 116.038 695.171 115.522V113.783C695.09 113.879 694.913 113.968 694.639 114.049C694.371 114.124 694.059 114.191 693.705 114.25C693.356 114.304 693.015 114.352 692.682 114.395C692.355 114.432 692.089 114.465 691.885 114.492C691.391 114.556 690.929 114.661 690.5 114.806C690.076 114.945 689.732 115.157 689.469 115.442C689.211 115.721 689.082 116.102 689.082 116.585C689.082 117.246 689.327 117.745 689.815 118.083C690.309 118.416 690.935 118.583 691.692 118.583ZM700.54 120V107.63H702.376V109.498H702.505C702.731 108.886 703.139 108.39 703.729 108.009C704.32 107.627 704.986 107.437 705.727 107.437C705.866 107.437 706.041 107.44 706.25 107.445C706.459 107.45 706.618 107.458 706.725 107.469V109.402C706.661 109.386 706.513 109.362 706.282 109.329C706.057 109.292 705.818 109.273 705.566 109.273C704.964 109.273 704.427 109.399 703.955 109.651C703.488 109.898 703.117 110.242 702.844 110.682C702.575 111.117 702.441 111.614 702.441 112.172V120H700.54ZM713.273 120.258C712.242 120.258 711.332 119.997 710.543 119.477C709.753 118.95 709.136 118.209 708.69 117.254C708.245 116.293 708.022 115.157 708.022 113.847C708.022 112.548 708.245 111.421 708.69 110.465C709.136 109.509 709.756 108.771 710.551 108.25C711.345 107.729 712.263 107.469 713.305 107.469C714.11 107.469 714.746 107.603 715.213 107.872C715.686 108.135 716.046 108.435 716.293 108.774C716.545 109.107 716.741 109.38 716.88 109.595H717.042V103.507H718.942V120H717.106V118.099H716.88C716.741 118.325 716.542 118.609 716.285 118.953C716.027 119.291 715.659 119.595 715.181 119.863C714.703 120.126 714.067 120.258 713.273 120.258ZM713.53 118.55C714.293 118.55 714.937 118.352 715.463 117.954C715.989 117.552 716.389 116.996 716.663 116.287C716.937 115.573 717.074 114.749 717.074 113.815C717.074 112.892 716.94 112.084 716.671 111.391C716.403 110.693 716.005 110.151 715.479 109.764C714.953 109.372 714.303 109.176 713.53 109.176C712.725 109.176 712.054 109.383 711.517 109.796C710.985 110.204 710.585 110.76 710.317 111.463C710.054 112.161 709.922 112.945 709.922 113.815C709.922 114.696 710.057 115.496 710.325 116.215C710.599 116.929 711.002 117.498 711.533 117.922C712.07 118.341 712.736 118.55 713.53 118.55ZM729.999 120H727.905L733.962 103.507H736.023L742.079 120H739.985L735.057 106.116H734.928L729.999 120ZM730.772 113.557H739.212V115.329H730.772V113.557ZM749.062 120.258C748.031 120.258 747.121 119.997 746.331 119.477C745.542 118.95 744.925 118.209 744.479 117.254C744.034 116.293 743.811 115.157 743.811 113.847C743.811 112.548 744.034 111.421 744.479 110.465C744.925 109.509 745.545 108.771 746.339 108.25C747.134 107.729 748.052 107.469 749.094 107.469C749.899 107.469 750.535 107.603 751.002 107.872C751.475 108.135 751.835 108.435 752.082 108.774C752.334 109.107 752.53 109.38 752.669 109.595H752.83V103.507H754.731V120H752.895V118.099H752.669C752.53 118.325 752.331 118.609 752.073 118.953C751.816 119.291 751.448 119.595 750.97 119.863C750.492 120.126 749.856 120.258 749.062 120.258ZM749.319 118.55C750.082 118.55 750.726 118.352 751.252 117.954C751.778 117.552 752.178 116.996 752.452 116.287C752.726 115.573 752.863 114.749 752.863 113.815C752.863 112.892 752.728 112.084 752.46 111.391C752.192 110.693 751.794 110.151 751.268 109.764C750.742 109.372 750.092 109.176 749.319 109.176C748.514 109.176 747.843 109.383 747.306 109.796C746.774 110.204 746.374 110.76 746.106 111.463C745.843 112.161 745.711 112.945 745.711 113.815C745.711 114.696 745.846 115.496 746.114 116.215C746.388 116.929 746.79 117.498 747.322 117.922C747.859 118.341 748.525 118.55 749.319 118.55ZM768.591 107.63L764.017 120H762.084L757.509 107.63H759.571L762.986 117.487H763.115L766.529 107.63H768.591ZM775.843 120.258C774.651 120.258 773.623 119.995 772.758 119.468C771.899 118.937 771.236 118.196 770.769 117.246C770.307 116.29 770.077 115.179 770.077 113.912C770.077 112.645 770.307 111.528 770.769 110.562C771.236 109.59 771.886 108.833 772.718 108.29C773.556 107.743 774.533 107.469 775.65 107.469C776.294 107.469 776.93 107.576 777.558 107.791C778.186 108.006 778.758 108.355 779.274 108.838C779.789 109.316 780.2 109.949 780.506 110.739C780.812 111.528 780.965 112.5 780.965 113.654V114.459H771.43V112.816H779.032C779.032 112.118 778.892 111.496 778.613 110.948C778.339 110.4 777.947 109.968 777.437 109.651C776.933 109.335 776.337 109.176 775.65 109.176C774.893 109.176 774.238 109.364 773.685 109.74C773.137 110.111 772.715 110.594 772.42 111.19C772.125 111.786 771.977 112.425 771.977 113.106V114.202C771.977 115.136 772.138 115.928 772.46 116.577C772.788 117.222 773.242 117.713 773.821 118.051C774.401 118.384 775.075 118.55 775.843 118.55C776.342 118.55 776.793 118.481 777.196 118.341C777.604 118.196 777.955 117.981 778.251 117.697C778.546 117.407 778.774 117.047 778.935 116.618L780.771 117.133C780.578 117.756 780.253 118.303 779.797 118.776C779.341 119.243 778.777 119.608 778.106 119.871C777.435 120.129 776.68 120.258 775.843 120.258ZM783.856 120V107.63H785.692V109.498H785.821C786.046 108.886 786.454 108.39 787.045 108.009C787.636 107.627 788.301 107.437 789.042 107.437C789.182 107.437 789.356 107.44 789.566 107.445C789.775 107.45 789.933 107.458 790.041 107.469V109.402C789.976 109.386 789.829 109.362 789.598 109.329C789.372 109.292 789.133 109.273 788.881 109.273C788.28 109.273 787.743 109.399 787.27 109.651C786.803 109.898 786.433 110.242 786.159 110.682C785.891 111.117 785.756 111.614 785.756 112.172V120H783.856ZM798.448 107.63V109.241H792.038V107.63H798.448ZM793.906 104.666H795.807V116.457C795.807 116.993 795.885 117.396 796.041 117.665C796.202 117.928 796.406 118.105 796.653 118.196C796.905 118.282 797.171 118.325 797.45 118.325C797.659 118.325 797.831 118.314 797.965 118.293C798.099 118.266 798.207 118.244 798.287 118.228L798.674 119.936C798.545 119.984 798.365 120.032 798.134 120.081C797.904 120.134 797.611 120.161 797.257 120.161C796.72 120.161 796.194 120.046 795.678 119.815C795.168 119.584 794.744 119.232 794.406 118.76C794.073 118.287 793.906 117.691 793.906 116.972V104.666ZM801.307 120V107.63H803.208V120H801.307ZM802.274 105.568C801.903 105.568 801.584 105.442 801.315 105.19C801.052 104.938 800.921 104.634 800.921 104.28C800.921 103.926 801.052 103.622 801.315 103.37C801.584 103.118 801.903 102.991 802.274 102.991C802.644 102.991 802.961 103.118 803.224 103.37C803.493 103.622 803.627 103.926 803.627 104.28C803.627 104.634 803.493 104.938 803.224 105.19C802.961 105.442 802.644 105.568 802.274 105.568ZM815.451 110.4L813.744 110.884C813.636 110.599 813.478 110.323 813.269 110.054C813.065 109.78 812.785 109.555 812.431 109.378C812.077 109.201 811.623 109.112 811.07 109.112C810.313 109.112 809.682 109.286 809.177 109.635C808.678 109.979 808.429 110.417 808.429 110.948C808.429 111.421 808.6 111.794 808.944 112.067C809.288 112.341 809.824 112.569 810.555 112.752L812.391 113.203C813.497 113.471 814.321 113.882 814.863 114.435C815.405 114.983 815.676 115.689 815.676 116.553C815.676 117.262 815.472 117.895 815.064 118.454C814.662 119.012 814.098 119.452 813.373 119.775C812.648 120.097 811.806 120.258 810.845 120.258C809.583 120.258 808.539 119.984 807.712 119.436C806.885 118.889 806.361 118.089 806.141 117.036L807.945 116.585C808.117 117.251 808.442 117.75 808.92 118.083C809.403 118.416 810.034 118.583 810.812 118.583C811.698 118.583 812.401 118.395 812.922 118.019C813.448 117.638 813.711 117.181 813.711 116.65C813.711 116.22 813.561 115.861 813.26 115.571C812.96 115.275 812.498 115.055 811.875 114.91L809.814 114.427C808.681 114.159 807.849 113.743 807.317 113.179C806.791 112.61 806.528 111.898 806.528 111.045C806.528 110.347 806.724 109.729 807.116 109.192C807.513 108.656 808.053 108.234 808.735 107.928C809.422 107.622 810.2 107.469 811.07 107.469C812.294 107.469 813.255 107.737 813.953 108.274C814.656 108.811 815.156 109.52 815.451 110.4ZM823.724 120.258C822.532 120.258 821.504 119.995 820.639 119.468C819.78 118.937 819.117 118.196 818.65 117.246C818.188 116.29 817.958 115.179 817.958 113.912C817.958 112.645 818.188 111.528 818.65 110.562C819.117 109.59 819.767 108.833 820.599 108.29C821.437 107.743 822.414 107.469 823.53 107.469C824.175 107.469 824.811 107.576 825.439 107.791C826.067 108.006 826.639 108.355 827.154 108.838C827.67 109.316 828.081 109.949 828.387 110.739C828.693 111.528 828.846 112.5 828.846 113.654V114.459H819.311V112.816H826.913C826.913 112.118 826.773 111.496 826.494 110.948C826.22 110.4 825.828 109.968 825.318 109.651C824.814 109.335 824.218 109.176 823.53 109.176C822.773 109.176 822.118 109.364 821.565 109.74C821.018 110.111 820.596 110.594 820.301 111.19C820.006 111.786 819.858 112.425 819.858 113.106V114.202C819.858 115.136 820.019 115.928 820.341 116.577C820.669 117.222 821.123 117.713 821.702 118.051C822.282 118.384 822.956 118.55 823.724 118.55C824.223 118.55 824.674 118.481 825.077 118.341C825.485 118.196 825.836 117.981 826.132 117.697C826.427 117.407 826.655 117.047 826.816 116.618L828.652 117.133C828.459 117.756 828.134 118.303 827.678 118.776C827.222 119.243 826.658 119.608 825.987 119.871C825.316 120.129 824.561 120.258 823.724 120.258ZM831.737 120V107.63H833.573V109.563H833.734C833.992 108.903 834.408 108.39 834.982 108.025C835.557 107.654 836.247 107.469 837.052 107.469C837.868 107.469 838.547 107.654 839.089 108.025C839.637 108.39 840.064 108.903 840.37 109.563H840.499C840.816 108.924 841.291 108.417 841.924 108.041C842.558 107.66 843.317 107.469 844.203 107.469C845.309 107.469 846.214 107.815 846.917 108.508C847.621 109.195 847.972 110.266 847.972 111.721V120H846.072V111.721C846.072 110.808 845.822 110.156 845.323 109.764C844.823 109.372 844.236 109.176 843.559 109.176C842.689 109.176 842.016 109.439 841.538 109.966C841.06 110.486 840.821 111.147 840.821 111.947V120H838.888V111.528C838.888 110.825 838.66 110.258 838.204 109.829C837.747 109.394 837.159 109.176 836.44 109.176C835.946 109.176 835.484 109.308 835.055 109.571C834.631 109.834 834.287 110.199 834.024 110.666C833.766 111.128 833.637 111.662 833.637 112.269V120H831.737ZM856.634 120.258C855.442 120.258 854.414 119.995 853.549 119.468C852.69 118.937 852.027 118.196 851.56 117.246C851.098 116.29 850.867 115.179 850.867 113.912C850.867 112.645 851.098 111.528 851.56 110.562C852.027 109.59 852.677 108.833 853.509 108.29C854.346 107.743 855.324 107.469 856.44 107.469C857.085 107.469 857.721 107.576 858.349 107.791C858.977 108.006 859.549 108.355 860.064 108.838C860.58 109.316 860.99 109.949 861.296 110.739C861.603 111.528 861.756 112.5 861.756 113.654V114.459H852.22V112.816H859.823C859.823 112.118 859.683 111.496 859.404 110.948C859.13 110.4 858.738 109.968 858.228 109.651C857.723 109.335 857.128 109.176 856.44 109.176C855.683 109.176 855.028 109.364 854.475 109.74C853.928 110.111 853.506 110.594 853.211 111.19C852.916 111.786 852.768 112.425 852.768 113.106V114.202C852.768 115.136 852.929 115.928 853.251 116.577C853.579 117.222 854.032 117.713 854.612 118.051C855.192 118.384 855.866 118.55 856.634 118.55C857.133 118.55 857.584 118.481 857.987 118.341C858.395 118.196 858.746 117.981 859.042 117.697C859.337 117.407 859.565 117.047 859.726 116.618L861.562 117.133C861.369 117.756 861.044 118.303 860.588 118.776C860.131 119.243 859.568 119.608 858.897 119.871C858.225 120.129 857.471 120.258 856.634 120.258ZM866.547 112.559V120H864.647V107.63H866.483V109.563H866.644C866.934 108.935 867.374 108.43 867.965 108.049C868.555 107.662 869.318 107.469 870.252 107.469C871.089 107.469 871.822 107.641 872.45 107.984C873.078 108.323 873.567 108.838 873.916 109.531C874.265 110.218 874.44 111.088 874.44 112.14V120H872.539V112.269C872.539 111.297 872.287 110.54 871.782 109.998C871.277 109.45 870.585 109.176 869.704 109.176C869.097 109.176 868.555 109.308 868.077 109.571C867.605 109.834 867.232 110.218 866.958 110.723C866.684 111.227 866.547 111.839 866.547 112.559ZM883.292 107.63V109.241H876.882V107.63H883.292ZM878.75 104.666H880.651V116.457C880.651 116.993 880.728 117.396 880.884 117.665C881.045 117.928 881.249 118.105 881.496 118.196C881.749 118.282 882.014 118.325 882.293 118.325C882.503 118.325 882.675 118.314 882.809 118.293C882.943 118.266 883.051 118.244 883.131 118.228L883.518 119.936C883.389 119.984 883.209 120.032 882.978 120.081C882.747 120.134 882.455 120.161 882.1 120.161C881.563 120.161 881.037 120.046 880.522 119.815C880.012 119.584 879.588 119.232 879.249 118.76C878.916 118.287 878.75 117.691 878.75 116.972V104.666Z" fill="#4A5565"/>
<path d="M665.88 151L672.178 138.543V138.433H664.918V136.92H673.937V138.515L667.668 151H665.88ZM676.5 151V149.763L681.147 144.675C681.693 144.079 682.142 143.561 682.495 143.122C682.848 142.677 683.109 142.26 683.279 141.87C683.453 141.476 683.54 141.064 683.54 140.633C683.54 140.138 683.421 139.709 683.182 139.347C682.949 138.985 682.628 138.706 682.22 138.509C681.812 138.311 681.354 138.213 680.845 138.213C680.304 138.213 679.832 138.325 679.429 138.55C679.03 138.77 678.721 139.079 678.501 139.478C678.285 139.877 678.178 140.344 678.178 140.88H676.555C676.555 140.055 676.745 139.331 677.126 138.708C677.506 138.085 678.024 137.599 678.679 137.25C679.339 136.902 680.08 136.728 680.9 136.728C681.725 136.728 682.456 136.902 683.093 137.25C683.73 137.599 684.23 138.069 684.592 138.66C684.954 139.251 685.135 139.909 685.135 140.633C685.135 141.151 685.041 141.657 684.853 142.152C684.67 142.643 684.349 143.19 683.89 143.795C683.437 144.396 682.807 145.129 682 145.995L678.837 149.378V149.488H685.382V151H676.5ZM692.731 151.192C691.787 151.192 690.953 151.025 690.229 150.691C689.509 150.351 688.948 149.886 688.545 149.295C688.141 148.699 687.942 148.021 687.947 147.26C687.942 146.664 688.059 146.114 688.297 145.61C688.536 145.101 688.861 144.677 689.273 144.338C689.69 143.995 690.156 143.777 690.669 143.685V143.603C689.995 143.429 689.459 143.05 689.06 142.468C688.662 141.882 688.464 141.215 688.469 140.468C688.464 139.753 688.646 139.114 689.012 138.55C689.379 137.986 689.883 137.541 690.525 137.216C691.171 136.891 691.906 136.728 692.731 136.728C693.547 136.728 694.276 136.891 694.918 137.216C695.559 137.541 696.063 137.986 696.43 138.55C696.801 139.114 696.989 139.753 696.994 140.468C696.989 141.215 696.785 141.882 696.382 142.468C695.983 143.05 695.454 143.429 694.794 143.603V143.685C695.303 143.777 695.761 143.995 696.169 144.338C696.577 144.677 696.902 145.101 697.145 145.61C697.388 146.114 697.512 146.664 697.516 147.26C697.512 148.021 697.305 148.699 696.898 149.295C696.494 149.886 695.933 150.351 695.213 150.691C694.498 151.025 693.671 151.192 692.731 151.192ZM692.731 149.68C693.368 149.68 693.918 149.577 694.381 149.371C694.844 149.164 695.202 148.873 695.454 148.498C695.706 148.122 695.834 147.682 695.839 147.178C695.834 146.646 695.697 146.176 695.426 145.768C695.156 145.36 694.787 145.04 694.319 144.806C693.857 144.572 693.327 144.455 692.731 144.455C692.131 144.455 691.595 144.572 691.123 144.806C690.655 145.04 690.286 145.36 690.016 145.768C689.75 146.176 689.619 146.646 689.624 147.178C689.619 147.682 689.741 148.122 689.988 148.498C690.24 148.873 690.6 149.164 691.068 149.371C691.535 149.577 692.09 149.68 692.731 149.68ZM692.731 142.998C693.236 142.998 693.682 142.897 694.072 142.695C694.466 142.494 694.776 142.212 695 141.85C695.225 141.488 695.339 141.064 695.344 140.578C695.339 140.101 695.227 139.686 695.007 139.334C694.787 138.976 694.482 138.701 694.093 138.509C693.703 138.311 693.249 138.213 692.731 138.213C692.204 138.213 691.744 138.311 691.35 138.509C690.955 138.701 690.651 138.976 690.435 139.334C690.22 139.686 690.114 140.101 690.119 140.578C690.114 141.064 690.222 141.488 690.442 141.85C690.667 142.212 690.976 142.494 691.37 142.695C691.764 142.897 692.218 142.998 692.731 142.998ZM713.873 148.47L706.118 140.715L707.163 139.67L714.918 147.425L713.873 148.47ZM707.163 148.47L706.118 147.425L713.873 139.67L714.918 140.715L707.163 148.47ZM728.284 136.728C728.862 136.733 729.439 136.843 730.017 137.058C730.594 137.273 731.121 137.631 731.598 138.13C732.075 138.625 732.457 139.301 732.746 140.158C733.035 141.016 733.179 142.09 733.179 143.383C733.179 144.634 733.06 145.745 732.822 146.717C732.588 147.684 732.249 148.5 731.804 149.164C731.364 149.829 730.828 150.333 730.196 150.677C729.568 151.021 728.857 151.192 728.064 151.192C727.276 151.192 726.573 151.037 725.954 150.725C725.34 150.409 724.835 149.971 724.441 149.412C724.052 148.848 723.802 148.195 723.692 147.453H725.369C725.521 148.099 725.821 148.633 726.27 149.054C726.724 149.472 727.322 149.68 728.064 149.68C729.151 149.68 730.008 149.206 730.636 148.257C731.268 147.308 731.584 145.968 731.584 144.235H731.474C731.218 144.62 730.913 144.952 730.56 145.232C730.207 145.512 729.815 145.727 729.384 145.878C728.953 146.03 728.495 146.105 728.009 146.105C727.203 146.105 726.463 145.906 725.789 145.507C725.12 145.104 724.583 144.551 724.18 143.85C723.781 143.144 723.582 142.338 723.582 141.43C723.582 140.569 723.774 139.78 724.159 139.065C724.549 138.346 725.094 137.773 725.796 137.347C726.501 136.92 727.331 136.714 728.284 136.728ZM728.284 138.24C727.707 138.24 727.187 138.385 726.724 138.674C726.265 138.958 725.901 139.343 725.631 139.828C725.365 140.31 725.232 140.844 725.232 141.43C725.232 142.017 725.36 142.551 725.617 143.032C725.878 143.509 726.233 143.889 726.683 144.173C727.136 144.453 727.652 144.593 728.229 144.593C728.665 144.593 729.07 144.508 729.446 144.338C729.822 144.164 730.15 143.928 730.429 143.63C730.713 143.328 730.936 142.986 731.096 142.606C731.257 142.221 731.337 141.82 731.337 141.403C731.337 140.853 731.204 140.337 730.938 139.856C730.677 139.375 730.315 138.985 729.852 138.687C729.393 138.389 728.871 138.24 728.284 138.24ZM740.475 151.192C739.439 151.192 738.557 150.911 737.828 150.347C737.1 149.779 736.543 148.956 736.158 147.879C735.773 146.797 735.58 145.491 735.58 143.96C735.58 142.439 735.773 141.139 736.158 140.062C736.547 138.981 737.106 138.156 737.835 137.587C738.568 137.014 739.448 136.728 740.475 136.728C741.502 136.728 742.379 137.014 743.108 137.587C743.841 138.156 744.401 138.981 744.786 140.062C745.175 141.139 745.37 142.439 745.37 143.96C745.37 145.491 745.177 146.797 744.792 147.879C744.407 148.956 743.851 149.779 743.122 150.347C742.393 150.911 741.511 151.192 740.475 151.192ZM740.475 149.68C741.502 149.68 742.299 149.185 742.867 148.195C743.436 147.205 743.72 145.794 743.72 143.96C743.72 142.741 743.589 141.703 743.328 140.846C743.071 139.989 742.7 139.336 742.214 138.887C741.733 138.437 741.153 138.213 740.475 138.213C739.458 138.213 738.662 138.715 738.089 139.718C737.517 140.718 737.23 142.132 737.23 143.96C737.23 145.179 737.358 146.215 737.615 147.068C737.872 147.92 738.241 148.569 738.722 149.013C739.208 149.458 739.792 149.68 740.475 149.68ZM753.455 154.96V140.44H755.022V142.118H755.215C755.334 141.934 755.499 141.701 755.71 141.417C755.925 141.128 756.232 140.871 756.631 140.647C757.034 140.417 757.579 140.303 758.267 140.303C759.156 140.303 759.94 140.525 760.618 140.97C761.296 141.414 761.826 142.044 762.206 142.86C762.587 143.676 762.777 144.639 762.777 145.748C762.777 146.866 762.587 147.835 762.206 148.656C761.826 149.472 761.299 150.104 760.625 150.553C759.951 150.998 759.174 151.22 758.294 151.22C757.616 151.22 757.073 151.108 756.665 150.883C756.257 150.654 755.943 150.395 755.723 150.106C755.503 149.813 755.334 149.57 755.215 149.378H755.077V154.96H753.455ZM755.05 145.72C755.05 146.518 755.166 147.221 755.4 147.831C755.634 148.436 755.975 148.91 756.425 149.254C756.874 149.593 757.424 149.763 758.074 149.763C758.753 149.763 759.319 149.584 759.773 149.226C760.231 148.864 760.575 148.378 760.804 147.769C761.037 147.155 761.154 146.472 761.154 145.72C761.154 144.978 761.04 144.309 760.811 143.713C760.586 143.112 760.245 142.638 759.786 142.29C759.333 141.937 758.762 141.76 758.074 141.76C757.414 141.76 756.86 141.928 756.411 142.262C755.962 142.592 755.622 143.055 755.393 143.651C755.164 144.242 755.05 144.932 755.05 145.72ZM765.252 151V140.44H766.874V151H765.252ZM766.077 138.68C765.76 138.68 765.488 138.573 765.259 138.357C765.034 138.142 764.922 137.883 764.922 137.58C764.922 137.278 765.034 137.019 765.259 136.804C765.488 136.588 765.76 136.48 766.077 136.48C766.393 136.48 766.663 136.588 766.888 136.804C767.117 137.019 767.232 137.278 767.232 137.58C767.232 137.883 767.117 138.142 766.888 138.357C766.663 138.573 766.393 138.68 766.077 138.68ZM771.056 140.44L773.586 144.758L776.116 140.44H777.986L774.576 145.72L777.986 151H776.116L773.586 146.903L771.056 151H769.186L772.541 145.72L769.186 140.44H771.056ZM784.293 151.22C783.276 151.22 782.398 150.995 781.66 150.546C780.927 150.093 780.361 149.46 779.962 148.649C779.568 147.833 779.371 146.884 779.371 145.803C779.371 144.721 779.568 143.768 779.962 142.943C780.361 142.113 780.915 141.467 781.626 141.004C782.341 140.537 783.175 140.303 784.128 140.303C784.678 140.303 785.221 140.395 785.757 140.578C786.294 140.761 786.782 141.059 787.222 141.472C787.662 141.879 788.012 142.42 788.274 143.094C788.535 143.768 788.666 144.597 788.666 145.583V146.27H780.526V144.868H787.016C787.016 144.272 786.896 143.74 786.658 143.273C786.424 142.805 786.09 142.436 785.654 142.166C785.224 141.896 784.715 141.76 784.128 141.76C783.482 141.76 782.923 141.921 782.451 142.242C781.983 142.558 781.623 142.97 781.371 143.479C781.119 143.988 780.993 144.533 780.993 145.115V146.05C780.993 146.848 781.131 147.524 781.406 148.078C781.685 148.628 782.073 149.048 782.568 149.336C783.063 149.62 783.638 149.763 784.293 149.763C784.719 149.763 785.104 149.703 785.448 149.584C785.796 149.46 786.097 149.277 786.349 149.034C786.601 148.786 786.796 148.479 786.933 148.113L788.501 148.553C788.336 149.084 788.058 149.552 787.669 149.955C787.279 150.354 786.798 150.665 786.225 150.89C785.652 151.11 785.008 151.22 784.293 151.22ZM792.756 136.92V151H791.134V136.92H792.756ZM803.207 142.805L801.75 143.218C801.658 142.975 801.523 142.739 801.344 142.51C801.17 142.276 800.932 142.083 800.629 141.932C800.327 141.781 799.94 141.705 799.468 141.705C798.821 141.705 798.283 141.854 797.852 142.152C797.426 142.445 797.213 142.819 797.213 143.273C797.213 143.676 797.359 143.995 797.653 144.228C797.946 144.462 798.404 144.657 799.028 144.813L800.595 145.198C801.539 145.427 802.243 145.777 802.706 146.25C803.168 146.717 803.4 147.32 803.4 148.058C803.4 148.663 803.226 149.203 802.877 149.68C802.534 150.157 802.052 150.533 801.434 150.808C800.815 151.082 800.095 151.22 799.275 151.22C798.198 151.22 797.307 150.986 796.601 150.519C795.895 150.051 795.448 149.368 795.26 148.47L796.8 148.085C796.947 148.653 797.224 149.08 797.632 149.364C798.044 149.648 798.583 149.79 799.248 149.79C800.004 149.79 800.604 149.63 801.049 149.309C801.498 148.983 801.722 148.594 801.722 148.14C801.722 147.773 801.594 147.466 801.337 147.219C801.081 146.967 800.687 146.779 800.155 146.655L798.395 146.243C797.428 146.013 796.718 145.658 796.264 145.177C795.815 144.691 795.59 144.084 795.59 143.355C795.59 142.759 795.757 142.232 796.092 141.774C796.431 141.316 796.892 140.956 797.474 140.695C798.06 140.433 798.725 140.303 799.468 140.303C800.512 140.303 801.333 140.532 801.929 140.99C802.529 141.449 802.955 142.054 803.207 142.805Z" fill="#6A7282"/>
</g>
<defs>
<filter id="filter0_dd_2_78" x="0" y="0" width="1468" height="192" filterUnits="userSpaceOnUse" color-interpolation-filters="sRGB">
<feFlood flood-opacity="0" result="BackgroundImageFix"/>
<feColorMatrix in="SourceAlpha" type="matrix" values="0 0 0 0 0 0 0 0 0 0 0 0 0 0 0 0 0 0 127 0" result="hardAlpha"/>
<feMorphology radius="1" operator="erode" in="SourceAlpha" result="effect1_dropShadow_2_78"/>
<feOffset dy="1"/>
<feGaussianBlur stdDeviation="1"/>
<feComposite in2="hardAlpha" operator="out"/>
<feColorMatrix type="matrix" values="0 0 0 0 0 0 0 0 0 0 0 0 0 0 0 0 0 0 0.1 0"/>
<feBlend mode="normal" in2="BackgroundImageFix" result="effect1_dropShadow_2_78"/>
<feColorMatrix in="SourceAlpha" type="matrix" values="0 0 0 0 0 0 0 0 0 0 0 0 0 0 0 0 0 0 127 0" result="hardAlpha"/>
<feOffset dy="1"/>
<feGaussianBlur stdDeviation="1.5"/>
<feComposite in2="hardAlpha" operator="out"/>
<feColorMatrix type="matrix" values="0 0 0 0 0 0 0 0 0 0 0 0 0 0 0 0 0 0 0.1 0"/>
<feBlend mode="normal" in2="effect1_dropShadow_2_78" result="effect2_dropShadow_2_78"/>
<feBlend mode="normal" in="SourceGraphic" in2="effect2_dropShadow_2_78" result="shape"/>
</filter>
<linearGradient id="paint0_linear_2_78" x1="6" y1="94" x2="1462" y2="94" gradientUnits="userSpaceOnUse">
<stop stop-color="#F3F4F6"/>
<stop offset="1" stop-color="#E5E7EB"/>
</linearGradient>
</defs>
</svg>
