<svg width="42" height="42" viewBox="0 0 42 42" fill="none" xmlns="http://www.w3.org/2000/svg">
<path d="M8.75 8.75C8.74982 8.13416 8.91213 7.52918 9.22055 6.99613C9.52896 6.46309 9.97257 6.02086 10.5066 5.71409C11.0406 5.40733 11.646 5.24689 12.2619 5.24898C12.8777 5.25107 13.4821 5.41562 14.014 5.726L35.0087 17.9725C35.5386 18.2799 35.9785 18.7211 36.2844 19.2518C36.5903 19.7825 36.7516 20.3842 36.7522 20.9967C36.7527 21.6093 36.5924 22.2113 36.2874 22.7425C35.9824 23.2738 35.5433 23.7156 35.014 24.024L14.014 36.274C13.4821 36.5844 12.8777 36.7489 12.2619 36.751C11.646 36.7531 11.0406 36.5927 10.5066 36.2859C9.97257 35.9791 9.52896 35.5369 9.22055 35.0039C8.91213 34.4708 8.74982 33.8658 8.75 33.25V8.75Z" fill="white" stroke="white" stroke-width="1.75" stroke-linecap="round" stroke-linejoin="round"/>
</svg>
